<?xml version="1.0" encoding="UTF-8"?>
<svg id="_レイヤー_1" data-name="レイヤー 1" xmlns="http://www.w3.org/2000/svg" version="1.1" xmlns:xlink="http://www.w3.org/1999/xlink" viewBox="0 0 280 280">
  <defs>
    <style>
      .cls-1 {
        fill: #000;
      }

      .cls-1, .cls-2, .cls-3, .cls-4, .cls-5, .cls-6, .cls-7 {
        stroke-width: 0px;
      }

      .cls-2 {
        fill: none;
      }

      .cls-3 {
        fill: #dcdddd;
      }

      .cls-4 {
        fill: #ffecd6;
      }

      .cls-5 {
        fill: #fff;
      }

      .cls-6 {
        fill: #29abe2;
      }

      .cls-7 {
        fill: url(#_新規パターンスウォッチ_3);
      }
    </style>
    <pattern id="_新規パターンスウォッチ_3" data-name="新規パターンスウォッチ 3" x="0" y="0" width="4.74" height="4.74" patternTransform="translate(-316.25)" patternUnits="userSpaceOnUse" viewBox="0 0 4.74 4.74">
      <g>
        <rect class="cls-2" y="0" width="4.74" height="4.74"/>
        <rect class="cls-5" y="0" width="4.74" height="4.74"/>
        <circle class="cls-6" cx="2.37" cy="2.37" r="1.63"/>
      </g>
    </pattern>
  </defs>
  <path class="cls-3" d="M165.1,256.13c-.23.5-.5,1-.86,1.48-.54.7-1.29,1.26-2.11,1.63l4.66-1.16c-.24-.14-.46-.31-.67-.5-.39-.36-.76-.83-1.02-1.45Z"/>
  <path class="cls-4" d="M159.54,70.15c.23.23.71.4,1.05.51,2.77.89,5.84.7,8.2.43.98-.11,1.21-.25,1.27-.31.09-.13.16-.66.18-.84.26-2.03.37-4.08.34-6.13-.87-.09-1.76-.17-2.66-.23.77.8,1.16,1.99,1,3.25-.23,1.79-1.56,3.09-3.15,3.11h-.02c-1.31,0-2.5-.89-2.98-2.23-.29-.83-.25-1.6-.22-2.16h0c.04-.77.43-1.52,1.03-2.07-1.9.05-3.85.23-5.81.64.26,1.64.66,3.25,1.21,4.82.17.49.36.97.59,1.2Z"/>
  <path class="cls-5" d="M182.85,248.05c-.31-.18-.67-.39-.86-.42-.26-.06-.85.19-2.02,1.56l-.72.84,11.48.65c-2.73-.33-5.35-1.17-7.72-2.54l-.17-.1Z"/>
  <path class="cls-4" d="M187.62,70.49c.05.05.28.2,1.25.34,2.35.34,5.41.62,8.21-.19.34-.1.83-.26,1.06-.48s.44-.7.62-1.19c.59-1.55,1.04-3.15,1.35-4.78-2.03-.49-4.05-.73-6.02-.83,1.2.73,1.86,2.19,1.65,3.77-.23,1.79-1.56,3.09-3.16,3.11h-.03c-1.31,0-2.5-.89-2.97-2.23-.29-.83-.25-1.63-.22-2.16.05-.99.65-1.94,1.56-2.49.04-.02.08-.03.11-.05-1.28.02-2.54.09-3.74.18-.1,2.08-.05,4.12.15,6.14.02.17.07.71.16.85Z"/>
  <path class="cls-4" d="M203.97,236.16c-.38-.77-.84-1.48-1.36-2.12-.19.01-.38,0-.58-.04-14.04-3.42-24.4-5.18-37.55-7.07-5.32-.76-7.63-.69-8.63-.49-1.29.25-1.58.58-2.2,1.31-.13.15-.26.3-.4.45-3.23,4.47-5.61,9.66-6.9,15.03-.45,1.86-.8,3.98-.05,5.63,0,.02.02.03.02.05.16-.18.37-.47.61-.91l3.55-6.65c1.33-3.43,3.41-6.88,6.39-10.54.7-.86,1.96-.99,2.81-.29.86.7.99,1.96.29,2.81-2.86,3.53-4.82,6.79-5.97,9.99-.96,2.67-1.86,6.73-.7,10.94,0,.03.02.07.03.1,1.11-1.41,1.73-3.32,2.38-5.34.95-2.94,1.93-5.98,4.6-8.05,1.58-2.89,3.53-5.59,5.84-8,.76-.8,2.03-.83,2.83-.06.8.76.83,2.03.06,2.83-4.98,5.2-8.17,11.9-9,18.87-.08.71-.04,1,0,1.11.22.03.77-.18,1.04-.53.41-.53.64-1.27.91-2.13.16-.52.33-1.03.53-1.53.86-2.13,3.62-6.37,6.57-7.77,1.76-2.64,4.01-4.93,7.04-6.26,1.01-.44,2.19.02,2.63,1.03.44,1.01-.02,2.19-1.03,2.63-2.21.97-3.93,2.74-5.33,4.83-.1.29-.27.55-.49.77-1.05,1.72-1.91,3.61-2.66,5.44-.69,1.68-.53,2.36-.41,2.46.08.07.48.13.92-.09.66-.33,1.27-1.05,1.87-1.74l5.31-6.22c.86-1.01,2.88-3.37,5.71-2.91.92.15,1.64.57,2.22.91l.15.09c4.05,2.33,9,2.81,13.95,1.35.06-.02.12-.03.19-.04,1.98-.38,4-.57,6.02-.59.13-3.49-.03-6.85-1.19-9.24Z"/>
  <path class="cls-3" d="M174.66,255.41c-.25.29-.53.61-.83.92l7.32-1.82c.87-.22,1.76.31,1.97,1.19.22.87-.32,1.76-1.19,1.97l-35.84,8.89c-.03.33-.07.68-.11,1.03.48,0,.98.02,1.46.03.06,0,.11.01.17.02,9.55-2.28,35.04-9.28,41.21-10.99l.15-2.07-12.99-.74-1.33,1.55Z"/>
  <path class="cls-5" d="M195.95,227.66l-2.09.07-.05.26c.6.13,1.21.26,1.82.4.06-.27.17-.52.32-.73Z"/>
  <path class="cls-5" d="M70.15,223.35c-1.68.23-3.17,1.14-4.19,2.56-1.05,1.45-1.48,3.25-1.24,5.07s1.16,3.44,2.55,4.55c1.37,1.09,3.05,1.57,4.73,1.33,1.68-.23,3.17-1.14,4.19-2.56,1.05-1.45,1.48-3.25,1.23-5.07-.51-3.73-3.77-6.37-7.28-5.89Z"/>
  <path class="cls-3" d="M146.35,262.51v.29c-.02.13-.03.24-.03.36l13.99-3.47c-.09,0-.17,0-.26,0-1.11,0-2.12-.4-2.86-1.15-.45-.46-.73-.98-.91-1.51-.09.11-.18.23-.28.34-.49.53-1.26,1.26-2.43,1.4-.14.02-.27.02-.4.02-1.69,0-3.12-1.33-3.72-3.5-.29-1.07-.49-2.17-.6-3.29-.95.85-1.89,1.09-2.62,1.09-.41,0-.75-.07-.99-.14-.06-.02-.13-.04-.19-.07.46,2.87.91,5.8,1.35,8.82.04.28.02.55-.05.81Z"/>
  <path class="cls-3" d="M129.65,191.86c-39.38-.08-105.67-3.01-113.76-3.37-1,.88-3.06,2.67-5.17,4.36,3.13,14.63,5.31,26.14,7.42,37.29,2.02,10.69,3.94,20.81,6.59,33.22,19.39.4,40.34,1.27,60.61,2.12,18.91.79,38.38,1.61,56.63,2.03.21-1.69.29-3.08.37-4.9l.02-.46c0-.07.02-.13.03-.19-2.74-18.64-5.78-34.23-9-50.72-1.21-6.19-2.46-12.58-3.74-19.38ZM79.43,236.65c-1.67,2.31-4.12,3.8-6.89,4.18-.46.06-.92.09-1.38.09-2.29,0-4.52-.78-6.38-2.26-2.2-1.76-3.63-4.29-4.02-7.14-.39-2.85.31-5.67,1.96-7.96,1.67-2.31,4.12-3.8,6.89-4.18,5.69-.78,10.98,3.4,11.78,9.31.39,2.85-.3,5.67-1.96,7.96ZM120.83,198.23s-.03,0-.05,0l-103.95-2.99c-.9-.03-1.61-.78-1.58-1.67.03-.9.79-1.57,1.67-1.58l103.95,2.99c.9.03,1.61.78,1.58,1.67-.03.88-.75,1.58-1.63,1.58ZM138.63,261.93c-.11.02-.21.03-.31.03-.76,0-1.44-.54-1.6-1.32l-11.84-60.44c-.17-.88.4-1.74,1.29-1.91.88-.18,1.74.4,1.91,1.29l11.84,60.44c.17.88-.4,1.74-1.29,1.91Z"/>
  <path class="cls-7" d="M158.69,114.22c-.08-.13-.14-.26-.19-.39l-6.24,10.46c-.01.18-.04.36-.1.53,4.64,3.66,9.02,7.75,13.05,12.18,2.16-3.4,4.58-6.6,7.23-9.56-.49-.32-.97-.63-1.44-.94-4.15-2.7-7.73-5.03-12.32-12.29Z"/>
  <path class="cls-7" d="M161.38,110.61c-.23.1-.49.15-.75.16-.06.03-.2.11-.44.4.39-.04.78.05,1.12.23.03-.26.05-.52.07-.78Z"/>
  <path class="cls-4" d="M193.03,114.06c-.24-2.02-.43-4.83-.41-7.72-4.84,3.01-10.32,5.35-13.84,5.35-.12,0-.24,0-.35-.01-.14.03-.28.05-.43.05h-.02c-3.91-.04-8.37-1.88-12.46-4.5.02,2.93-.32,5.5-.57,7.36l-.09.71c-.02.19-.08.37-.16.54,2.91,3.69,5.45,5.35,8.49,7.32,1.09.71,2.22,1.44,3.45,2.32.2.15.37.33.5.54.4.32.68.79.75,1.34.15,1.28.29,2.57.42,3.86.22-1.4.44-2.8.64-4.21,0-.03,0-.06,0-.09.05-.58.36-1.1.83-1.44,1.23-.88,2.36-1.61,3.45-2.33,3.48-2.27,6.32-4.12,9.8-9.1Z"/>
  <path class="cls-7" d="M197.73,114.22c-4.59,7.26-8.17,9.59-12.32,12.29-.47.31-.95.62-1.44.94,2.64,2.96,5.06,6.16,7.23,9.56,4.08-4.48,8.51-8.61,13.2-12.3l-6.48-10.87c-.05.13-.11.26-.19.39Z"/>
  <path class="cls-4" d="M159.46,38.4c.44.38.71.95.69,1.58-.04,1.1-.94,1.95-2.08,1.92-2.4-.1-5.42,2.3-6.03,4.85-.75,3.14-1.01,5.51-1.1,10.17,0,0,0,0,0,0l-.02,3.59c.88.66,1.76,1.32,2.63,1.99.05-.84.62-1.58,1.46-1.81,6.04-1.67,11.92-1.31,16.87-.75.34.04,1.15.13,1.82.77.8.77.84,1.78.85,2.15.02.42.02.85.02,1.27,2.9-.22,5.82-.19,8.71.11.02-.61.04-1.22.08-1.82.02-.38.09-1.38.92-2.12.69-.62,1.5-.69,1.84-.72,4.96-.42,10.84-.6,16.83,1.25.93.29,1.52,1.2,1.4,2.16-.04.28-.09.56-.13.83l2.87-1.43c.02-.52.04-1.02.06-1.51.12-2.77.23-5.15.11-8.75,0-.06,0-.11.01-.17-.74-4.56-4.1-8.84-10.27-13.07-4.74-3.25-12.35-5.54-17.39-7.05-2.72-.81-5.86-1.65-8.77-1.25-2.33.32-5.03,1.74-5.78,4.18-.33,1.06-1.45,1.64-2.5,1.32-.3-.09-.56-.26-.78-.46-.94.68-1.66,1.69-2.32,2.76ZM189.17,54.15c2.61-.76,5.45-.43,7.81.91.78.44,1.06,1.44.62,2.22-.3.53-.85.83-1.42.83-.27,0-.55-.07-.8-.21-1.58-.89-3.56-1.12-5.3-.62-.87.25-1.77-.25-2.02-1.11-.25-.86.25-1.77,1.11-2.02ZM161.71,54.68c2.44-1.19,5.3-1.34,7.85-.42.85.3,1.29,1.24.98,2.08-.3.85-1.23,1.29-2.08.98-1.7-.61-3.7-.51-5.33.29-.23.11-.47.16-.71.16-.6,0-1.18-.34-1.47-.92-.39-.81-.06-1.78.75-2.18Z"/>
  <path class="cls-1" d="M206.12,27.09c-5.41-5.58-11.15-9.81-17.07-12.58-2.17-1.01-3.94-1.62-5.59-1.91-2.1-.37-4.42-.32-7.54.16-4.62.71-8.42,1.94-11.58,3.76-3.64,2.09-6.47,5.06-7.95,8.37-.45,1.01-1.64,1.46-2.64,1-.51-.23-.37-2.81-.55-3.3-.83.72-4.81,3.78-5.4,4.74.08.09,3.08.3,3.15.41.55.96.23,2.18-.73,2.73-4.35,2.52-6.97,8.08-8.01,17.01-.57,4.88.01,9,1.16,13.4,1.06-.67,2.31-1.04,3.55-.97v-3.06s.02-.01.02-.02c0,0,0,0,0,0,.1-4.92.39-7.6,1.21-11.02,1.05-4.39,5.75-8.1,10.08-7.91.48.02.83,3.27,1.17,3.56,2.43-.57,4.77-3.67,5.29-5.99-.54-.51-3.68-1.12-3.45-1.87,1.12-3.62,4.68-6.35,9.05-6.96,3.72-.52,7.35.44,10.48,1.38,5.28,1.58,13.25,3.98,18.51,7.58,7.32,5.02,11.25,10.32,12.03,16.2.03.22.01.43-.03.64.1,3.31.01,5.63-.1,8.18.61-.01,1.22.08,1.81.26.13-.35.25-.7.37-1.05,1.51-4.15,2.94-8.07,3.01-12.15.12-6.53-3.33-13.46-10.25-20.59Z"/>
  <path class="cls-6" d="M243.73,248.27c5.23-.92,10.46-2.23,15.52-3.89,6.97-2.27,11.35-9.43,10.2-16.63-3.83-23.89-11.69-54.32-19.57-75.72-1.9-5.17-4.06-11.04-8.18-14.98-4.8-4.59-13.26-5.99-21.44-7.34-4.5-.74-8.77-1.45-12.34-2.68-5.59,4.28-10.81,9.2-15.51,14.63-.38.44-.93.69-1.51.69-.06,0-.12,0-.18,0-.64-.06-1.22-.42-1.54-.98-2.03-3.46-4.34-6.72-6.89-9.74-.82,5.16-1.79,10.31-2.92,15.36-.21.93-1.03,1.56-1.95,1.56-.14,0-.29-.02-.44-.05-1.08-.24-1.76-1.31-1.52-2.39.01-.05.02-.09.03-.14-.04-.14-.07-.28-.07-.43-.26-4.74-.64-9.48-1.12-14.15-2.62,3.08-4.99,6.42-7.07,9.96-.33.55-.9.92-1.54.98-.06,0-.12,0-.18,0-.58,0-1.13-.25-1.51-.69-4.68-5.41-9.88-10.31-15.45-14.58-2.96,1.16-6.37,2.18-9.93,3.24-8.74,2.61-18.64,5.57-25.17,11.51-.59.54-1.25,1.18-1.69,1.9-.38.63-1.98,3.88-2.22,4.56-1.96,5.48-3.7,11.92-5.38,18.14-1.7,6.3-3.46,12.81-5.47,18.44-.29.82-1.06,1.33-1.88,1.33-.22,0-.45-.04-.67-.12-.16-.06-.31-.14-.45-.24-.19.49-.35.98-.47,1.47,12.97.32,25.58.54,36.09.54.96,0,1.79.69,1.97,1.63,1.39,7.4,2.74,14.3,4.04,20.98,1.96,10.02,3.85,19.71,5.65,29.95,1.5-5.24,3.94-10.29,7.13-14.68.05-.07.1-.13.16-.19.14-.15.26-.29.38-.43.81-.93,1.81-2.09,4.46-2.61,1.95-.38,5.11-.24,9.96.46,8.88,1.27,16.51,2.5,24.84,4.2l.36-1.78c.18-.91.97-1.57,1.89-1.6l11.51-.38c1.1-.04,2.14-.07,3.13-.22.74-.11,1.48-.3,2.27-.49.43-.11.86-.21,1.29-.31,2.27-.5,4.54-.72,6.74-.93,5.95-.58,8.29-.82,10.63-1.06.14-.01.27-.03.41-.04-.05-.14-.09-.29-.1-.45l-5.43-60.25c-.1-1.1.71-2.07,1.81-2.17,1.12-.09,2.07.71,2.17,1.81l5.43,60.25c.01.14,0,.28,0,.42,1.58-.16,3.57-.35,6.36-.63,1.11-.12,2.08.7,2.18,1.8.11,1.1-.7,2.08-1.8,2.18-5.95.58-8.29.82-10.63,1.06-2.34.24-4.69.48-10.65,1.06-2.08.2-4.24.41-6.27.86-.4.09-.8.19-1.2.29-.84.21-1.71.42-2.62.56-1.23.19-2.44.23-3.6.27l-3.47.11c3.02,1.19,5.67,3.67,7.24,6.9,1.85,3.8,1.79,8.85,1.46,13.74-.07,1.06-.95,1.86-1.99,1.86-.05,0-.09,0-.14,0-.51-.04-.97-.27-1.3-.61-1.88-.01-3.76.15-5.6.5,0,0-.01,0-.02,0,.9,1.47,2.87,2.38,4.53,1.93.26-.07.52-.17.78-.26.52-.19,1.11-.4,1.78-.51,1.22-.19,2.36,0,3.35.19l.23.04c9.1,1.62,18.51.13,27.62-1.32,1.09-.17,2.12.57,2.29,1.66.03.16.03.32.01.48.61-.26,1.21-.54,1.82-.83-.13-.21-.22-.44-.27-.7-.19-1.09.53-2.12,1.62-2.32ZM128.48,182.05c-.02,1.09-.91,1.97-2,1.97h-.03c-1.1-.02-1.98-.93-1.97-2.03l.43-25.49c.02-1.1.92-1.97,2.03-1.97,1.1.02,1.98.93,1.97,2.03l-.43,25.49ZM221.69,247.14c-.06,1.07-.94,1.89-2,1.89-.04,0-.07,0-.11,0-1.1-.06-1.95-1-1.89-2.1.29-5.56-1.31-11.12-4.52-15.66-.64-.9-.42-2.15.48-2.79.9-.64,2.15-.42,2.79.48,3.72,5.27,5.59,11.73,5.25,18.18Z"/>
  <path class="cls-4" d="M178.05,107.74c.17-.04.35-.06.53-.05,2.9.17,9.75-2.91,14.94-6.74.03-.03.07-.05.1-.08,1.53-1.13,2.91-2.33,4-3.52,3.09-3.4,7.02-11.5,8.56-20.4.19-1.09,1.22-1.82,2.31-1.63,1.09.19,1.82,1.22,1.63,2.31-.06.37-.14.73-.21,1.1.99-.37,1.93-1.16,2.6-2.22.95-1.5,1.45-3.51,1.54-6.14.07-2.16-.21-3.64-.9-4.66-.4-.59-1.07-.99-1.65-1.07-.06.03-.11.08-.17.1l-.32.16c0,.33-.02.67-.03,1.02-.03,1.09-.92,1.95-2,1.95-.02,0-.03,0-.05,0-.76-.02-1.4-.46-1.72-1.08l-4.19,2.09c-.16.51-.33,1.01-.52,1.51-.36.93-.8,1.91-1.63,2.68-.85.8-1.88,1.17-2.68,1.4-1.75.51-3.53.68-5.2.68s-3.3-.18-4.69-.38c-.9-.13-2.79-.4-3.91-1.94-.67-.92-.82-1.94-.91-2.81-.06-.59-.1-1.17-.14-1.76-2.96-.33-5.95-.36-8.91-.11-.06.77-.13,1.53-.23,2.3-.11.88-.29,1.89-.99,2.79-1.17,1.51-3.06,1.72-3.97,1.83-1.19.14-2.53.25-3.96.25-1.89,0-3.93-.21-5.92-.85-.79-.26-1.81-.66-2.64-1.48-.81-.8-1.22-1.79-1.55-2.73-.23-.66-.43-1.34-.62-2.02-.16-.07-.32-.14-.47-.26-1.05-.83-2.12-1.67-3.2-2.49v.51c0,1.1-.9,1.99-2,1.99h0c-1.1,0-2-.91-1.99-2.01v-2.03c-.62-.18-1.61.25-2.15,1-.71,1-1.03,2.47-1,4.64.03,2.63.49,4.64,1.4,6.17.65,1.08,1.57,1.88,2.55,2.28-.06-.37-.13-.73-.19-1.11-.16-1.09.59-2.11,1.68-2.27,1.08-.16,2.11.59,2.27,1.68,1.34,8.94,5.09,17.12,8.11,20.59,4.57,5.26,12.72,10.74,18.45,10.8.01,0,.02,0,.03,0ZM176.29,82.27c.32-.84,1.26-1.26,2.11-.93.25.1.54.1.79.02.86-.27,1.77.2,2.05,1.05.28.86-.19,1.77-1.05,2.05-.44.14-.9.21-1.36.21-.54,0-1.09-.1-1.6-.3-.84-.32-1.26-1.27-.93-2.11ZM171.78,91.54c.61-.92,1.85-1.17,2.77-.56,2.38,1.58,5.76,1.77,8.43.47,0,0,.01,0,.02,0,.55-.76,1.58-1.05,2.47-.64,1,.47,1.43,1.66.97,2.66-.46.98-1.36,1.42-1.7,1.59-1.74.85-3.67,1.27-5.57,1.27-2.42,0-4.82-.67-6.82-2-.92-.61-1.17-1.85-.56-2.77Z"/>
  <g>
    <path class="cls-1" d="M162.42,57.77c.24,0,.48-.05.71-.16,1.63-.79,3.63-.9,5.33-.29.85.31,1.78-.14,2.08-.98.3-.85-.14-1.78-.98-2.08-2.55-.92-5.42-.76-7.85.42-.81.39-1.15,1.37-.75,2.18.28.58.86.92,1.47.92Z"/>
    <path class="cls-1" d="M190.08,57.28c1.74-.51,3.72-.28,5.3.62.25.14.53.21.8.21.57,0,1.12-.3,1.42-.83.44-.78.17-1.78-.62-2.22-2.36-1.33-5.21-1.67-7.81-.91-.86.25-1.36,1.15-1.11,2.02.25.86,1.15,1.36,2.02,1.11Z"/>
    <path class="cls-1" d="M177.22,84.37c.51.2,1.06.3,1.6.3.46,0,.92-.07,1.36-.21.86-.28,1.33-1.19,1.05-2.05-.28-.86-1.19-1.33-2.05-1.05-.25.08-.54.07-.79-.02-.84-.32-1.78.09-2.11.93-.32.84.09,1.78.93,2.11Z"/>
    <path class="cls-1" d="M172.35,94.32c2,1.32,4.4,2,6.82,2,1.91,0,3.83-.42,5.57-1.27.34-.17,1.25-.61,1.7-1.59.46-1,.03-2.19-.97-2.66-.89-.41-1.91-.12-2.46.64,0,0-.01,0-.02,0-2.67,1.3-6.05,1.11-8.43-.47-.92-.61-2.16-.36-2.77.56-.61.92-.36,2.16.56,2.77Z"/>
    <path class="cls-1" d="M273.4,227.12c-3.87-24.12-11.81-54.85-19.76-76.47-2.05-5.58-4.38-11.9-9.17-16.49-5.69-5.45-15.18-7.01-23.55-8.39-4.94-.82-9.61-1.59-13.03-3.02l-7.49-12.55c-.55-.91-1.75-2.91-3.79-3.34,0-1.11.03-2.25.11-3.35,1.5-1.16,2.83-2.33,3.85-3.46,2.76-3.04,6.22-9.35,8.35-17.09,2.67-.1,5.33-1.71,6.97-4.31,1.33-2.12,2.04-4.78,2.15-8.13.07-1.92-.03-4.73-1.59-7.04-.03-.05-.07-.09-.1-.14.25-.71.5-1.43.76-2.14,1.56-4.27,3.17-8.69,3.25-13.44.14-7.63-3.69-15.52-11.38-23.45-5.75-5.93-11.89-10.44-18.25-13.42-2.5-1.17-4.59-1.87-6.59-2.23-2.55-.45-5.27-.4-8.84.14-5.12.79-9.36,2.18-12.97,4.25-4.37,2.51-7.78,6.13-9.61,10.2-.45,1.01,0,2.19,1,2.64,1,.45,2.19,0,2.64-1,1.48-3.3,4.31-6.27,7.95-8.37,3.17-1.82,6.96-3.05,11.59-3.76,3.11-.48,5.44-.53,7.53-.16,1.64.29,3.42.9,5.59,1.91,5.92,2.77,11.66,7,17.07,12.58,6.92,7.14,10.37,14.06,10.25,20.59-.08,4.08-1.5,8-3.01,12.14-.13.35-.25.7-.38,1.06-.58-.18-1.19-.27-1.81-.26.11-2.55.2-4.87.1-8.18.04-.21.06-.42.03-.64-.78-5.88-4.71-11.18-12.03-16.2-5.25-3.6-13.23-6-18.51-7.58-3.12-.94-6.76-1.89-10.48-1.38-4.38.61-7.93,3.34-9.05,6.96-.33,1.05.26,2.18,1.32,2.5,1.05.32,2.17-.26,2.5-1.32.76-2.44,3.45-3.86,5.78-4.18,2.91-.41,6.06.43,8.78,1.25,5.04,1.51,12.66,3.8,17.39,7.05,6.17,4.23,9.53,8.51,10.27,13.07,0,.06-.01.11-.01.16.12,3.6.02,5.98-.11,8.75-.02.49-.04.99-.07,1.51l-2.88,1.43c.04-.28.1-.56.13-.84.12-.96-.47-1.87-1.4-2.16-5.99-1.85-11.87-1.67-16.83-1.25-.35.03-1.16.1-1.85.72-.82.74-.89,1.75-.91,2.12-.04.61-.07,1.21-.08,1.82-2.89-.3-5.81-.33-8.71-.11,0-.43,0-.85-.02-1.28-.01-.38-.05-1.38-.85-2.15-.67-.64-1.48-.73-1.82-.77-4.95-.57-10.82-.92-16.87.75-.84.23-1.41.97-1.46,1.81-.87-.67-1.75-1.33-2.63-1.99l.02-3.6s0,0,0,0c.09-4.66.35-7.03,1.1-10.17.61-2.54,3.62-4.95,6.03-4.85,1.15.03,2.03-.82,2.08-1.92.04-1.1-.81-2.03-1.92-2.08-4.3-.17-9.03,3.52-10.08,7.91-.82,3.41-1.11,6.09-1.21,11.02,0,0,0,0,0,.02,0,0,0,0,0,.01v3.06c-1.26-.08-2.51.3-3.57.96-1.14-4.39-1.72-8.51-1.16-13.39,1.04-8.93,3.66-14.5,8.01-17.01.96-.55,1.28-1.78.73-2.73-.55-.96-1.78-1.28-2.73-.73-5.52,3.19-8.78,9.74-9.98,20.01-.78,6.68.44,12.14,1.86,17.05.07.24.19.45.33.64-.62,1.75-.71,3.56-.69,4.93.04,3.35.69,6.03,1.97,8.18,1.58,2.64,4.2,4.3,6.87,4.46,1.95,7.78,5.28,14.17,7.97,17.27,1.38,1.59,3.03,3.18,4.84,4.67-.01.13-.01.26,0,.39.08.81.11,1.6.12,2.38-.27-.14-.57-.23-.9-.23h-.02c-2.53,0-3.97,2.41-4.58,3.44l-7.5,12.58c-3.07,1.33-6.95,2.5-11.03,3.72-9.15,2.73-19.52,5.83-26.72,12.38-.81.73-1.73,1.64-2.42,2.79-.48.79-2.2,4.27-2.57,5.28-2.02,5.63-3.77,12.15-5.47,18.45-1.68,6.22-3.41,12.66-5.38,18.14-.37,1.04.17,2.18,1.21,2.56.22.08.45.12.67.12.82,0,1.59-.51,1.88-1.33,2.02-5.63,3.77-12.15,5.47-18.44,1.68-6.22,3.41-12.66,5.38-18.14.24-.68,1.84-3.93,2.22-4.56.43-.71,1.09-1.36,1.68-1.89,6.53-5.94,16.44-8.9,25.17-11.51,3.56-1.06,6.97-2.09,9.93-3.24,5.57,4.27,10.77,9.17,15.45,14.58.38.44.93.69,1.51.69.06,0,.12,0,.18,0,.64-.06,1.22-.42,1.54-.98,2.08-3.54,4.45-6.88,7.07-9.96.48,4.67.86,9.41,1.12,14.15,0,.15.04.29.07.43-.01.05-.02.09-.03.14-.24,1.08.44,2.15,1.52,2.39.15.03.29.05.44.05.92,0,1.74-.63,1.95-1.56,1.13-5.06,2.1-10.21,2.92-15.36,2.54,3.02,4.85,6.28,6.89,9.74.33.55.9.92,1.54.98.06,0,.12,0,.18,0,.58,0,1.13-.25,1.51-.69,4.7-5.43,9.92-10.34,15.51-14.63,3.57,1.23,7.85,1.94,12.34,2.68,8.18,1.35,16.64,2.74,21.44,7.34,4.12,3.95,6.28,9.81,8.18,14.98,7.87,21.4,15.73,51.83,19.57,75.72,1.16,7.21-3.23,14.36-10.2,16.63-5.07,1.65-10.29,2.96-15.52,3.89-1.09.19-1.81,1.23-1.62,2.32.17.97,1.02,1.65,1.97,1.65.12,0,.23,0,.35-.03,5.42-.96,10.83-2.31,16.07-4.02,8.82-2.88,14.37-11.94,12.9-21.07ZM187.31,63.5c1.2-.09,2.45-.16,3.74-.18-.04.02-.08.03-.12.05-.91.55-1.51,1.5-1.56,2.49h0c-.03.53-.07,1.32.22,2.15.47,1.34,1.66,2.23,2.97,2.23h.03c1.6-.01,2.93-1.32,3.16-3.11.2-1.58-.46-3.04-1.65-3.77,1.97.1,3.99.34,6.02.83-.31,1.63-.76,3.23-1.35,4.78-.18.48-.38.96-.62,1.18-.24.22-.72.38-1.06.48-2.8.81-5.85.53-8.21.19-.98-.14-1.2-.29-1.25-.34-.09-.14-.14-.67-.16-.85-.2-2.01-.25-4.05-.15-6.14ZM163.56,63.49c-.6.55-.99,1.3-1.03,2.07h0c-.03.53-.07,1.32.22,2.15.47,1.34,1.66,2.23,2.98,2.23h.02c1.6-.02,2.92-1.32,3.15-3.11.16-1.26-.22-2.45-1-3.25.91.06,1.8.14,2.66.23.04,2.05-.08,4.1-.34,6.13-.06.47-.12.76-.18.84-.05.06-.29.2-1.27.31-2.36.27-5.43.46-8.2-.43-.34-.11-.82-.28-1.05-.51-.23-.23-.42-.71-.59-1.2-.54-1.57-.95-3.18-1.2-4.82,1.96-.41,3.9-.59,5.81-.64ZM151.46,76.35c-.16-1.09-1.19-1.84-2.27-1.68-1.09.16-1.84,1.18-1.68,2.27.06.37.12.74.19,1.1-.98-.4-1.9-1.2-2.55-2.28-.91-1.52-1.37-3.54-1.4-6.17-.03-2.16.29-3.63,1-4.64.54-.76,1.52-1.19,2.16-1v2.03c-.01,1.1.88,2,1.98,2.01h0c1.1,0,2-.89,2-1.99v-.51c1.08.82,2.15,1.66,3.2,2.49.14.11.31.19.47.26.19.68.39,1.35.62,2.02.33.94.74,1.93,1.55,2.73.83.83,1.85,1.23,2.64,1.48,2,.64,4.03.85,5.92.85,1.42,0,2.77-.12,3.96-.25.91-.1,2.8-.32,3.97-1.83.7-.9.88-1.91.99-2.79.1-.76.17-1.53.23-2.3,2.96-.26,5.96-.23,8.91.11.04.59.08,1.18.14,1.76.09.88.24,1.9.91,2.81,1.13,1.54,3.01,1.81,3.91,1.94,1.38.2,2.99.38,4.69.38s3.45-.18,5.2-.68c.8-.23,1.83-.6,2.68-1.4.83-.78,1.27-1.75,1.63-2.68.19-.5.36-1,.52-1.51l4.19-2.09c.33.63.97,1.07,1.72,1.08.02,0,.03,0,.05,0,1.08,0,1.97-.87,2-1.95,0-.36.02-.69.03-1.02l.32-.16c.06-.03.11-.07.17-.11.58.08,1.25.48,1.65,1.07.69,1.02.98,2.5.9,4.66-.09,2.63-.59,4.63-1.54,6.14-.67,1.06-1.61,1.84-2.6,2.22.07-.37.15-.73.21-1.1.19-1.09-.54-2.12-1.63-2.31-1.08-.19-2.12.54-2.31,1.63-1.54,8.9-5.47,17-8.56,20.4-1.08,1.19-2.46,2.38-3.98,3.51-.04.03-.08.06-.12.09-5.19,3.83-12.04,6.91-14.93,6.73-.18,0-.36.01-.53.05-.01,0-.02,0-.03,0-5.73-.06-13.88-5.54-18.45-10.8-3.01-3.47-6.76-11.65-8.11-20.59ZM160.62,110.76c.27,0,.52-.06.75-.16-.02.27-.05.53-.07.79-.35-.18-.73-.26-1.12-.23.24-.29.38-.38.44-.4ZM165.22,137.01c-4.04-4.44-8.42-8.52-13.05-12.18.06-.17.09-.35.1-.53l6.24-10.46c.05.13.11.26.19.39,4.59,7.26,8.17,9.59,12.32,12.29.47.31.95.62,1.44.94-2.64,2.96-5.06,6.16-7.23,9.56ZM179.77,125.48c-.47.34-.77.86-.83,1.44,0,.03,0,.06,0,.09-.2,1.4-.41,2.8-.64,4.2-.13-1.29-.27-2.58-.42-3.86-.06-.55-.35-1.02-.75-1.34-.13-.2-.3-.39-.5-.53-1.23-.88-2.36-1.61-3.45-2.33-3.03-1.97-5.57-3.63-8.49-7.32.07-.17.13-.35.16-.54l.09-.71c.24-1.86.58-4.43.57-7.35,4.09,2.62,8.55,4.46,12.46,4.5h.02c.15,0,.29-.02.43-.05.12,0,.23.01.35.01,3.53,0,9-2.34,13.84-5.35-.02,2.88.17,5.69.41,7.71-3.49,4.99-6.32,6.84-9.81,9.1-1.09.71-2.22,1.44-3.45,2.32ZM191.2,137.01c-2.16-3.4-4.58-6.6-7.23-9.56.49-.32.97-.63,1.44-.94,4.15-2.7,7.73-5.03,12.32-12.29.08-.13.14-.26.19-.39l6.48,10.87c-4.69,3.69-9.12,7.82-13.2,12.3Z"/>
    <path class="cls-1" d="M219.59,249.03s.07,0,.11,0c1.06,0,1.94-.83,2-1.89.34-6.45-1.52-12.91-5.25-18.18-.64-.9-1.88-1.12-2.79-.48-.9.64-1.12,1.88-.48,2.79,3.21,4.54,4.81,10.11,4.52,15.66-.06,1.1.79,2.04,1.89,2.1Z"/>
    <path class="cls-1" d="M238.26,249.97c-9.1,1.44-18.51,2.94-27.62,1.32l-.23-.04c-1-.18-2.12-.38-3.35-.19-.67.11-1.26.32-1.78.51-.26.09-.51.19-.78.26-1.66.45-3.62-.45-4.53-1.93,0,0,.01,0,.02,0,1.84-.35,3.72-.52,5.6-.5.33.34.78.58,1.3.61.05,0,.09,0,.14,0,1.04,0,1.92-.81,1.99-1.86.34-4.89.39-9.94-1.46-13.74-1.57-3.23-4.22-5.7-7.24-6.9l3.47-.11c1.17-.04,2.37-.08,3.6-.27.91-.14,1.78-.35,2.62-.56.4-.1.8-.2,1.2-.29,2.04-.45,4.19-.66,6.27-.86,5.96-.58,8.3-.82,10.64-1.06,2.34-.24,4.68-.48,10.63-1.06,1.1-.11,1.9-1.08,1.8-2.18-.11-1.1-1.07-1.91-2.18-1.8-2.79.27-4.78.47-6.36.63.02-.14.02-.27,0-.42l-5.43-60.25c-.1-1.1-1.05-1.9-2.17-1.81-1.1.1-1.91,1.07-1.81,2.17l5.43,60.25c.01.16.05.31.1.45-.14.01-.28.03-.41.04-2.34.24-4.68.48-10.62,1.06-2.2.21-4.47.43-6.74.93-.43.1-.86.2-1.29.31-.79.19-1.54.38-2.27.49-.99.15-2.03.19-3.13.22l-11.51.38c-.93.03-1.71.69-1.89,1.6l-.36,1.78c-8.33-1.7-15.96-2.93-24.84-4.2-4.85-.7-8.02-.84-9.96-.46-2.65.52-3.65,1.68-4.46,2.61-.12.14-.25.29-.38.43-.06.06-.11.12-.16.19-3.19,4.4-5.63,9.44-7.13,14.68-1.8-10.25-3.69-19.94-5.65-29.96-1.3-6.67-2.65-13.57-4.04-20.96-.18-.95-1-1.63-1.97-1.63-41.4,0-115.31-3.37-116.05-3.41-.52-.02-1.04.16-1.43.51-.03.03-3.49,3.12-6.56,5.5-.61.47-.89,1.25-.73,2,3.26,15.16,5.5,26.98,7.66,38.41,2.11,11.15,4.1,21.69,6.94,34.87.2.91.99,1.56,1.92,1.58,19.79.38,41.3,1.28,62.11,2.15,20.83.87,42.36,1.78,62.2,2.16h.04c.08,0,.16-.01.24-.02.09.01.19.02.28.02.15,0,.31-.02.46-.05,10.79-2.57,42.53-11.34,42.85-11.43.81-.23,1.4-.94,1.46-1.78l.4-5.5c.04-.54-.14-1.06-.49-1.47-.28-.31-.64-.53-1.04-.62,1.43.12,2.89.09,4.36-.07,1.39,3.72,5.75,6.04,9.62,4.99.37-.1.72-.23,1.08-.35.39-.14.76-.27,1.06-.32.55-.09,1.26.04,2.01.17l.24.04c3.02.54,6.09.75,9.14.75,6.82,0,13.59-1.08,19.8-2.06,1.09-.17,1.83-1.2,1.66-2.29s-1.2-1.83-2.29-1.66ZM193.86,227.73l2.09-.07c-.15.21-.26.46-.32.73-.61-.14-1.22-.27-1.82-.4l.05-.26ZM145.24,252.96c.24.07.58.14.99.14.73,0,1.67-.23,2.62-1.09.11,1.12.3,2.23.6,3.29.6,2.17,2.03,3.5,3.72,3.5.13,0,.27,0,.4-.02,1.3-.16,2.15-1.09,2.43-1.4.1-.11.18-.23.28-.34.18.52.46,1.05.91,1.51.74.75,1.75,1.15,2.86,1.15.09,0,.17,0,.26,0l-13.99,3.47c0-.12.01-.24.02-.36v-.29c.08-.25.1-.53.06-.8-.44-3.02-.89-5.94-1.35-8.82.06.02.13.05.19.07ZM165.1,256.13c.26.62.63,1.1,1.02,1.45.21.19.43.36.67.5l-4.66,1.16c.82-.36,1.57-.92,2.11-1.63.37-.48.64-.98.86-1.48ZM24.73,263.36c-2.65-12.42-4.56-22.53-6.59-33.22-2.11-11.15-4.29-22.66-7.42-37.29,2.11-1.69,4.17-3.48,5.17-4.36,8.09.36,74.39,3.29,113.76,3.37,1.28,6.79,2.53,13.18,3.74,19.36,3.22,16.5,6.27,32.09,9.01,50.74,0,.06-.03.12-.03.19l-.02.46c-.09,1.82-.16,3.21-.37,4.9-18.25-.43-37.73-1.24-56.63-2.03-20.27-.85-41.22-1.73-60.61-2.12ZM188.82,256.67c-6.17,1.7-31.65,8.7-41.21,10.99-.06,0-.11-.02-.17-.02-.48,0-.97-.02-1.45-.03.04-.35.08-.7.11-1.03l35.84-8.89c.87-.22,1.4-1.1,1.19-1.97-.22-.87-1.1-1.41-1.97-1.19l-7.32,1.82c.3-.32.58-.63.83-.92l1.33-1.55,12.99.74-.15,2.07ZM179.25,250.04l.72-.84c1.17-1.37,1.74-1.62,2.02-1.56.19.03.54.24.86.42l.17.1c2.38,1.37,5,2.21,7.73,2.54l-11.5-.65ZM185.01,244.69l-.16-.09c-.58-.34-1.3-.76-2.22-.91-2.83-.46-4.85,1.9-5.71,2.91l-5.31,6.21c-.6.7-1.21,1.42-1.87,1.74-.43.21-.84.16-.92.09-.11-.1-.28-.78.42-2.46.75-1.83,1.61-3.72,2.66-5.44.22-.22.39-.48.49-.77,1.4-2.09,3.11-3.86,5.33-4.83,1.01-.44,1.47-1.62,1.03-2.64s-1.62-1.47-2.64-1.03c-3.04,1.33-5.28,3.62-7.04,6.26-2.95,1.4-5.71,5.64-6.57,7.77-.2.5-.37,1.01-.53,1.53-.27.86-.5,1.6-.91,2.13-.27.35-.81.55-1.04.53-.03-.11-.08-.4,0-1.11.82-6.97,4.02-13.67,9-18.87.76-.8.74-2.06-.06-2.83-.8-.76-2.06-.74-2.83.06-2.31,2.41-4.26,5.11-5.84,8-2.66,2.07-3.65,5.11-4.6,8.05-.65,2.01-1.27,3.92-2.38,5.34,0-.03-.02-.06-.03-.1-1.16-4.21-.26-8.27.7-10.94,1.15-3.2,3.1-6.47,5.97-9.99.7-.86.57-2.12-.29-2.81-.86-.7-2.12-.57-2.81.29-2.98,3.66-5.06,7.12-6.39,10.55l-3.54,6.65c-.23.44-.45.73-.61.91,0-.02-.01-.03-.02-.05-.75-1.65-.4-3.77.05-5.63,1.29-5.36,3.67-10.55,6.9-15.03.14-.15.27-.3.4-.45.63-.72.91-1.05,2.21-1.31,1-.2,3.3-.27,8.62.49,13.15,1.89,23.51,3.65,37.55,7.07.19.05.39.05.58.04.52.64.98,1.35,1.36,2.12,1.16,2.4,1.33,5.75,1.19,9.24-2.02.02-4.04.21-6.02.59-.06.01-.12.03-.18.04-4.95,1.46-9.9.98-13.95-1.35Z"/>
    <path class="cls-1" d="M126.48,184.02c1.09,0,1.98-.87,2-1.97l.43-25.49c.02-1.1-.86-2.02-1.97-2.03h-.04c-1.09,0-1.98.87-2,1.97l-.43,25.49c-.02,1.1.86,2.02,1.97,2.03h.04Z"/>
    <path class="cls-1" d="M139.91,260.02l-11.84-60.44c-.17-.88-1.03-1.47-1.91-1.29-.88.17-1.46,1.03-1.29,1.91l11.84,60.44c.15.78.83,1.32,1.6,1.32.1,0,.21,0,.31-.03.88-.17,1.46-1.03,1.29-1.91Z"/>
    <path class="cls-1" d="M120.88,194.97l-103.95-2.99c-.9,0-1.65.68-1.67,1.58-.03.9.68,1.65,1.58,1.67l103.95,2.99s.03,0,.05,0c.88,0,1.6-.7,1.63-1.58.03-.9-.68-1.65-1.58-1.67Z"/>
    <path class="cls-1" d="M69.6,219.39c-2.77.38-5.22,1.86-6.89,4.18-1.65,2.28-2.34,5.11-1.96,7.96.39,2.85,1.82,5.38,4.02,7.14,1.86,1.48,4.08,2.26,6.38,2.26.46,0,.92-.03,1.38-.09,2.77-.38,5.22-1.86,6.89-4.18,1.65-2.29,2.35-5.11,1.96-7.96-.81-5.91-6.09-10.09-11.79-9.31ZM76.19,234.31c-1.03,1.42-2.51,2.33-4.19,2.56-1.68.23-3.36-.24-4.73-1.33-1.4-1.11-2.3-2.73-2.55-4.55-.25-1.82.19-3.62,1.24-5.07,1.02-1.42,2.51-2.33,4.19-2.56.28-.04.55-.06.82-.06,3.18,0,5.99,2.51,6.46,5.94.25,1.82-.19,3.62-1.24,5.07Z"/>
  </g>
</svg>