<?xml version="1.0" encoding="UTF-8"?>
<svg id="_レイヤー_1" data-name="レイヤー 1" xmlns="http://www.w3.org/2000/svg" version="1.1" xmlns:xlink="http://www.w3.org/1999/xlink" viewBox="0 0 280 280">
  <defs>
    <style>
      .cls-1 {
        fill: #000;
      }

      .cls-1, .cls-2, .cls-3, .cls-4, .cls-5, .cls-6, .cls-7, .cls-8 {
        stroke-width: 0px;
      }

      .cls-2 {
        fill: #036eb8;
      }

      .cls-3 {
        fill: #faee00;
      }

      .cls-4 {
        fill: none;
      }

      .cls-5 {
        fill: #dcdddd;
      }

      .cls-6 {
        fill: #ffecd6;
      }

      .cls-7 {
        fill: #fff;
      }

      .cls-8 {
        fill: url(#_新規パターンスウォッチ_1);
      }
    </style>
    <pattern id="_新規パターンスウォッチ_1" data-name="新規パターンスウォッチ 1" x="0" y="0" width="4.74" height="4.74" patternTransform="translate(-303.28)" patternUnits="userSpaceOnUse" viewBox="0 0 4.74 4.74">
      <g>
        <rect class="cls-4" y="0" width="4.74" height="4.74"/>
        <rect class="cls-7" x="0" y="0" width="4.74" height="4.74"/>
        <circle class="cls-3" cx="2.37" cy="2.37" r="1.63"/>
      </g>
    </pattern>
  </defs>
  <path class="cls-5" d="M171.23,274.05c-.13-.29-.21-.61-.2-.94.29-9.65.48-19.92-.55-30.01-.03-.27,0-.52.07-.77-.3-.07-.6-.15-.9-.22-2.48-.6-5.05-1.22-7.54-2.13-.56-.21-1.74-.64-2.48-1.73-.9-1.32-.67-2.86-.56-3.6.1-.68.22-1.34.34-2.01-4.7-.13-9.1-2.44-13.94-7.28l-.56-.56c-1.26-1.28-2.28-2.27-3.08-2.97l-.17.38c-.34.74-1.06,1.22-1.87,1.25l-9.96.35c.06,8.61.2,16.44.33,24.01.14,7.96.29,16.2.34,25.35,0,.32-.07.62-.2.89h40.92Z"/>
  <path class="cls-5" d="M164.89,147.64c-3.65,1.49-7.78,3.18-12.22,3.18h-.02c-4.43,0-9.09-1.69-13.86-5.02-2.32-1.62-4.46-3.46-6.53-5.24-.36-.31-.72-.62-1.09-.93.52,11.55.75,23.78.75,23.91.01.58-.21,1.12-.59,1.51l2.7,12.47c.89.61,1.68,1.29,2.41,1.93,4.07,3.58,8.25,7.25,13.68,11.69.05.04.11.09.16.14,6.1,6.09,13.67,14.31,16.74,17.67.1-.21.2-.42.3-.63.5-1,1.7-1.45,2.74-1.01l1.99.84c-.7-17.61.96-36.02,3.35-59.78.21-2.05.42-4.14.75-6.22-1.35.64-2.43,1.22-3.53,1.81-1.96,1.05-3.99,2.14-7.74,3.67Z"/>
  <path class="cls-2" d="M175.12,274.05h39.85c-.03-.07-.08-.13-.11-.2-1.58-4.71-2.65-9.6-3.19-14.55-6.07-2.07-11.85-4.88-17.48-7.63-6.25-3.05-12.71-6.19-19.38-8.19.97,10.08.78,20.22.5,29.76,0,.29-.08.57-.19.82Z"/>
  <path class="cls-5" d="M124.86,219.7c-1.07-.03-2.14-.06-3.21-.11-2.82-.13-5.81-.4-8.61-1.48-2.26-.86-2.64-2.35-2.67-3.16-.03-.77.24-1.52.8-2.23,1.94-2.47,5.15-2.9,8-3.1l2.12-.15c-1.61-.25-3.21-.48-4.82-.7l-.25-.03c-2.54-.34-5.17-.69-7.63-1.94-3.02-1.53-4.98-4.25-5.16-7.04-.44-.17-.87-.36-1.26-.58l4.05,21.17,18.64-.65Z"/>
  <path class="cls-2" d="M126.43,274.05c-.12-.27-.19-.56-.19-.87-.05-9.13-.2-17.35-.34-25.3-.13-7.55-.27-15.35-.33-23.94l-18.83.65c1.22,19.17.94,31.97-.06,49.45h19.76Z"/>
  <path class="cls-6" d="M126.37,179.65c-2.37-.08-2.95,0-4.08.17-.72.11-1.62.24-3.16.38-2.22.19-4.47.47-5.84,1.49,1.86.97,3.93,1.54,6.02,1.66,1.52.09,2.48-.04,3.4-.17,2.1-.29,3.59-.36,6.6,1.11,1.81.88,3.25,2.2,4.52,3.37l3.68,3.38s.08.09.12.14c2,.37,3.88.81,5.55,1.33,1.13.35,1.75,1.55,1.4,2.68-.35,1.13-1.55,1.75-2.68,1.4-11.78-3.69-32.64-2.81-37.74-1.15.66.35,2.02.86,4.75,1.36,1.99.37,4.06.31,6.26.26.58-.01,1.16-.03,1.74-.04,7.7-.09,15.35,1.2,22.75,2.44,1.16.2,1.95,1.3,1.75,2.46-.18,1.04-1.08,1.78-2.1,1.78-.12,0-.24,0-.36-.03-7.21-1.21-14.67-2.43-21.99-2.38-.56,0-1.12.02-1.68.04-2.29.06-4.65.11-7.05-.32.5.77,1.3,1.48,2.29,1.98,1.82.92,3.98,1.21,6.27,1.51l.25.03c6.44.86,12.92,2.01,19.27,3.42.29.07.56.19.79.36l.81-.06c1.18-.09,2.2.8,2.29,1.98.09,1.18-.8,2.2-1.98,2.29l-18.74,1.37c-1.29.09-2.67.23-3.71.64,1.8.5,3.77.69,6.08.8,2.06.1,4.18.13,6.23.16,2.72.04,5.53.09,8.32.28,1.63.11,3.36.29,5.06.79,1.62.49,3.61,2.29,6.51,5.25l.53.53c5.19,5.2,8.85,6.16,11.74,6.03,1.16-5.28,2.77-10.31,4.85-15.19-1.28-1.41-10.54-11.59-17.75-18.79-5.45-4.46-9.63-8.13-13.68-11.69-1.07-.94-2.15-1.89-3.31-2.39-1.17-.5-2.61-.62-3.98-.67Z"/>
  <path class="cls-2" d="M111.82,128.37c-1.52,1.2-9.12,11.84-16.41,22.24l30.82-.95c.38,0,.75.1,1.08.27-.13-4.11-.3-8.66-.52-12.96-.31-6.31-.23-12.54,1.78-16.89-4.76,2.19-14.32,6.59-16.74,8.29Z"/>
  <path class="cls-6" d="M58.21,167.38c3.16-1.26,6.18-2.37,9.14-3.47.54-.2,1.11-.41,1.71-.6l1.21-9.31c.01-.1.03-.2.06-.3.36-1.3.9-2.88,1.46-4.56,1.35-4,3.21-9.48,2.75-11.9-.29-1.5-1-3.01-1.69-4.48-1.04-2.2-2.22-4.69-3.98-6.54-.81-.85-.78-2.21.08-3.02.86-.81,2.21-.78,3.02.08.69.73,1.29,1.5,1.83,2.29l5.1-3.76c.14-.11.38-.28.45-.36.01-.06.04-.42.06-.61.13-1.64.26-3.32.07-4.89-5.51,1.67-10.97,3.59-16.27,5.72-1.09.44-2.34-.09-2.78-1.18-.44-1.09.09-2.34,1.18-2.78,5.53-2.23,11.24-4.22,17-5.95,0-.26.04-.53.14-.79.45-1.18.26-2.57-.49-3.62-.01,0-.02.01-.04.02-6.39,2.77-13.04,5.17-19.76,7.14-.2.06-.4.09-.6.09-.92,0-1.78-.6-2.05-1.54-.33-1.13.32-2.32,1.45-2.65,6.23-1.83,12.39-4.04,18.34-6.57-.08-1.09-.26-2.17-.54-3.23-5.54,1.41-10.75,3.63-15.49,6.6-1.26.79-2.91,1.82-4.86,1.82-.3,0-.62-.03-.93-.08-1.16-.2-1.94-1.31-1.74-2.47.2-1.16,1.31-1.94,2.47-1.74.35.06.77-.06,1.22-.26l-.77-11.2c-.39-5.63-.79-11.46-2.78-16.67-.65-1.69-1.51-2.6-1.97-2.56-.4,0-1.02.72-1.18,1.59-.2,1.08.03,2.34.28,3.67l.12.63c.51,2.84.73,5.72.94,8.51l.69,9.18c.26,3.43.53,6.97.02,10.56-.09.62-.2,1.24-.31,1.86-.16.9-.31,1.75-.38,2.58-.21,2.46.29,5.04,1.03,8.39,2.84,9.88,5.77,20.11,8.94,30.95.09.3.11.61.06.92l-2.18,14.5Z"/>
  <path class="cls-2" d="M236.21,243.71c-.98.66-2.31.4-2.97-.58l-7.57-11.21c-1.61-2.39-3.54-4.96-5.92-5.17-1.09-.09-2.35.31-3.67.75-1.51.5-3.22,1.08-5.09.98-1.78-.08-3.33-.74-4.7-1.31l-36.03-15.13c-3.45,7.3-5.73,14.92-6.97,23.23-.04.24-.06.42-.06.55.08.04.19.08.35.14,2.26.83,4.6,1.4,7.07,1.99,1.3.31,2.65.64,3.98,1.01,7.52,2.08,14.59,5.53,21.43,8.87,7.07,3.45,14.39,7.02,22.02,8.93,1.2.3,2.44.68,3.75,1.09,3.03.94,6.15,1.92,8.68,1.79,3.41-.16,9.08-6.53,10.5-10.9.69-2.13.67-4.51.58-7.19-.63-17.73-2.91-35.68-5.05-50.9-.46-3.27-.88-6.58-1.32-10.08-1.59-12.67-3.24-25.77-7.1-36.95-.25-.61-2.36-4.1-2.8-4.68-.36-.45-1.08-.83-1.77-1.2-4.1-2.15-27.97-13.68-33.65-15.99-3.04,2.14-6.42,10.77-7.58,13.73l-.21.54c-.32.81-.58,1.64-.82,2.49,0,.35-.1.68-.26.98-.73,3.02-1.06,6.19-1.37,9.29-2.47,24.49-4.15,43.25-3.25,61.18l31.54,13.24c1.09.46,2.22.93,3.25.98,1.08.05,2.27-.34,3.54-.76.01,0,.03,0,.04-.01l-8.26-37.72c-.71-3.25-1.45-6.61-1.67-10.07-.55-8.55,2.11-16.97,4.46-24.4.36-1.13,1.56-1.75,2.68-1.39,1.12.36,1.75,1.56,1.39,2.68-2.34,7.42-4.77,15.09-4.27,22.84.2,3.13.9,6.33,1.58,9.43l8.25,37.69c.39-.02.78-.02,1.18.01,4.61.41,7.52,4.72,9.08,7.03l7.57,11.21c.66.98.4,2.31-.58,2.97Z"/>
  <path class="cls-6" d="M78.31,127.54s0,0,0,0l-2.4,1.77c.24.48.47.96.69,1.43.58-1.18,1.16-2.22,1.71-3.19Z"/>
  <path class="cls-2" d="M49.36,198.36c-.51,7.3-1.04,14.86-2.1,24.73-.16,1.45-.3,2.82-.14,4.11.14,1.1.51,2.29,1.19,3.73,1.51,3.24,3.75,6.18,6.46,8.51,2.19,1.88,4.17,2.75,5.89,2.59,1.63-.15,3.18-1.21,5.04-2.57,4.24-3.1,8.62-6.31,11.74-10.48.44-.58,1.47-1.84,3.04-3.75,4.77-5.79,14.69-17.85,17.4-23.06.11-.21.25-.38.41-.54l-8.29-43.3c-.99,1.42-1.94,2.79-2.83,4.06-4.38,6.3-8.2,11.79-10.15,14.44.26,8.08.26,14.33-1.47,25.23-.6,3.78-1.28,8.06.54,11.12l.12.19c.33.54.79,1.29.87,2.28.09,1.03-.26,1.9-.49,2.47l-2.75,6.72c-.45,1.09-1.69,1.62-2.79,1.17-1.09-.45-1.61-1.7-1.17-2.79l2.75-6.72c.05-.12.14-.34.18-.47-.06-.11-.17-.3-.25-.43l-.14-.24c-2.6-4.39-1.76-9.7-1.09-13.97,1.87-11.79,1.65-18,1.32-27.38-.08-2.15-.16-4.52-.23-7.17-1.08.14-2.26.55-3.59,1.04-5.49,2.03-11.16,4.12-17.51,7.07-.97,9.21-1.47,16.41-1.96,23.37Z"/>
  <path class="cls-8" d="M79.72,43.07c-.16-.22-.32-.44-.48-.65-1.67-2.22-3.4-4.52-2.99-7.98.18-1.5-.16-3.97-.44-5.96-.18-1.3-.35-2.52-.38-3.46v-.27c-.09-2.37-.21-5.95-4.94-11.45-1.25-1.45-4.64-4.23-6.77-5.09-5.79-2.34-12.24-1.95-17.27,1.03-1.67,1.21-2.94,2.28-4.08,3.47-3.77,4.62-5.16,10.99-3.71,17.06.53,2.23,2.77,5.99,4.02,7.45,4.69,5.45,8.23,6.1,10.57,6.53l.33.06c.92.17,2.1.52,3.36.89,1.93.57,4.33,1.28,5.83,1.32,3.49.11,5.5,2.16,7.45,4.14.19.2.41.4.61.6,2.47-2.39,4.96-4.46,7.58-6.62.43-.35.87-.72,1.3-1.08Z"/>
  <path class="cls-5" d="M101.36,192c3.72-1.97,17.02-2.89,28.91-1.81-.9-.81-1.83-1.58-2.83-2.07-2.07-1-2.72-.92-4.15-.72-1.02.14-2.3.31-4.23.2-3.04-.18-6.04-1.1-8.67-2.65-.36-.21-1.1-.65-1.56-1.5-.69-1.28-.4-2.86.74-4.14,2.3-2.58,5.8-3.08,9.19-3.38,1.41-.12,2.24-.25,2.9-.35,1.38-.21,2.23-.31,4.87-.21.89.03,1.81.09,2.73.24l-4.68-21.63-28.58.88-1.84,2.5,6.69,34.96c.16-.11.32-.22.51-.32Z"/>
  <path class="cls-1" d="M190.52,31.62c-3.25-6.85-8.73-12.56-15.43-16.09-.9-.47-1.34-1.51-1.06-2.48.06-.22.14-.43.22-.64-6.42-3.38-14.15-4.18-21.11-2.13-1.13.33-2.32-.31-2.65-1.44-.07-.23-.08-.45-.08-.68-1.31.09-2.64.22-4.02.42.12.24.19.5.22.77.1,1.18-.77,2.21-1.95,2.31-5.45.46-10.72,2.42-15.14,5.6l1.01-.08c.89-.06,1.72.42,2.1,1.23.38.81.21,1.76-.41,2.4-4.92,5.03-8,9.5-9.7,14.05-.84,2.27-1.2,5.51-1.14,8.83.11-.23.25-.44.44-.62,6.42-6.16,12.43-12.87,17.84-19.93.72-.94,2.06-1.11,2.99-.4.83.64,1.06,1.77.6,2.67.53.19.97.64,1.49,1.13-.13-1.75-.16-3.6-.08-5.56.05-1.18,1.06-2.09,2.22-2.05,1.18.05,2.1,1.04,2.05,2.22-.18,4.43.21,8.18,1.18,11.46.72,2.42,1.76,4.6,3.08,6.42.79-2.18,2.03-4.19,3.64-5.87,1.01-1.05,2.1-1.51,3.22-1.36,1.33.18,2.12,1.15,2.41,1.52.85,1.05,1.49,2.18,2.11,3.27l.3.53c3.87,6.76,9.14,12.82,15.24,17.58.98-.56,2.09-.9,3.23-.98,2.27-.15,4.55.75,6.09,2.43.69.75,1.25,1.67,1.65,2.71,1.04-2.12,1.93-4.09,2.14-5.12,1.51-7.43.55-15.28-2.69-22.13Z"/>
  <path class="cls-6" d="M143.05,25.75c-5.26,6.87-11.08,13.39-17.29,19.44-.25,2.09-.27,3.62-.29,5.23-.02,1.42-.04,2.89-.2,4.85-.15,1.78-.36,3.58-.56,5.33-.66,5.65-1.29,10.99-.04,16.12,1.23,5.05,4.32,9.65,7.18,13.49,2.25,3.01,4.76,5.89,7.94,6.63,1.98.46,4.17.08,6.25-.35,6.51-1.34,12.89-3.37,18.99-6.02,1.08-.47,2.34.02,2.81,1.1.47,1.08-.02,2.34-1.1,2.81-5.98,2.61-12.23,4.62-18.61,6.02.12,1.54.25,2.68.36,3.69.31,2.79.48,4.32-.06,8.96-.13,1.09-1.05,1.89-2.12,1.89-.08,0-.17,0-.25-.02-.43-.05-.82-.23-1.13-.49-3.51,2.75-7.37,4.98-11.54,6.62-.18.07-.37.11-.56.13-1.83,3.13-1.99,8.69-1.88,12.72,1.42,1.12,2.79,2.29,4.12,3.43,2.08,1.79,4.05,3.48,6.2,4.98,4.03,2.82,7.87,4.25,11.41,4.25h.01c3.6,0,7.16-1.46,10.61-2.86,3.54-1.45,5.38-2.43,7.33-3.48,1.77-.95,3.6-1.93,6.68-3.23.25-.84.51-1.67.84-2.49l.21-.54c1.9-4.84,4.06-9.98,6.7-13.3l-.2-.12c-2.77-1.71-4.28-2.64-6.48-4.79-.26.17-.56.29-.89.34-.09.01-.19.02-.28.02-1.06,0-1.97-.78-2.12-1.86-1.54-11.65-1.48-21.97.19-35.37-.36-.02-.71-.05-1.07-.1-1.17-.15-1.99-1.23-1.84-2.4.16-1.17,1.23-1.99,2.4-1.84,3.27.43,6.79-.7,9.2-2.95,2.41-2.25,3.78-5.69,3.57-8.98-.07-1.08-.34-2.57-1.24-3.55-.66-.72-1.7-1.13-2.66-1.06-.98.07-1.93.61-2.49,1.41-.68.97-2.01,1.2-2.98.53-.67-.47-.98-1.26-.89-2.02-6.44-5.07-12.01-11.5-16.11-18.65l-.31-.54c-.43-.77-.85-1.5-1.31-2.16-1.7,1.96-2.8,4.53-3.04,7.14-.07.8-.59,1.49-1.33,1.79-.74.3-1.59.16-2.2-.36-3.19-2.76-5.6-6.65-6.96-11.27-.66-2.24-1.08-4.66-1.27-7.29-.53-.5-.96-.94-1.49-1.13-.06.11-.12.22-.2.33ZM153.61,55.68c.09-.83.23-1.65.41-2.45.35-1.53,1.86-2.5,3.41-2.15,1.53.35,2.5,1.87,2.15,3.41-.13.59-.24,1.2-.3,1.82-.16,1.46-1.39,2.54-2.83,2.54-.1,0-.21,0-.32-.02-1.56-.17-2.69-1.58-2.52-3.14ZM136.99,66.75l1.47.15c.98.1,1.69.97,1.59,1.95-.09.92-.87,1.6-1.77,1.6-.06,0-.12,0-.18,0l-1.47-.15c-.98-.1-1.69-.97-1.59-1.95.1-.98.98-1.69,1.95-1.59ZM131.76,56.99c-.16,0-.31-.01-.47-.04-1.55-.26-2.6-1.73-2.34-3.28l.36-2.14c.26-1.55,1.73-2.6,3.28-2.34,1.55.26,2.6,1.73,2.34,3.28l-.36,2.14c-.23,1.39-1.44,2.38-2.81,2.38ZM150.71,75.4c.22.61.16,1.17.14,1.43-.44,4.5-2.63,8.78-6.03,11.75-.25.22-.78.68-1.57.86-.22.05-.43.07-.63.07-.78,0-1.39-.3-1.62-.41-2.8-1.35-4.33-4.07-5.24-5.99-.43-.91-.81-1.83-1.21-2.8-.52-1.24-1.05-2.52-1.75-3.95-.34-.7-.28-1.53.16-2.17.44-.64,1.2-.98,1.98-.9,4.03.43,8.12.48,12.16.16,2.56-.2,3.4,1.29,3.63,1.94Z"/>
  <path class="cls-6" d="M82.44,106.13c.41-1.06.91-2.16,1.53-3.34-.65-.24-1.35-.42-2-.39-.58.04-1.15.35-1.28.69-.07.18-.16.33-.26.48.43.29.88.7,1.3,1.29.28.4.51.83.72,1.27Z"/>
  <path class="cls-7" d="M138.48,78.68c.38.92.74,1.79,1.13,2.61.88,1.86,1.78,3.06,2.8,3.72,2.02-1.92,3.43-4.48,3.99-7.22-2.75.18-5.51.19-8.26.04.12.29.24.57.35.84Z"/>
  <path class="cls-5" d="M87,50.5c-.27-.22-.77-.63-1-1.35-.12-.37-.12-.69-.11-.89-.03-.03-.07-.06-.12-.09-.09-.05-.21-.1-.34-.14.31.67.19,1.48-.37,2.02-2.54,2.48-4.92,5.14-7.06,7.91-.28.36-.68.58-1.1.66.1.14.18.27.24.37l.06.09c.04.06.18.12.26.1.57-.13,1.17.03,1.6.43.24.22.41.51.5.82.29-.13.65-.38.89-.56.05-.04.11-.06.16-.09-.63-.59-.76-1.57-.26-2.31,1.31-1.91,2.77-3.76,4.34-5.51.61-.68,1.61-.77,2.34-.26-.03-.29,0-.58.11-.86.03-.08,0-.23-.06-.27l-.08-.07Z"/>
  <path class="cls-7" d="M87.76,53.5c.12-.13.23-.27.31-.39-.1-.05-.2-.12-.29-.18.02.19.02.38-.02.57Z"/>
  <path class="cls-5" d="M86.93,54.83c-1.2,1.37-2.33,2.8-3.36,4.27.52-.19,1.06-.19,1.56.02.02,0,.3.02.56-.17.22-.23.25-.51.24-.56-.23-.86.18-1.81,1.04-2.44-.01-.15-.04-.34-.06-.49-.03-.21-.01-.42.03-.63Z"/>
  <path class="cls-5" d="M83.38,47.06s-.03-.04-.05-.06c-.26-.44-.32-.97-.17-1.46.04-.12,0-.3-.09-.38-.04-.04-.11-.07-.19-.09-.74.62-1.48,1.24-2.21,1.84-2.89,2.38-5.62,4.64-8.29,7.32.01.02.03.06.05.09.07.1.23.16.36.14.5-.08,1.02.06,1.41.38s.63.8.65,1.31c0,.08,0,.17,0,.25.06-.22.16-.43.31-.62,2.24-2.9,4.73-5.69,7.39-8.28.23-.23.51-.37.81-.44Z"/>
  <path class="cls-1" d="M134.54,80.32c.4.97.78,1.88,1.21,2.79.91,1.92,2.44,4.64,5.25,5.99.23.11.85.41,1.62.41.2,0,.41-.02.63-.07.79-.17,1.32-.63,1.57-.86,3.4-2.97,5.59-7.26,6.03-11.75.03-.27.08-.82-.14-1.43-.23-.65-1.05-2.15-3.63-1.94-4.04.32-8.13.27-12.16-.16-.78-.08-1.53.26-1.98.9-.45.64-.51,1.47-.16,2.17.71,1.43,1.24,2.72,1.75,3.96ZM146.39,77.79c-.56,2.74-1.96,5.29-3.99,7.22-1.02-.66-1.92-1.86-2.8-3.72-.39-.82-.75-1.69-1.13-2.6-.11-.27-.23-.56-.35-.85,2.75.15,5.52.13,8.26-.04Z"/>
  <path class="cls-1" d="M156.45,58.84c1.43,0,2.67-1.08,2.83-2.54.07-.61.17-1.22.3-1.82.34-1.54-.62-3.06-2.16-3.4-1.53-.35-3.06.62-3.4,2.16-.18.81-.32,1.63-.41,2.45-.17,1.56.96,2.97,2.52,3.14.11.01.21.02.31.02Z"/>
  <path class="cls-1" d="M134.57,54.61l.36-2.14c.26-1.55-.79-3.02-2.34-3.28-1.54-.26-3.02.79-3.28,2.34l-.35,2.14c-.26,1.55.79,3.02,2.34,3.28.16.03.32.04.47.04,1.37,0,2.58-.99,2.81-2.38Z"/>
  <path class="cls-1" d="M52.93,47.32c.75.14,1.85.47,3.01.81,2.23.66,4.77,1.41,6.73,1.47,1.96.06,3.13,1.15,5.02,3.08.37.38.76.76,1.16,1.15-.08.9.16,1.85.72,2.61.47.64,1.13,1.11,1.87,1.37.06.3.14.61.26.92.46,1.19,1.39,2.03,2.51,2.29.54.83,1.4,1.41,2.35,1.63.08.11.16.22.25.32.63.7,1.56,1.11,2.5,1.11.04,0,.09,0,.14,0,.94-.04,1.73-.42,2.36-.81.85.19,1.92.23,2.89-.61,1.03.13,2.17-.16,3.06-.79.1-.07.19-.15.27-.24.08-.06.15-.11.22-.19.76-.79,1.21-1.88,1.24-2.91.96-.83,1.09-1.88,1.03-2.77.48-.56.97-1.29,1.15-2.22.19-.97-.07-2-.7-2.77-.09-.11-.18-.21-.28-.3-.08-.97-.52-1.91-1.26-2.56-.09-1.14-.79-2.19-1.9-2.82-.29-.17-.58-.29-.87-.39-.14-.77-.51-1.49-1.07-2.05-.7-.7-1.64-1.09-2.61-1.14-.3-.42-.6-.83-.89-1.22-1.62-2.16-2.53-3.48-2.3-5.42.23-1.95-.13-4.56-.45-6.87-.17-1.2-.32-2.34-.35-3.1v-.26c-.09-2.52-.25-7.2-5.8-13.65-1.53-1.78-5.37-4.95-8.13-6.07-6.84-2.76-14.5-2.27-20.5,1.32-.04.02-.08.05-.12.08-1.89,1.35-3.38,2.62-4.69,4-.03.03-.06.06-.09.1-4.51,5.48-6.18,13.03-4.47,20.2.69,2.9,3.26,7.16,4.79,8.94,5.51,6.4,10.14,7.25,12.62,7.71l.31.06ZM74.21,54.84c-.39-.32-.91-.46-1.41-.38-.12.02-.29-.05-.36-.14-.02-.03-.04-.07-.05-.09,2.67-2.69,5.4-4.94,8.3-7.33.73-.6,1.47-1.22,2.21-1.84.07.02.14.05.18.09.08.08.12.26.09.38-.16.49-.09,1.02.17,1.46.01.02.03.04.05.06-.29.07-.58.22-.81.44-2.66,2.6-5.15,5.38-7.39,8.28-.15.19-.25.4-.31.62,0-.08,0-.17,0-.25-.02-.51-.25-.99-.65-1.31ZM83.58,59.1c1.03-1.47,2.16-2.9,3.36-4.27-.04.21-.06.42-.03.63.02.15.05.35.06.49-.86.63-1.27,1.58-1.04,2.44,0,.06-.02.33-.24.56-.26.18-.54.17-.56.17-.49-.21-1.04-.21-1.55-.02ZM87.76,53.5c.04-.19.04-.38.02-.57.09.07.18.13.29.18-.08.12-.19.26-.31.39ZM85.77,48.17c.05.03.09.06.12.09,0,.2,0,.52.11.89.23.72.73,1.13,1,1.35l.09.07c.05.05.09.19.06.28-.11.28-.14.57-.1.86-.73-.51-1.73-.42-2.34.26-1.57,1.75-3.03,3.61-4.34,5.51-.51.74-.38,1.71.26,2.31-.05.03-.11.05-.16.09-.26.18-.61.43-.89.56-.09-.31-.26-.59-.5-.82-.43-.4-1.03-.56-1.6-.43-.09.02-.23-.04-.26-.1l-.06-.09c-.06-.1-.14-.23-.24-.37.42-.07.82-.29,1.1-.66,2.14-2.77,4.52-5.43,7.06-7.91.56-.54.67-1.35.37-2.02.13.04.25.08.34.14ZM42.69,37.23c-1.25-1.45-3.49-5.22-4.02-7.45-1.45-6.07-.06-12.45,3.71-17.06,1.14-1.19,2.41-2.27,4.08-3.47,5.03-2.99,11.48-3.37,17.27-1.03,2.12.86,5.51,3.64,6.76,5.09,4.73,5.5,4.85,9.08,4.94,11.45v.27c.04.94.21,2.16.39,3.46.28,1.99.62,4.47.44,5.96-.41,3.46,1.31,5.76,2.99,7.99.16.21.32.44.48.65-.43.36-.87.73-1.3,1.08-2.62,2.16-5.11,4.24-7.58,6.63-.2-.2-.41-.4-.61-.6-1.95-1.98-3.97-4.04-7.45-4.14-1.51-.05-3.91-.75-5.83-1.32-1.25-.37-2.44-.72-3.36-.89l-.33-.06c-2.34-.43-5.88-1.08-10.57-6.53Z"/>
  <path class="cls-1" d="M138.11,70.44c.06,0,.12,0,.18,0,.9,0,1.68-.68,1.77-1.6.1-.98-.62-1.85-1.59-1.95l-1.47-.15c-1-.1-1.85.62-1.95,1.59-.1.98.62,1.85,1.59,1.95l1.47.15Z"/>
  <path class="cls-1" d="M240.77,190.07c-.46-3.24-.87-6.53-1.31-10.02-1.62-12.88-3.29-26.21-7.3-37.82-.38-1.09-2.95-5.25-3.47-5.91-.92-1.18-2.16-1.83-3.15-2.35-3.73-1.96-31.1-15.22-35.1-16.57-.48-.16-.99-.15-1.46.04-.19.08-.38.18-.57.27-.04-.03-.08-.07-.13-.1l-1.19-.73c-3.47-2.13-4.51-2.78-7.62-6.16-.16-.18-.35-.31-.55-.42-1.08-10.2-.86-19.68.7-31.81,2.69-.6,5.23-1.89,7.26-3.79,1.78-1.66,3.11-3.73,3.95-5.99.02-.03.04-.06.06-.09.49-.98,1.07-2.11,1.69-3.29,2.54-4.91,4.38-8.55,4.82-10.73,1.69-8.33.62-17.14-3.02-24.81-3.3-6.96-8.66-12.88-15.23-16.87.24-.37.37-.82.35-1.27-.03-.69-.4-1.33-.98-1.7-7.79-4.97-17.72-6.38-26.58-3.76-1.13.33-1.78,1.52-1.44,2.65.33,1.13,1.52,1.78,2.65,1.44,6.96-2.06,14.7-1.25,21.11,2.13-.09.21-.16.42-.22.64-.28.97.16,2.01,1.06,2.48,6.71,3.53,12.19,9.25,15.43,16.09,3.25,6.85,4.2,14.71,2.69,22.13-.21,1.03-1.1,3-2.14,5.12-.4-1.04-.95-1.95-1.65-2.71-1.54-1.67-3.82-2.58-6.09-2.43-1.14.08-2.25.42-3.23.98-6.1-4.76-11.36-10.82-15.24-17.58l-.3-.53c-.62-1.09-1.26-2.22-2.11-3.27-.29-.37-1.08-1.34-2.41-1.52-1.12-.15-2.21.31-3.22,1.36-1.61,1.68-2.85,3.69-3.64,5.87-1.32-1.83-2.37-4-3.08-6.42-.97-3.28-1.35-7.03-1.18-11.46.05-1.18-.87-2.17-2.05-2.22-1.18-.04-2.17.87-2.22,2.05-.2,4.9.25,9.11,1.35,12.84,1.36,4.62,3.77,8.52,6.96,11.27.61.52,1.45.67,2.2.36.74-.3,1.25-.99,1.33-1.79.24-2.61,1.34-5.18,3.04-7.14.46.66.88,1.39,1.31,2.16l.31.54c4.1,7.16,9.67,13.58,16.11,18.65-.09.76.21,1.55.89,2.02.97.68,2.3.44,2.98-.53.56-.8,1.52-1.34,2.49-1.41.97-.07,2,.34,2.66,1.06.9.98,1.18,2.47,1.24,3.55.21,3.29-1.16,6.73-3.57,8.98-2.41,2.25-5.94,3.38-9.2,2.95-1.17-.15-2.24.67-2.4,1.84-.15,1.17.67,2.24,1.84,2.4.36.05.71.08,1.07.1-1.67,13.39-1.73,23.71-.19,35.37.14,1.08,1.06,1.86,2.12,1.86.09,0,.19,0,.28-.02.33-.04.63-.17.89-.34,2.2,2.15,3.71,3.08,6.48,4.79l.2.12c-2.64,3.32-4.81,8.46-6.71,13.3l-.21.54c-.32.82-.59,1.66-.84,2.49-3.08,1.3-4.92,2.28-6.68,3.23-1.95,1.05-3.79,2.03-7.33,3.48-3.45,1.41-7.01,2.86-10.61,2.86h-.01c-3.54,0-7.37-1.43-11.41-4.25-2.14-1.5-4.11-3.19-6.2-4.98-1.33-1.14-2.71-2.32-4.12-3.43-.11-4.03.05-9.59,1.88-12.72.19-.02.38-.06.56-.13,4.16-1.65,8.03-3.88,11.54-6.62.31.26.7.44,1.13.5.08.01.17.02.25.02,1.07,0,1.99-.8,2.12-1.89.55-4.63.37-6.17.06-8.96-.11-1.01-.24-2.16-.36-3.69,6.37-1.4,12.63-3.42,18.61-6.02,1.08-.47,1.58-1.73,1.1-2.81-.47-1.08-1.73-1.58-2.81-1.1-6.09,2.65-12.48,4.68-18.99,6.02-2.08.43-4.28.81-6.25.35-3.18-.73-5.69-3.62-7.94-6.63-2.86-3.83-5.95-8.43-7.18-13.49-1.25-5.13-.62-10.47.04-16.12.2-1.74.42-3.55.56-5.33.16-1.95.18-3.42.2-4.84.02-1.61.04-3.14.29-5.24,6.21-6.04,12.03-12.57,17.29-19.44.72-.94.54-2.28-.4-3-.94-.72-2.28-.54-3,.4-5.41,7.07-11.41,13.77-17.84,19.93-.19.18-.33.4-.44.62-.07-3.32.29-6.56,1.14-8.83,1.7-4.56,4.78-9.02,9.7-14.05.62-.64.78-1.59.41-2.4-.38-.81-1.22-1.29-2.1-1.23l-1,.08c4.43-3.18,9.7-5.14,15.14-5.6,1.17-.1,2.05-1.13,1.95-2.31-.1-1.17-1.12-2.04-2.31-1.95-7.51.64-14.72,3.77-20.3,8.83-.31.28-1.15,1.04-1.24,2.26-.06.84.23,1.62.83,2.22.61.61,1.37.87,2.04.98-3.37,3.99-5.67,7.78-7.12,11.68-2.4,6.44-1.7,17.92,1.43,23.63.19.35.46.62.78.8-.08.76-.17,1.52-.26,2.27-.68,5.78-1.38,11.75.05,17.63,1.41,5.8,4.79,10.85,7.91,15.03,2.73,3.66,5.88,7.19,10.4,8.24.97.23,1.95.31,2.91.31.73,0,1.46-.06,2.16-.15.12,1.39.24,2.5.34,3.39.2,1.76.32,2.88.24,4.67-2.35,2.11-4.91,3.94-7.64,5.46-.1-.07-.2-.14-.32-.2-2.9-1.44-6.08.02-7.6.73l-1.95.9c-7.17,3.3-15.04,6.96-17.59,8.76-2.13,1.5-9.99,12.51-25.71,35.11-2.58,3.71-4.97,7.14-6.88,9.86-.05-1.58-.1-3.27-.13-5.08-.02-1-.74-1.86-1.72-2.05-.49-.1-.98-.13-1.46-.14l1.02-7.87c.33-1.17.83-2.63,1.35-4.18,1.62-4.79,3.44-10.19,2.94-13.73.94-3.05,2.12-5.13,3.26-7.14,1.64-2.89,3.18-5.62,3.25-10.12.02-.92,0-1.84-.02-2.76-.04-2.2-.07-4.28.32-6.26.36-1.83,1.11-3.77,2.38-6.11.86-1.59.88-2.95.05-4.06-.5-.66-1.16-.96-1.48-1.1-1.28-.57-2.98-1.21-4.85-1.09-.98.07-1.89.36-2.68.81-.02-.06-.03-.12-.05-.17-.1-.34-.31-1.04-.91-1.63-.92-.91-2.26-1.16-3.97-.73-5.03,1.27-9.81,3.17-14.26,5.65l-.63-9.1c-.41-5.94-.83-12.09-3.05-17.9-1.31-3.43-3.42-5.32-5.95-5.32-.03,0-.06,0-.09,0-2.87.05-4.84,2.6-5.3,5.09-.34,1.86-.01,3.66.28,5.24l.11.59c.47,2.65.68,5.42.88,8.1l.69,9.16c.24,3.2.49,6.52.05,9.64-.08.57-.18,1.13-.28,1.69-.17.96-.35,1.95-.44,2.98-.26,3.07.33,6.1,1.12,9.73,0,.04.02.09.03.13l.14.48c2.77,9.63,5.62,19.59,8.69,30.1l-2.48,16.55s0,.02,0,.03c-1.68.72-3.41,1.5-5.19,2.35-.67.32-1.13.96-1.21,1.7-1.06,9.88-1.59,17.43-2.1,24.73-.51,7.26-1.04,14.77-2.09,24.56-.17,1.55-.36,3.31-.13,5.09.19,1.56.69,3.15,1.56,5.02,1.77,3.78,4.38,7.22,7.54,9.94,2.82,2.42,5.59,3.65,8.27,3.65.27,0,.54-.01.81-.04,2.93-.28,5.28-1.99,7.16-3.37,4.49-3.29,9.14-6.69,12.64-11.37.38-.5,1.5-1.87,2.92-3.6,4.28-5.2,11.57-14.06,15.68-20.18l2.88,15.04c1.38,20.32,1.09,33.31.04,51.52-.07,1.18.83,2.19,2.01,2.26.04,0,.08,0,.12,0,1.12,0,2.07-.88,2.13-2.01,1.02-17.75,1.32-30.61.09-49.97l18.83-.65c.06,8.6.2,16.42.33,23.98.14,7.94.29,16.15.34,25.26,0,1.18.96,2.12,2.14,2.12h.01c1.18,0,2.13-.97,2.12-2.15-.06-9.14-.2-17.36-.34-25.31-.13-7.58-.27-15.42-.33-24.05l9.96-.35c.81-.03,1.53-.51,1.87-1.25l.17-.38c.79.7,1.82,1.68,3.08,2.97l.56.56c4.83,4.83,9.23,7.15,13.94,7.28-.11.67-.24,1.33-.34,2.01-.11.74-.34,2.28.56,3.6.74,1.09,1.92,1.52,2.48,1.73,2.49.92,5.06,1.54,7.54,2.13.3.07.6.15.9.22-.06.24-.09.5-.07.76,1.03,10.09.84,20.36.55,30.01-.04,1.18.89,2.16,2.07,2.2.02,0,.04,0,.06,0,1.15,0,2.1-.92,2.13-2.07.28-9.53.47-19.67-.5-29.76,6.67,2.01,13.13,5.14,19.38,8.19,5.63,2.75,11.42,5.56,17.48,7.63.54,4.94,1.6,9.83,3.19,14.55.3.89,1.13,1.46,2.03,1.46.23,0,.46-.04.68-.11,1.12-.38,1.72-1.59,1.34-2.71-1.29-3.84-2.2-7.81-2.75-11.83.3.08.59.17.89.25,1.08.27,2.27.64,3.53,1.03,3.02.94,6.42,1.99,9.54,1.99.21,0,.41,0,.61-.01,6.21-.29,12.83-9.13,14.36-13.84.91-2.79.89-5.69.79-8.66-.63-17.92-2.93-36.01-5.09-51.34ZM138.8,145.8c4.76,3.33,9.43,5.02,13.86,5.02h.02c4.44,0,8.57-1.69,12.22-3.18,3.75-1.53,5.78-2.62,7.74-3.67,1.1-.59,2.17-1.16,3.53-1.81-.33,2.08-.54,4.16-.75,6.22-2.39,23.76-4.05,42.18-3.35,59.78l-1.99-.84c-1.04-.44-2.23,0-2.74,1.01-.1.21-.2.42-.3.63-3.07-3.36-10.64-11.58-16.74-17.67-.05-.05-.1-.1-.16-.14-5.44-4.45-9.63-8.13-13.68-11.69-.73-.64-1.52-1.32-2.41-1.93l-2.7-12.47c.37-.39.6-.93.59-1.51,0-.13-.23-12.37-.75-23.91.36.31.73.62,1.09.93,2.07,1.78,4.21,3.62,6.53,5.24ZM108.83,183.46c.46.85,1.2,1.29,1.56,1.5,2.63,1.55,5.63,2.47,8.67,2.65,1.94.11,3.21-.06,4.23-.2,1.43-.2,2.09-.29,4.15.72,1,.49,1.93,1.26,2.83,2.07-11.9-1.07-25.2-.15-28.92,1.81-.19.1-.35.21-.51.32l-6.7-34.96,1.84-2.5,28.58-.88,4.68,21.63c-.92-.15-1.84-.2-2.73-.24-2.64-.1-3.49,0-4.87.21-.66.1-1.49.22-2.9.35-3.38.29-6.88.79-9.19,3.38-1.16,1.3-1.43,2.85-.74,4.14ZM113.03,218.11c2.8,1.07,5.8,1.34,8.62,1.48,1.07.05,2.14.08,3.21.11l-18.64.65-4.05-21.17c.39.21.82.4,1.26.58.18,2.79,2.14,5.51,5.16,7.04,2.46,1.25,5.09,1.6,7.63,1.94l.25.03c1.6.21,3.21.45,4.82.7l-2.12.15c-2.85.21-6.06.64-8,3.11-.56.71-.83,1.47-.8,2.23.03.81.41,2.29,2.67,3.16ZM111.82,128.37c2.42-1.7,11.98-6.1,16.74-8.29-2.01,4.35-2.09,10.59-1.78,16.89.21,4.29.38,8.84.52,12.94-.3-.16-.65-.26-1.01-.26-.02,0-.04,0-.07,0l-30.82.95c7.29-10.4,14.89-21.04,16.41-22.24ZM76.6,130.73c-.22-.47-.45-.94-.69-1.43l2.41-1.77s0,0,0,0c-.55.97-1.14,2.01-1.71,3.19ZM81.97,102.41c.64-.04,1.35.14,2,.39-.62,1.18-1.12,2.28-1.53,3.34-.2-.44-.44-.87-.72-1.27-.42-.59-.86-1-1.29-1.29.1-.15.2-.3.26-.48.13-.34.7-.65,1.28-.69ZM60.32,151.97c-3.11-10.67-6.01-20.77-8.82-30.54l-.12-.42c-.73-3.35-1.23-5.93-1.03-8.39.07-.84.22-1.68.38-2.58.11-.62.22-1.23.31-1.85.5-3.58.24-7.13-.02-10.56l-.69-9.16c-.21-2.78-.42-5.66-.93-8.52l-.11-.62c-.25-1.34-.48-2.6-.28-3.68.16-.87.78-1.59,1.18-1.59,0,0,0,0,0,0,.49,0,1.32.88,1.96,2.56,1.99,5.21,2.39,11.04,2.78,16.67l.77,11.2c-.45.2-.87.32-1.22.26-1.16-.2-2.27.58-2.47,1.74-.2,1.16.58,2.27,1.74,2.47.32.06.63.08.93.08,1.95,0,3.61-1.04,4.86-1.82,4.75-2.97,9.96-5.19,15.49-6.6.28,1.06.46,2.14.54,3.23-5.94,2.53-12.1,4.75-18.34,6.57-1.13.33-1.78,1.52-1.45,2.65.27.93,1.12,1.54,2.05,1.54.2,0,.4-.03.6-.09,6.73-1.97,13.38-4.37,19.76-7.14.01,0,.02,0,.04-.02.75,1.06.94,2.44.49,3.62-.1.26-.14.53-.14.79-5.75,1.73-11.47,3.72-17,5.95-1.09.44-1.62,1.69-1.18,2.78.44,1.09,1.68,1.62,2.78,1.18,5.29-2.14,10.76-4.06,16.26-5.72.19,1.57.05,3.25-.07,4.9-.01.18-.04.55-.06.61-.06.08-.3.26-.45.36l-5.1,3.76c-.54-.79-1.14-1.57-1.83-2.29-.81-.86-2.17-.89-3.02-.08-.85.81-.89,2.17-.08,3.02,1.76,1.85,2.94,4.35,3.98,6.54.69,1.47,1.41,2.98,1.69,4.48.46,2.42-1.39,7.9-2.75,11.91-.57,1.67-1.1,3.25-1.46,4.55-.03.1-.05.2-.06.3l-1.21,9.32c-.61.2-1.18.41-1.7.6-2.97,1.1-5.99,2.21-9.15,3.47l2.18-14.5c.05-.31.03-.62-.06-.92ZM97.88,202.19c-2.71,5.21-12.63,17.27-17.4,23.06-1.57,1.91-2.61,3.17-3.04,3.75-3.12,4.17-7.5,7.38-11.74,10.48-1.54,1.12-3.28,2.4-5.04,2.57-1.72.16-3.7-.71-5.89-2.59-2.71-2.33-4.94-5.27-6.46-8.51-.68-1.44-1.05-2.63-1.19-3.73-.16-1.29-.01-2.66.14-4.11,1.06-9.87,1.59-17.42,2.1-24.72.49-6.97,1-14.16,1.96-23.38,6.35-2.95,12.02-5.04,17.51-7.07,1.33-.49,2.51-.9,3.59-1.04.07,2.64.15,5.02.23,7.16.33,9.39.55,15.59-1.32,27.39-.68,4.27-1.52,9.58,1.08,13.96l.14.24c.08.13.19.31.25.43-.04.13-.12.34-.18.47l-2.75,6.72c-.45,1.09.08,2.34,1.17,2.79,1.09.45,2.34-.07,2.79-1.17l2.75-6.72c.23-.57.59-1.43.5-2.47-.09-.99-.54-1.73-.87-2.27l-.12-.19c-1.82-3.06-1.14-7.34-.54-11.12,1.73-10.9,1.73-17.15,1.47-25.23,1.95-2.65,5.77-8.15,10.15-14.44.89-1.27,1.84-2.64,2.83-4.06l8.29,43.3c-.16.15-.3.33-.41.54ZM148.49,222.34l-.53-.53c-2.9-2.96-4.89-4.76-6.51-5.25-1.7-.51-3.44-.68-5.06-.79-2.79-.19-5.6-.24-8.32-.28-2.05-.03-4.16-.07-6.23-.16-2.31-.11-4.28-.3-6.08-.8,1.04-.41,2.42-.54,3.71-.64l18.74-1.37c1.18-.09,2.06-1.11,1.98-2.29-.09-1.18-1.1-2.07-2.29-1.98l-.81.06c-.23-.17-.5-.29-.79-.36-6.35-1.41-12.83-2.56-19.27-3.42l-.25-.03c-2.29-.3-4.45-.59-6.27-1.51-.99-.5-1.79-1.22-2.29-1.98,2.4.43,4.76.37,7.05.32.56-.01,1.12-.03,1.68-.04,7.3-.07,14.78,1.17,21.99,2.38.12.02.24.03.36.03,1.02,0,1.93-.74,2.1-1.78.2-1.16-.59-2.26-1.75-2.46-7.4-1.24-15.03-2.52-22.75-2.44-.58,0-1.16.02-1.74.04-2.2.05-4.26.11-6.26-.26-2.73-.5-4.08-1-4.75-1.36,5.1-1.65,25.96-2.54,37.74,1.15,1.13.35,2.33-.27,2.68-1.4.35-1.13-.27-2.32-1.4-2.68-1.67-.52-3.55-.96-5.55-1.33-.04-.05-.08-.1-.12-.14l-3.68-3.38c-1.27-1.17-2.7-2.49-4.52-3.37-3.01-1.46-4.5-1.39-6.6-1.11-.92.13-1.88.26-3.4.17-2.09-.12-4.16-.69-6.02-1.66,1.37-1.02,3.62-1.29,5.84-1.49,1.54-.13,2.44-.27,3.16-.38,1.14-.17,1.71-.25,4.08-.17,1.37.05,2.8.16,3.98.67,1.16.5,2.24,1.45,3.28,2.36,4.06,3.56,8.25,7.25,13.71,11.72,7.21,7.2,16.47,17.38,17.75,18.79-2.08,4.88-3.7,9.91-4.86,15.19-2.88.12-6.54-.84-11.74-6.03ZM241.02,248.75c-1.42,4.36-7.09,10.74-10.5,10.9-2.54.13-5.66-.85-8.68-1.79-1.31-.41-2.56-.79-3.75-1.09-7.63-1.91-14.94-5.48-22.02-8.93-6.84-3.34-13.91-6.79-21.43-8.87-1.33-.37-2.68-.69-3.98-1.01-2.47-.6-4.81-1.16-7.07-1.99-.16-.06-.27-.1-.35-.14,0-.13.03-.32.06-.55,1.24-8.31,3.52-15.93,6.97-23.23l36.03,15.13c1.37.57,2.92,1.23,4.7,1.31,1.86.1,3.58-.48,5.09-.98,1.32-.44,2.58-.84,3.67-.75,2.38.21,4.31,2.78,5.92,5.17l7.57,11.21c.66.98,1.99,1.23,2.97.58.98-.66,1.24-1.99.58-2.97l-7.57-11.21c-1.56-2.31-4.47-6.62-9.08-7.03-.4-.04-.8-.03-1.18-.01l-8.25-37.69c-.68-3.1-1.38-6.3-1.58-9.43-.5-7.74,1.92-15.42,4.27-22.84.36-1.13-.27-2.33-1.39-2.68-1.13-.35-2.33.27-2.68,1.39-2.35,7.43-5.01,15.86-4.46,24.4.22,3.46.96,6.82,1.67,10.07l8.26,37.72s-.03,0-.04.01c-1.27.42-2.47.81-3.54.76-1.03-.05-2.16-.52-3.25-.98l-31.54-13.24c-.9-17.93.78-36.68,3.25-61.18.31-3.1.64-6.27,1.37-9.29.16-.3.26-.64.26-.98.24-.84.5-1.68.82-2.49l.21-.54c1.16-2.97,4.54-11.59,7.58-13.73,5.69,2.31,29.55,13.83,33.65,15.99.7.37,1.42.74,1.77,1.2.44.58,2.55,4.07,2.8,4.68,3.87,11.19,5.51,24.28,7.1,36.95.44,3.5.86,6.82,1.32,10.08,2.26,15.99,4.43,33.22,5.05,50.9.09,2.67.12,5.06-.58,7.19Z"/>
</svg>