<?xml version="1.0" encoding="UTF-8"?>
<svg id="_レイヤー_1" data-name="レイヤー 1" xmlns="http://www.w3.org/2000/svg" version="1.1" viewBox="0 0 280 280">
  <defs>
    <style>
      .cls-1 {
        fill: #000;
      }

      .cls-1, .cls-2, .cls-3, .cls-4 {
        stroke-width: 0px;
      }

      .cls-2 {
        fill: #036eb8;
      }

      .cls-3 {
        fill: #ffecd6;
      }

      .cls-4 {
        fill: #fff;
      }
    </style>
  </defs>
  <path class="cls-4" d="M116.88,165.97l-4.51,5.09c-.26.29-.57.52-.9.67.21,12.49,1.43,23.99,3.6,35.31,7.99-8.39,16.05-17.32,20.92-26.53l-9.65-7.05c-3.19-2.33-6.47-4.73-9.47-7.5Z"/>
  <path class="cls-1" d="M95.1,115.18c-.29.02-.57.03-.86.03-2.95,0-5.92-1.2-8.32-3.24-3.75.83-6.45,4.28-7.49,7.45-1.3,3.95-.96,8.34-.47,12.87l.09.83c.5,4.6,1.02,9.36-.04,14.14-.52,2.34-1.44,4.59-2.68,6.68,3.93-1.62,7.78-3.42,11.41-5.51,7.31-4.23,11.99-7.91,15.76-15.25.17-.34.41-.63.69-.86-2.62-4.68-5.17-10.69-7-17.46-.33.18-.69.29-1.09.32Z"/>
  <path class="cls-1" d="M93.93,83.43l-.02-3.38c0-1.17.71-2.17,1.74-2.57,10.92-6.6,25.98-17.15,32.46-32.99.39-.95,1.28-1.61,2.31-1.7,1.02-.09,2.02.39,2.57,1.26,4.51,7.07,12.14,13.71,20.97,19.45,3.07-4.19,6.32-8.29,9.71-12.2,1-1.15,2.74-1.28,3.89-.28s1.28,2.74.28,3.89c-3.19,3.69-6.26,7.55-9.16,11.49,1.79,1.05,3.61,2.06,5.45,3.03,3.37-4.91,7.13-9.61,11.22-13.96,1.04-1.11,2.79-1.17,3.9-.12,1.11,1.04,1.17,2.79.12,3.9-3.72,3.96-7.16,8.23-10.26,12.69,5.93,2.85,11.94,5.24,17.58,7.08.03.01.06.03.09.04.1.04.19.08.28.12.07.04.15.07.22.12.08.05.15.1.23.16.07.05.14.11.2.16.07.06.12.13.18.19.06.07.12.13.17.2.05.07.1.15.15.23.04.07.09.14.12.22.04.08.07.17.1.25.03.08.06.17.08.25.02.08.03.17.05.25.02.1.03.19.03.29,0,.03.01.06.01.09,0,.6,0,1.2.01,1.8,1.5-.13,3.12-.05,4.69.24,4.51-20.68,1.66-38.22-8.32-50.8-9.42-11.87-25.23-18.96-42.28-18.96s-32.83,7.49-42.88,20.05c-7.29,9.11-14.8,25.06-9.76,49.6,1.32-.17,2.65-.2,3.9-.1Z"/>
  <path class="cls-3" d="M140.06,151.36c.24-.06.49-.09.75-.08,5.61.28,21.2-7.62,28.24-15.39,4.54-5,10.25-16.86,12.38-29.84.25-1.5,1.66-2.52,3.17-2.27,1.5.25,2.52,1.67,2.27,3.17-.17,1.05-.37,2.08-.58,3.11,4.29-.04,7.14-2.46,8.26-4.15,1.47-2.2,2.22-5.13,2.32-8.94.08-3.13-.4-5.27-1.51-6.75-.8-.94-4.54-1.55-6.77-1.29,0,1.1,0,2.2-.02,3.3-.02,1.51-1.25,2.72-2.76,2.72-.01,0-.02,0-.04,0-1.52-.02-2.74-1.27-2.72-2.79.04-2.84.03-5.7.01-8.54-26.07-8.84-43.48-22.26-51.9-32.67-7.58,14.47-21.27,24.27-31.75,30.69l.07,11.67c0,1.52-1.22,2.77-2.74,2.78h-.02c-1.52,0-2.75-1.22-2.76-2.74l-.03-4.41c-2.26-.27-6.14.34-6.98,1.3-1.1,1.46-1.58,3.61-1.5,6.74.1,3.81.85,6.73,2.32,8.94,1.63,2.46,4.38,3.98,6.86,3.78.1,0,.2,0,.3,0-.18-.91-.35-1.82-.5-2.75-.25-1.5.77-2.92,2.27-3.17,1.5-.25,2.92.77,3.17,2.27,2.14,12.98,7.85,24.84,12.39,29.84,6.8,7.5,18.82,15.46,27.7,15.46.02,0,.04,0,.06,0ZM166.6,98.47c-.35,2.89-2.51,5.03-5.14,5.08-.03,0-.06,0-.09,0-2.13,0-4.09-1.42-4.88-3.56-.49-1.32-.44-2.56-.4-3.38.07-1.64,1-3.17,2.49-4.09,1.45-.9,3.21-1.04,4.7-.38,2.32,1.02,3.65,3.57,3.32,6.33ZM155.84,78.47c4.1-1.06,8.54-.4,12.16,1.8,1.18.71,1.55,2.25.84,3.43-.47.77-1.29,1.2-2.13,1.2-.44,0-.89-.12-1.29-.36-2.45-1.48-5.56-1.95-8.33-1.23-1.34.34-2.69-.46-3.04-1.79-.34-1.33.46-2.69,1.79-3.04ZM138,114.82c.65-.89,1.79-1.23,2.79-.9,1-.25,2.1.14,2.7,1.05.75,1.15.43,2.7-.72,3.45-.63.41-1.33.62-2.03.62-.77,0-1.53-.25-2.2-.74-1.11-.81-1.35-2.37-.54-3.49ZM125.3,98.13c-.35,2.89-2.51,5.03-5.14,5.08-.03,0-.06,0-.09,0-2.13,0-4.09-1.42-4.88-3.56-.49-1.32-.44-2.56-.4-3.38.07-1.64,1-3.17,2.49-4.1,1.45-.9,3.21-1.05,4.7-.39,2.32,1.02,3.65,3.57,3.32,6.33ZM127.34,82.07c-.43,1.31-1.83,2.03-3.14,1.6-2.72-.88-5.86-.62-8.39.71-.37.19-.77.29-1.16.29-.9,0-1.76-.49-2.21-1.33-.64-1.22-.17-2.73,1.05-3.37,3.76-1.97,8.22-2.35,12.25-1.04,1.31.43,2.03,1.83,1.6,3.14ZM129.47,128.44c.84-1.63,2.85-2.27,4.48-1.43,3.58,1.85,8.66,2.03,12.65.45,1.03-1.06,2.68-1.34,4.03-.58,1.6.9,2.16,2.93,1.26,4.53-.8,1.42-2.19,1.98-2.79,2.21-2.6,1.04-5.48,1.55-8.35,1.55-3.49,0-6.95-.76-9.85-2.26-1.63-.84-2.27-2.85-1.43-4.48Z"/>
  <path class="cls-3" d="M156.24,164.6c-.1-.16-.19-.33-.26-.52-.98-2.78-.84-7.33-.52-11.81-5.34,2.7-10.63,4.53-14.38,4.53-.15,0-.3,0-.45-.01-.2.05-.41.08-.63.08-5.24,0-11.18-2.13-16.78-5.33-.13,2.67-.46,5.56-.8,8.55-.12,1.04-.23,2.07-.34,3.11,2.4,2.06,4.99,3.96,7.53,5.82l10.09,7.37c.09.06.19.14.31.23.12-.09.22-.17.31-.23l10.08-7.37c1.95-1.43,3.94-2.88,5.84-4.41Z"/>
  <path class="cls-4" d="M163.12,165.97c-3,2.77-6.28,5.16-9.47,7.5l-9.64,7.05c4.87,9.21,12.93,18.13,20.92,26.53,2.17-11.32,3.39-22.82,3.6-35.31-.33-.16-.64-.38-.9-.67l-4.51-5.09Z"/>
  <path class="cls-2" d="M211.35,273.2h22.59c-.33-.41-.55-.92-.6-1.49-.4-4.64-.76-9.96-1.14-15.59-1.28-18.84-2.88-42.24-7.09-59.4-5.17-6.35-19.44-11.78-33.25-17.04-6.04-2.3-12.23-4.66-17.84-7.16-.71,35.46-9.27,63.02-24.71,100.67h27.75c0-.45.1-.9.33-1.32,2.99-5.48,5.88-9.07,8.67-12.55,3.43-4.28,6.69-8.34,9.97-15.78l-10.49-20.2c-.52-1-.38-2.22.37-3.08l8.97-10.33c-2.23-5.29-5.53-10.4-9.01-15.78-1.87-2.89-3.79-5.87-5.6-8.96-.77-1.32-.33-3,.99-3.77,1.32-.76,3-.33,3.77.99,1.74,2.98,3.63,5.91,5.47,8.74,3.97,6.14,7.72,11.95,10.14,18.34.36.95.17,2.02-.5,2.78l-8.84,10.18,10.23,19.7c.38.73.41,1.59.09,2.34-3.76,8.91-7.57,13.67-11.26,18.27-2.51,3.13-4.89,6.12-7.38,10.43h24.07c-.77-.96-.82-2.33-.08-3.35.76-1.37,3.49-10.19,3.91-13.35.66-4.97-.03-10.31-.84-16.49-1.2-9.21-2.7-20.68-.58-36.57.2-1.51,1.6-2.56,3.1-2.37,1.51.2,2.57,1.59,2.37,3.1-2.02,15.17-.58,26.24.58,35.13.86,6.57,1.6,12.24.84,17.93-.43,3.22-3.46,14.04-5,15.96Z"/>
  <path class="cls-4" d="M140,184.67c-5.45,9.62-13.78,18.7-21.92,27.21-.5.52-1.16.8-1.84.84,4.12,18.68,10.85,37.26,19.97,59.44.14.34.21.7.21,1.05h7.16c0-.35.06-.71.21-1.05,9.12-22.18,15.84-40.75,19.97-59.44-.67-.04-1.33-.31-1.83-.84-8.14-8.51-16.47-17.59-21.92-27.21Z"/>
  <path class="cls-2" d="M88.13,179.69c-13.81,5.26-28.07,10.69-33.25,17.04-4.21,17.16-5.81,40.56-7.09,59.39-.38,5.63-.75,10.95-1.14,15.59-.05.57-.27,1.08-.6,1.49h21.98c-1.54-1.93-4.57-12.74-5-15.96-.76-5.69-.02-11.36.84-17.93,1.16-8.89,2.61-19.96.58-35.13-.2-1.51.86-2.9,2.37-3.1,1.51-.19,2.9.86,3.1,2.37,2.12,15.89.62,27.36-.58,36.57-.81,6.18-1.5,11.52-.84,16.49.42,3.16,3.15,11.97,3.92,13.34.74,1.02.69,2.39-.08,3.35h24.66c-2.57-4.29-5.03-7.27-7.63-10.39-3.82-4.6-7.77-9.36-11.67-18.27-.34-.78-.3-1.67.1-2.41l10.57-19.65-9.14-10.16c-.7-.78-.9-1.88-.52-2.85,2.51-6.4,6.39-12.2,10.51-18.35,1.9-2.83,3.86-5.76,5.66-8.74.79-1.3,2.49-1.72,3.79-.93,1.3.79,1.72,2.48.93,3.79-1.87,3.09-3.87,6.07-5.8,8.95-3.59,5.36-7,10.46-9.31,15.73l9.27,10.31c.78.87.93,2.13.38,3.15l-10.85,20.16c3.4,7.41,6.76,11.46,10.31,15.74,2.89,3.48,5.88,7.08,8.98,12.55.24.43.35.9.35,1.36h27.75c-15.44-37.65-24-65.21-24.71-100.67-5.62,2.5-11.81,4.86-17.84,7.16Z"/>
  <path class="cls-1" d="M93.61,259.29c-3.55-4.27-6.92-8.32-10.31-15.74l10.85-20.16c.55-1.03.4-2.29-.38-3.15l-9.27-10.31c2.31-5.28,5.72-10.37,9.31-15.73,1.93-2.89,3.93-5.87,5.8-8.96.79-1.3.37-3-.93-3.79-1.31-.79-3-.37-3.79.93-1.8,2.98-3.77,5.91-5.66,8.74-4.12,6.15-8,11.95-10.51,18.35-.38.97-.18,2.07.52,2.85l9.14,10.16-10.57,19.65c-.4.75-.44,1.63-.1,2.41,3.9,8.91,7.85,13.67,11.67,18.27,2.86,3.44,5.56,6.7,8.42,11.75.51.9,1.44,1.4,2.4,1.4.46,0,.93-.12,1.36-.36,1.33-.75,1.79-2.43,1.04-3.76-3.1-5.48-6.09-9.08-8.98-12.55Z"/>
  <path class="cls-1" d="M68.5,256.51c-.66-4.97.04-10.31.84-16.49,1.2-9.21,2.7-20.68.58-36.57-.2-1.51-1.6-2.56-3.1-2.37-1.51.2-2.57,1.59-2.37,3.1,2.02,15.17.58,26.24-.58,35.13-.86,6.57-1.6,12.24-.84,17.93.43,3.23,3.48,14.1,5.02,15.98.54.67,1.34,1.02,2.14,1.02.61,0,1.23-.2,1.74-.62,1.14-.93,1.35-2.59.49-3.76-.76-1.37-3.49-10.18-3.92-13.34Z"/>
  <path class="cls-1" d="M125.73,78.92c-4.03-1.31-8.5-.93-12.25,1.04-1.22.64-1.69,2.15-1.05,3.37.45.85,1.31,1.33,2.21,1.33.39,0,.79-.09,1.16-.29,2.54-1.33,5.67-1.6,8.39-.71,1.31.42,2.72-.29,3.14-1.6.43-1.31-.29-2.72-1.6-3.14Z"/>
  <path class="cls-1" d="M157.09,83.3c2.77-.71,5.89-.25,8.33,1.23.4.25.85.36,1.29.36.84,0,1.67-.43,2.13-1.2.71-1.18.34-2.71-.84-3.43-3.62-2.2-8.06-2.85-12.16-1.8-1.33.34-2.14,1.7-1.79,3.04.34,1.33,1.7,2.14,3.04,1.79Z"/>
  <path class="cls-1" d="M121.98,91.79c-1.5-.66-3.25-.52-4.7.38-1.49.93-2.42,2.46-2.49,4.09h0c-.03.82-.09,2.06.4,3.38.79,2.14,2.75,3.56,4.88,3.56.03,0,.06,0,.09,0,2.63-.05,4.79-2.19,5.14-5.08.33-2.77-1-5.31-3.32-6.33Z"/>
  <path class="cls-1" d="M163.29,92.14c-1.5-.66-3.26-.52-4.71.39-1.49.93-2.42,2.46-2.49,4.09-.04.82-.09,2.05.4,3.38.8,2.14,2.75,3.55,4.88,3.55.03,0,.06,0,.09,0,2.62-.05,4.79-2.18,5.14-5.08.33-2.77-1-5.31-3.32-6.33Z"/>
  <path class="cls-1" d="M138.54,118.3c.67.49,1.44.74,2.21.74.7,0,1.4-.21,2.03-.62,1.15-.75,1.47-2.3.72-3.45-.6-.92-1.7-1.3-2.7-1.05-1-.33-2.14,0-2.79.9-.81,1.11-.57,2.67.54,3.49Z"/>
  <path class="cls-1" d="M149.1,133.62c.59-.24,1.98-.79,2.79-2.21.9-1.6.34-3.63-1.26-4.53-1.35-.76-3-.48-4.03.58-3.99,1.58-9.07,1.4-12.65-.45-1.63-.84-3.64-.2-4.48,1.43-.84,1.63-.2,3.64,1.43,4.48,2.9,1.5,6.36,2.26,9.85,2.26,2.87,0,5.75-.51,8.35-1.55Z"/>
  <path class="cls-1" d="M191.3,222.47l8.84-10.18c.67-.77.86-1.84.5-2.78-2.42-6.39-6.17-12.2-10.14-18.34-1.83-2.83-3.73-5.76-5.47-8.74-.77-1.32-2.46-1.75-3.77-.99-1.32.77-1.76,2.46-.99,3.77,1.8,3.09,3.73,6.07,5.6,8.96,3.48,5.38,6.78,10.49,9.01,15.78l-8.97,10.33c-.74.85-.89,2.07-.37,3.08l10.49,20.2c-3.29,7.44-6.54,11.5-9.97,15.78-2.79,3.48-5.67,7.08-8.67,12.55-.73,1.34-.24,3.01,1.1,3.74.42.23.87.34,1.32.34.98,0,1.92-.52,2.42-1.44,2.76-5.05,5.37-8.3,8.13-11.75,3.69-4.6,7.5-9.36,11.26-18.27.32-.76.29-1.61-.09-2.34l-10.22-19.7Z"/>
  <path class="cls-1" d="M230.33,194.83c-.09-.35-.25-.69-.46-.98-5.83-7.81-20.5-13.4-36.03-19.31-7.81-2.97-15.88-6.05-22.44-9.33-.58-.29-1.2-.34-1.79-.22l-4.28-4.84c-.51-.58-1.24-.91-2.01-.93-.75,0-1.51.29-2.05.85-.14.14-.28.28-.42.42-.29-2.89.08-7.51.34-10.79l.05-.69c4.75-2.94,9.09-6.32,11.9-9.41,3.93-4.33,8.8-13.2,11.83-24.07.4.03.79.05,1.18.05,5.91,0,10.64-3.06,13-6.61,2.06-3.09,3.12-6.97,3.24-11.85.07-2.79-.12-6.89-2.61-10.2-.34-.46-.78-.87-1.29-1.24,6.49-28.66-1.4-46.4-9.22-56.25-10.46-13.18-27.88-21.05-46.6-21.05s-36.1,8.27-47.19,22.12c-8.09,10.1-16.43,27.75-10.76,54.65-.89.49-1.64,1.08-2.15,1.77-2.49,3.31-2.68,7.41-2.61,10.2.1,4.09.87,7.46,2.32,10.27-4.13,1.77-7.54,5.55-9.11,10.32-1.64,4.99-1.25,10.23-.72,15.18l.09.84c.47,4.34.92,8.45.06,12.34-1.24,5.55-5.42,10.53-10.92,12.99-1.35.6-1.98,2.17-1.43,3.54.43,1.07,1.46,1.73,2.56,1.73.31,0,.62-.05.92-.16,8.65-3.08,17.6-6.26,25.74-10.96,7.46-4.31,12.74-8.38,16.96-15.76.6.8,1.18,1.53,1.75,2.16,2.63,2.91,5.92,5.81,9.52,8.4.14,3.15-.31,7.24-.77,11.24-.09,0-.18-.03-.27-.03-.77.01-1.5.35-2.01.93l-4.28,4.84c-.59-.12-1.21-.06-1.79.22-6.56,3.28-14.64,6.36-22.44,9.33-15.53,5.92-30.19,11.5-36.03,19.31-.22.29-.38.62-.46.98-4.44,17.69-6.07,41.66-7.38,60.92-.38,5.61-.74,10.9-1.14,15.5-.13,1.52,1,2.85,2.51,2.98.08,0,.16.01.24.01,1.42,0,2.62-1.09,2.75-2.52.4-4.65.76-9.97,1.14-15.6,1.28-18.83,2.88-42.23,7.09-59.39,5.17-6.35,19.44-11.78,33.25-17.04,6.04-2.3,12.23-4.66,17.84-7.16.72,35.8,9.43,63.53,25.14,101.72.44,1.07,1.47,1.71,2.55,1.71.35,0,.71-.07,1.05-.21,1.41-.58,2.08-2.19,1.5-3.6-9.12-22.18-15.85-40.75-19.97-59.44.67-.04,1.33-.31,1.83-.84,8.14-8.51,16.48-17.59,21.92-27.21,5.45,9.62,13.78,18.7,21.92,27.21.5.53,1.16.8,1.84.84-4.12,18.68-10.85,37.26-19.97,59.44-.58,1.41.09,3.02,1.5,3.6.34.14.7.21,1.05.21,1.08,0,2.11-.64,2.55-1.71,15.71-38.19,24.43-65.93,25.14-101.72,5.62,2.5,11.81,4.86,17.84,7.16,13.81,5.26,28.07,10.69,33.25,17.04,4.22,17.16,5.81,40.56,7.09,59.4.38,5.63.75,10.94,1.14,15.59.12,1.44,1.33,2.52,2.75,2.52.08,0,.16,0,.24-.01,1.52-.13,2.64-1.46,2.51-2.98-.39-4.6-.75-9.89-1.13-15.49-1.31-19.27-2.94-43.24-7.38-60.93ZM99.8,33.93c10.05-12.55,26.08-20.05,42.88-20.05s32.86,7.09,42.28,18.96c9.98,12.58,12.83,30.12,8.32,50.8-1.57-.28-3.19-.36-4.69-.23,0-.6,0-1.2-.01-1.8,0-.03,0-.06-.01-.09,0-.1-.02-.2-.03-.29-.01-.08-.03-.17-.05-.25-.02-.09-.05-.17-.08-.25-.03-.09-.06-.17-.1-.25-.04-.08-.08-.15-.12-.22-.05-.08-.09-.16-.15-.23-.05-.07-.11-.13-.17-.2-.06-.07-.12-.13-.18-.19-.06-.06-.13-.11-.2-.16-.07-.06-.15-.11-.23-.16-.07-.04-.14-.08-.22-.12-.09-.05-.18-.09-.28-.12-.03-.01-.06-.03-.09-.04-5.64-1.83-11.65-4.23-17.58-7.07,3.1-4.45,6.54-8.72,10.26-12.69,1.04-1.11.99-2.86-.12-3.9-1.11-1.04-2.86-.99-3.9.12-4.09,4.35-7.85,9.05-11.22,13.96-1.84-.97-3.66-1.98-5.45-3.03,2.9-3.94,5.97-7.81,9.16-11.49,1-1.15.87-2.89-.28-3.89-1.15-1-2.89-.87-3.89.28-3.39,3.91-6.64,8.01-9.71,12.2-8.84-5.73-16.46-12.38-20.98-19.45-.55-.87-1.55-1.35-2.57-1.26-1.03.09-1.92.75-2.3,1.7-6.48,15.84-21.55,26.39-32.46,32.99-1.02.41-1.74,1.41-1.74,2.57l.02,3.38c-1.24-.1-2.58-.07-3.9.1-5.04-24.54,2.47-40.49,9.77-49.6ZM102.5,133.17c-3.77,7.34-8.45,11.02-15.76,15.25-3.63,2.09-7.47,3.89-11.41,5.51,1.24-2.09,2.16-4.34,2.68-6.68,1.07-4.78.55-9.54.04-14.14l-.09-.83c-.49-4.53-.82-8.92.47-12.87,1.04-3.17,3.74-6.62,7.49-7.45,2.4,2.04,5.37,3.24,8.32,3.24.29,0,.57-.01.86-.03.39-.03.76-.15,1.09-.32,1.83,6.77,4.38,12.78,7,17.46-.28.23-.51.52-.69.86ZM112.3,135.89c-4.54-5-10.25-16.86-12.39-29.84-.25-1.5-1.67-2.52-3.17-2.27-1.5.25-2.52,1.67-2.27,3.17.15.92.32,1.84.5,2.75-.1,0-.2-.01-.3,0-2.46.2-5.23-1.33-6.86-3.78-1.47-2.2-2.22-5.13-2.32-8.94-.08-3.13.4-5.27,1.5-6.74.84-.96,4.72-1.57,6.98-1.3l.03,4.41c0,1.52,1.24,2.74,2.76,2.74h.02c1.52,0,2.75-1.25,2.74-2.78l-.07-11.67c10.48-6.42,24.17-16.22,31.75-30.69,8.42,10.41,25.84,23.84,51.9,32.67.02,2.85.02,5.71-.01,8.54-.02,1.52,1.2,2.77,2.72,2.79.01,0,.02,0,.04,0,1.51,0,2.74-1.21,2.76-2.72.01-1.09.02-2.2.02-3.3,2.23-.25,5.97.35,6.77,1.29,1.11,1.47,1.58,3.62,1.51,6.75-.1,3.81-.85,6.73-2.32,8.94-1.12,1.69-3.98,4.11-8.26,4.15.21-1.02.41-2.06.58-3.11.25-1.5-.77-2.92-2.27-3.17-1.51-.25-2.92.77-3.17,2.27-2.14,12.98-7.85,24.84-12.39,29.84-7.04,7.76-22.64,15.67-28.24,15.39-.26-.01-.51.03-.76.08-.02,0-.04,0-.06,0-8.89,0-20.91-7.97-27.7-15.46ZM140,156.87c.22,0,.43-.03.63-.08.15,0,.29.01.45.01,3.75,0,9.04-1.83,14.38-4.53-.32,4.48-.46,9.03.52,11.81.07.19.16.36.26.52-1.9,1.53-3.89,2.98-5.84,4.41l-10.09,7.37c-.09.06-.19.14-.31.23-.11-.09-.22-.17-.31-.23l-10.09-7.37c-2.54-1.86-5.13-3.76-7.53-5.82.11-1.03.22-2.07.34-3.11.34-2.99.67-5.88.8-8.55,5.6,3.19,11.54,5.33,16.78,5.33ZM115.07,207.04c-2.17-11.32-3.39-22.82-3.6-35.31.33-.16.64-.38.9-.67l4.51-5.09c3,2.76,6.27,5.16,9.47,7.5l9.64,7.05c-4.87,9.21-12.93,18.13-20.92,26.53ZM144.01,180.51l9.64-7.05c3.19-2.33,6.47-4.73,9.47-7.5l4.51,5.09c.26.29.57.52.9.67-.21,12.49-1.43,23.99-3.6,35.31-8-8.4-16.05-17.32-20.92-26.53Z"/>
  <path class="cls-1" d="M214.93,204.18c.2-1.51-.86-2.9-2.37-3.1-1.5-.19-2.9.86-3.1,2.37-2.12,15.89-.62,27.36.58,36.57.81,6.18,1.5,11.52.84,16.49-.42,3.16-3.15,11.98-3.92,13.35-.86,1.18-.66,2.83.49,3.76.51.42,1.13.62,1.74.62.8,0,1.6-.35,2.14-1.02,1.53-1.88,4.58-12.75,5.02-15.98.76-5.69.02-11.36-.84-17.93-1.16-8.89-2.61-19.96-.58-35.13Z"/>
</svg>