<svg width="756" height="51" viewBox="0 0 756 51" fill="none" xmlns="http://www.w3.org/2000/svg">
<path d="M0.324438 0.799998H5.84444V10.928L5.60444 16.16C7.90844 13.952 10.5484 11.984 14.1484 11.984C19.7644 11.984 22.2604 15.728 22.2604 22.448V39.056H16.7404V23.12C16.7404 18.56 15.3964 16.736 12.2764 16.736C9.82844 16.736 8.14844 17.984 5.84444 20.336V39.056H0.324438V0.799998ZM36.3769 39.68C31.8169 39.68 28.6009 36.704 28.6009 32.048C28.6009 26.384 33.4009 23.456 44.3929 22.256C44.3449 19.184 43.2409 16.496 39.3529 16.496C36.5689 16.496 33.9769 17.744 31.7209 19.184L29.6569 15.44C32.3929 13.712 36.0889 11.984 40.3129 11.984C46.8889 11.984 49.9129 16.16 49.9129 23.168V39.056H45.4009L44.9689 36.032H44.7769C42.3769 38.096 39.5449 39.68 36.3769 39.68ZM33.9289 31.664C33.9289 34.256 35.7049 35.312 38.0569 35.312C40.3609 35.312 42.2329 34.208 44.3929 32.24V25.76C36.5689 26.672 33.9289 28.688 33.9289 31.664ZM68.4983 39.68C61.3463 39.68 55.8743 34.64 55.8743 25.856C55.8743 17.072 61.9703 11.984 68.9303 11.984C72.2903 11.984 74.7383 13.328 76.6583 15.008L73.9223 18.608C72.4823 17.312 70.9943 16.544 69.2183 16.544C64.7543 16.544 61.5863 20.288 61.5863 25.856C61.5863 31.472 64.6583 35.168 69.0263 35.168C71.2343 35.168 73.2023 34.112 74.7863 32.768L77.0903 36.416C74.6423 38.576 71.5223 39.68 68.4983 39.68ZM82.5432 0.799998H87.9672V25.424H88.1592L98.3832 12.656H104.527L95.5992 23.408L105.535 39.056H99.5352L92.3832 27.104L87.9672 32.192V39.056H82.5432V0.799998ZM116.393 39.68C111.833 39.68 108.617 36.704 108.617 32.048C108.617 26.384 113.417 23.456 124.409 22.256C124.361 19.184 123.257 16.496 119.369 16.496C116.585 16.496 113.993 17.744 111.737 19.184L109.673 15.44C112.409 13.712 116.105 11.984 120.329 11.984C126.905 11.984 129.929 16.16 129.929 23.168V39.056H125.417L124.985 36.032H124.793C122.393 38.096 119.561 39.68 116.393 39.68ZM113.945 31.664C113.945 34.256 115.721 35.312 118.073 35.312C120.377 35.312 122.249 34.208 124.409 32.24V25.76C116.585 26.672 113.945 28.688 113.945 31.664ZM146.642 39.68C140.69 39.68 138.626 35.984 138.626 30.416V17.072H134.786V12.944L138.914 12.656L139.538 5.36H144.146V12.656H151.01V17.072H144.146V30.464C144.146 33.632 145.25 35.264 147.986 35.264C148.898 35.264 150.05 34.976 150.818 34.64L151.826 38.72C150.338 39.2 148.562 39.68 146.642 39.68ZM156.793 0.799998H162.313V10.928L162.073 16.16C164.377 13.952 167.017 11.984 170.617 11.984C176.233 11.984 178.729 15.728 178.729 22.448V39.056H173.209V23.12C173.209 18.56 171.865 16.736 168.745 16.736C166.297 16.736 164.617 17.984 162.313 20.336V39.056H156.793V0.799998ZM197.166 39.68C190.638 39.68 184.734 34.64 184.734 25.856C184.734 17.072 190.638 11.984 197.166 11.984C203.694 11.984 209.598 17.072 209.598 25.856C209.598 34.64 203.694 39.68 197.166 39.68ZM190.446 25.856C190.446 31.472 193.038 35.168 197.166 35.168C201.342 35.168 203.934 31.472 203.934 25.856C203.934 20.288 201.342 16.544 197.166 16.544C193.038 16.544 190.446 20.288 190.446 25.856ZM216.09 12.656H220.602L221.034 16.304H221.178C223.626 13.952 226.314 11.984 229.914 11.984C235.53 11.984 238.026 15.728 238.026 22.448V39.056H232.506V23.12C232.506 18.56 231.162 16.736 228.042 16.736C225.594 16.736 223.914 17.984 221.61 20.336V39.056H216.09V12.656ZM249.019 39.68C246.955 39.68 245.323 38.096 245.323 35.84C245.323 33.536 246.955 31.904 249.019 31.904C251.083 31.904 252.715 33.536 252.715 35.84C252.715 38.096 251.083 39.68 249.019 39.68ZM260.34 0.799998H265.764V25.424H265.956L276.18 12.656H282.324L273.396 23.408L283.332 39.056H277.332L270.18 27.104L265.764 32.192V39.056H260.34V0.799998ZM298.509 39.68C291.981 39.68 286.077 34.64 286.077 25.856C286.077 17.072 291.981 11.984 298.509 11.984C305.037 11.984 310.941 17.072 310.941 25.856C310.941 34.64 305.037 39.68 298.509 39.68ZM291.789 25.856C291.789 31.472 294.381 35.168 298.509 35.168C302.685 35.168 305.277 31.472 305.277 25.856C305.277 20.288 302.685 16.544 298.509 16.544C294.381 16.544 291.789 20.288 291.789 25.856ZM326.458 50.912C320.122 50.912 315.514 48.56 315.514 43.952C315.514 41.744 316.906 39.68 319.354 38.192V37.952C318.01 37.136 316.954 35.744 316.954 33.584C316.954 31.52 318.442 29.744 319.93 28.688V28.496C318.106 27.104 316.426 24.608 316.426 21.44C316.426 15.488 321.178 11.984 326.65 11.984C328.138 11.984 329.482 12.272 330.49 12.656H339.85V16.784H334.81C335.818 17.84 336.538 19.616 336.538 21.632C336.538 27.392 332.17 30.704 326.65 30.704C325.45 30.704 324.106 30.416 322.954 29.888C322.09 30.656 321.514 31.376 321.514 32.672C321.514 34.256 322.57 35.264 325.93 35.264H330.778C337.018 35.264 340.282 37.184 340.282 41.696C340.282 46.784 334.906 50.912 326.458 50.912ZM320.218 43.136C320.218 45.728 322.906 47.264 327.274 47.264C331.882 47.264 334.954 45.008 334.954 42.56C334.954 40.352 333.226 39.68 330.01 39.68H326.026C324.778 39.68 323.578 39.536 322.474 39.296C320.89 40.448 320.218 41.792 320.218 43.136ZM321.658 21.44C321.658 24.992 323.914 27.152 326.65 27.152C329.386 27.152 331.642 24.992 331.642 21.44C331.642 17.936 329.434 15.872 326.65 15.872C323.866 15.872 321.658 17.888 321.658 21.44ZM351.424 39.68C346.864 39.68 343.648 36.704 343.648 32.048C343.648 26.384 348.448 23.456 359.44 22.256C359.392 19.184 358.288 16.496 354.4 16.496C351.616 16.496 349.024 17.744 346.768 19.184L344.704 15.44C347.44 13.712 351.136 11.984 355.36 11.984C361.936 11.984 364.96 16.16 364.96 23.168V39.056H360.448L360.016 36.032H359.824C357.424 38.096 354.592 39.68 351.424 39.68ZM348.976 31.664C348.976 34.256 350.752 35.312 353.104 35.312C355.408 35.312 357.28 34.208 359.44 32.24V25.76C351.616 26.672 348.976 28.688 348.976 31.664ZM372.793 0.799998H378.217V25.424H378.409L388.633 12.656H394.777L385.849 23.408L395.785 39.056H389.785L382.633 27.104L378.217 32.192V39.056H372.793V0.799998ZM408.179 39.68C402.515 39.68 400.067 35.984 400.067 29.264V12.656H405.587V28.592C405.587 33.104 406.883 34.928 410.003 34.928C412.451 34.928 414.131 33.776 416.339 30.992V12.656H421.859V39.056H417.347L416.915 35.072H416.771C414.371 37.856 411.779 39.68 408.179 39.68ZM430.168 12.656H435.688V39.056H430.168V12.656ZM429.496 4.4C429.496 2.432 430.888 1.136 432.904 1.136C434.92 1.136 436.36 2.432 436.36 4.4C436.36 6.416 434.92 7.712 432.904 7.712C430.888 7.712 429.496 6.416 429.496 4.4ZM443.949 12.656H448.461L448.893 16.304H449.037C451.485 13.952 454.173 11.984 457.773 11.984C463.389 11.984 465.885 15.728 465.885 22.448V39.056H460.365V23.12C460.365 18.56 459.021 16.736 455.901 16.736C453.453 16.736 451.773 17.984 449.469 20.336V39.056H443.949V12.656ZM491.903 47.696C481.247 47.696 472.415 41.024 472.415 28.064C472.415 13.376 483.071 3.776 495.503 3.776C506.639 3.776 513.695 11.264 513.695 22.112C513.695 31.664 507.551 36.56 502.415 36.56C499.439 36.56 497.087 35.168 496.655 32.48H496.511C494.879 34.544 492.287 36.128 489.983 36.128C486.143 36.128 483.263 33.296 483.263 28.352C483.263 22.352 487.583 15.632 493.823 15.632C495.647 15.632 497.135 16.448 498.095 18.272H498.191L498.863 16.064H502.415L500.159 27.152C499.199 31.136 500.159 32.96 502.943 32.96C506.303 32.96 509.999 28.928 509.999 22.304C509.999 13.856 505.151 7.328 495.071 7.328C485.615 7.328 476.351 15.44 476.351 27.872C476.351 38.48 483.359 44.144 492.335 44.144C495.455 44.144 498.527 43.184 500.879 41.84L502.271 45.008C499.055 46.832 495.695 47.696 491.903 47.696ZM487.583 28.064C487.583 31.184 489.071 32.48 491.087 32.48C492.479 32.48 493.919 31.664 495.647 29.552L497.087 21.344C496.223 19.904 495.311 19.328 493.919 19.328C490.031 19.328 487.583 24.224 487.583 28.064ZM529.567 50.912C523.231 50.912 518.623 48.56 518.623 43.952C518.623 41.744 520.015 39.68 522.463 38.192V37.952C521.119 37.136 520.063 35.744 520.063 33.584C520.063 31.52 521.551 29.744 523.039 28.688V28.496C521.215 27.104 519.535 24.608 519.535 21.44C519.535 15.488 524.287 11.984 529.759 11.984C531.247 11.984 532.591 12.272 533.599 12.656H542.959V16.784H537.919C538.927 17.84 539.647 19.616 539.647 21.632C539.647 27.392 535.279 30.704 529.759 30.704C528.559 30.704 527.215 30.416 526.063 29.888C525.199 30.656 524.623 31.376 524.623 32.672C524.623 34.256 525.679 35.264 529.039 35.264H533.887C540.127 35.264 543.391 37.184 543.391 41.696C543.391 46.784 538.015 50.912 529.567 50.912ZM523.327 43.136C523.327 45.728 526.015 47.264 530.383 47.264C534.991 47.264 538.063 45.008 538.063 42.56C538.063 40.352 536.335 39.68 533.119 39.68H529.135C527.887 39.68 526.687 39.536 525.583 39.296C523.999 40.448 523.327 41.792 523.327 43.136ZM524.767 21.44C524.767 24.992 527.023 27.152 529.759 27.152C532.495 27.152 534.751 24.992 534.751 21.44C534.751 17.936 532.543 15.872 529.759 15.872C526.975 15.872 524.767 17.888 524.767 21.44ZM548.293 12.656H552.805L553.237 16.352H553.381C555.637 13.952 558.277 11.984 561.541 11.984C565.477 11.984 567.685 13.808 568.837 16.832C571.429 14.048 574.117 11.984 577.429 11.984C582.949 11.984 585.541 15.728 585.541 22.448V39.056H580.021V23.12C580.021 18.56 578.581 16.736 575.605 16.736C573.781 16.736 571.861 17.936 569.653 20.336V39.056H564.133V23.12C564.133 18.56 562.741 16.736 559.717 16.736C557.941 16.736 555.973 17.936 553.813 20.336V39.056H548.293V12.656ZM599.768 39.68C595.208 39.68 591.992 36.704 591.992 32.048C591.992 26.384 596.792 23.456 607.784 22.256C607.736 19.184 606.632 16.496 602.744 16.496C599.96 16.496 597.368 17.744 595.112 19.184L593.048 15.44C595.784 13.712 599.48 11.984 603.704 11.984C610.28 11.984 613.304 16.16 613.304 23.168V39.056H608.792L608.36 36.032H608.168C605.768 38.096 602.936 39.68 599.768 39.68ZM597.32 31.664C597.32 34.256 599.096 35.312 601.448 35.312C603.752 35.312 605.624 34.208 607.784 32.24V25.76C599.96 26.672 597.32 28.688 597.32 31.664ZM621.137 12.656H626.657V39.056H621.137V12.656ZM620.465 4.4C620.465 2.432 621.857 1.136 623.873 1.136C625.889 1.136 627.329 2.432 627.329 4.4C627.329 6.416 625.889 7.712 623.873 7.712C621.857 7.712 620.465 6.416 620.465 4.4ZM640.39 39.68C636.406 39.68 634.918 37.136 634.918 32.864V0.799998H640.438V33.152C640.438 34.64 641.062 35.168 641.734 35.168C641.974 35.168 642.166 35.168 642.646 35.072L643.366 39.248C642.694 39.488 641.782 39.68 640.39 39.68ZM652.191 39.68C650.127 39.68 648.495 38.096 648.495 35.84C648.495 33.536 650.127 31.904 652.191 31.904C654.255 31.904 655.887 33.536 655.887 35.84C655.887 38.096 654.255 39.68 652.191 39.68ZM674.264 39.68C667.112 39.68 661.64 34.64 661.64 25.856C661.64 17.072 667.736 11.984 674.696 11.984C678.056 11.984 680.504 13.328 682.424 15.008L679.688 18.608C678.248 17.312 676.76 16.544 674.984 16.544C670.52 16.544 667.352 20.288 667.352 25.856C667.352 31.472 670.424 35.168 674.792 35.168C677 35.168 678.968 34.112 680.552 32.768L682.856 36.416C680.408 38.576 677.288 39.68 674.264 39.68ZM698.869 39.68C692.341 39.68 686.437 34.64 686.437 25.856C686.437 17.072 692.341 11.984 698.869 11.984C705.397 11.984 711.301 17.072 711.301 25.856C711.301 34.64 705.397 39.68 698.869 39.68ZM692.149 25.856C692.149 31.472 694.741 35.168 698.869 35.168C703.045 35.168 705.637 31.472 705.637 25.856C705.637 20.288 703.045 16.544 698.869 16.544C694.741 16.544 692.149 20.288 692.149 25.856ZM717.793 12.656H722.305L722.737 16.352H722.881C725.137 13.952 727.777 11.984 731.041 11.984C734.977 11.984 737.185 13.808 738.337 16.832C740.929 14.048 743.617 11.984 746.929 11.984C752.449 11.984 755.041 15.728 755.041 22.448V39.056H749.521V23.12C749.521 18.56 748.081 16.736 745.105 16.736C743.281 16.736 741.361 17.936 739.153 20.336V39.056H733.633V23.12C733.633 18.56 732.241 16.736 729.217 16.736C727.441 16.736 725.473 17.936 723.313 20.336V39.056H717.793V12.656Z" fill="white"/>
</svg>
