<svg width="1009" height="608" viewBox="0 0 1009 608" fill="none" xmlns="http://www.w3.org/2000/svg">
<g filter="url(#filter0_d_32_2)">
<rect x="5" width="1000" height="600" fill="#3F49AB"/>
</g>
<line x1="3.87868" y1="59.8787" x2="55.8787" y2="7.87868" stroke="#FFC021" stroke-width="6"/>
<line x1="2.87868" y1="99.8787" x2="98.8787" y2="3.87867" stroke="#FFC021" stroke-width="6"/>
<line x1="3.87868" y1="79.8787" x2="76.8787" y2="6.87868" stroke="#FFC021" stroke-width="6"/>
<path d="M660 44.4195C660 43.3452 660.466 42.8081 661.397 42.8081H662.428C663.173 42.8081 663.91 43.1519 664.641 43.8394L671.408 50.2632C673.456 52.1968 675.275 53.9657 676.865 55.5699C678.469 57.174 680.088 57.9761 681.721 57.9761C683.354 57.9761 684.55 57.5679 685.309 56.7515C686.082 55.9494 686.469 54.9253 686.469 53.6792C686.469 51.7027 686.01 50.3277 685.094 49.5542C684.177 48.7808 683.196 48.2222 682.15 47.8784C681.133 47.549 680.768 46.9475 681.055 46.0738L681.785 43.9038C682.029 43.202 682.702 43.0015 683.805 43.3023C685.853 43.8609 687.607 44.9995 689.068 46.7183C690.544 48.437 691.281 50.9865 691.281 54.3667C691.281 57.8902 690.372 60.4468 688.553 62.0367C686.748 63.6265 684.786 64.4214 682.666 64.4214C679.887 64.4214 677.445 63.2613 675.34 60.9409C673.249 58.6206 671.208 56.5152 669.217 54.6245L665.371 50.9722H665.242C665.299 51.8316 665.328 52.5477 665.328 53.1206V63.1538C665.328 64.2281 664.863 64.7652 663.932 64.7652H661.397C660.466 64.7652 660 64.2281 660 63.1538V44.4195ZM675.275 67.2694C681.076 67.2694 685.194 68.1717 687.629 69.9764C690.064 71.7811 691.281 74.5454 691.281 78.2694C691.281 81.9934 690.064 84.7577 687.629 86.5624C685.194 88.3671 681.076 89.2694 675.275 89.2694C669.475 89.2694 665.357 88.3671 662.922 86.5624C660.487 84.7577 659.27 81.9934 659.27 78.2694C659.27 74.5454 660.487 71.7811 662.922 69.9764C665.357 68.1717 669.475 67.2694 675.275 67.2694ZM675.275 73.6288C672.626 73.6288 670.076 73.8436 667.627 74.2733C665.178 74.7173 663.953 76.0493 663.953 78.2694C663.953 80.4894 665.178 81.8143 667.627 82.244C670.076 82.688 672.626 82.91 675.275 82.91C677.925 82.91 680.475 82.688 682.924 82.244C685.373 81.8143 686.598 80.4894 686.598 78.2694C686.598 76.0493 685.373 74.7173 682.924 74.2733C680.475 73.8436 677.925 73.6288 675.275 73.6288ZM660 93.342C660 92.2678 660.466 91.7306 661.397 91.7306H662.428C663.173 91.7306 663.91 92.0744 664.641 92.7619L671.408 99.1857C673.456 101.119 675.275 102.888 676.865 104.492C678.469 106.097 680.088 106.899 681.721 106.899C683.354 106.899 684.55 106.49 685.309 105.674C686.082 104.872 686.469 103.848 686.469 102.602C686.469 100.625 686.01 99.2502 685.094 98.4767C684.177 97.7033 683.196 97.1447 682.15 96.801C681.133 96.4715 680.768 95.87 681.055 94.9963L681.785 92.8264C682.029 92.1245 682.702 91.924 683.805 92.2248C685.853 92.7834 687.607 93.9221 689.068 95.6408C690.544 97.3596 691.281 99.909 691.281 103.289C691.281 106.813 690.372 109.369 688.553 110.959C686.748 112.549 684.786 113.344 682.666 113.344C679.887 113.344 677.445 112.184 675.34 109.863C673.249 107.543 671.208 105.438 669.217 103.547L665.371 99.8947H665.242C665.299 100.754 665.328 101.47 665.328 102.043V112.076C665.328 113.151 664.863 113.688 663.932 113.688H661.397C660.466 113.688 660 113.151 660 112.076V93.342ZM666.703 117.03C666.703 116.099 667.169 115.633 668.1 115.633H670.936C671.752 115.633 672.461 115.848 673.063 116.278L689.82 128.18C690.565 128.71 690.938 129.376 690.938 130.178V133.336C690.938 134.282 690.472 134.754 689.541 134.754H672.031V137.354C672.031 138.285 671.566 138.751 670.635 138.751H668.1C667.169 138.751 666.703 138.292 666.703 137.376V134.754H661.397C660.466 134.754 660 134.289 660 133.358V130.135C660 129.204 660.466 128.739 661.397 128.739H666.703V117.03ZM672.031 121.627V128.739H680.346C680.919 128.739 681.492 128.767 682.064 128.825V128.739L672.031 121.627Z" fill="#FFC021"/>
<path d="M333.406 86C331.948 86 331.219 85.2188 331.219 83.6562V43.5312C331.219 41.9688 331.948 41.1875 333.406 41.1875H338.156C339.615 41.1875 340.344 41.9688 340.344 43.5312V55.9688C340.344 57.2188 340.292 58.4688 340.188 59.7188H340.406L355.594 43.0312C356.719 41.8021 357.677 41.1875 358.469 41.1875H364.75C367.188 41.1875 367.583 42.0833 365.938 43.875L351.719 59.4375L366.938 83.3125C368.083 85.1042 367.688 86 365.75 86H359.906C358.823 86 357.885 85.3854 357.094 84.1562L345.594 66.125L340.344 72.0312V83.6562C340.344 85.2188 339.615 86 338.156 86H333.406ZM371.469 63.5938C371.469 56.4062 373.323 50.6979 377.031 46.4688C380.74 42.2396 386.031 40.125 392.906 40.125C399.781 40.125 405.073 42.2396 408.781 46.4688C412.49 50.6979 414.344 56.4062 414.344 63.5938C414.344 70.7812 412.49 76.4896 408.781 80.7188C405.073 84.9479 399.781 87.0625 392.906 87.0625C386.031 87.0625 380.74 84.9479 377.031 80.7188C373.323 76.4896 371.469 70.7812 371.469 63.5938ZM381.219 63.5938C381.219 68.8021 382.146 72.7917 384 75.5625C385.875 78.3125 388.844 79.6875 392.906 79.6875C396.969 79.6875 399.927 78.3125 401.781 75.5625C403.656 72.7917 404.594 68.8021 404.594 63.5938C404.594 58.3854 403.656 54.4062 401.781 51.6562C399.927 48.8854 396.969 47.5 392.906 47.5C388.844 47.5 385.875 48.8854 384 51.6562C382.146 54.4062 381.219 58.3854 381.219 63.5938ZM419.719 63.5938C419.719 56.4062 421.594 50.6979 425.344 46.4688C429.094 42.2396 434.406 40.125 441.281 40.125C445.427 40.125 448.677 40.6562 451.031 41.7188C453.406 42.7812 455.49 44.4271 457.281 46.6562C458.365 48.0104 458.333 49.0625 457.188 49.8125L453.625 52.125C452.583 52.8125 451.469 52.5104 450.281 51.2188C449.302 50.1562 448.062 49.2708 446.562 48.5625C445.062 47.8542 443.406 47.5 441.594 47.5C437.219 47.5 434.104 48.8854 432.25 51.6562C430.396 54.4062 429.469 58.3854 429.469 63.5938C429.469 68.8021 430.396 72.7917 432.25 75.5625C434.104 78.3125 437.219 79.6875 441.594 79.6875C443.719 79.6875 445.552 79.4792 447.094 79.0625C448.635 78.625 450.094 77.8438 451.469 76.7188V71.125H444.688C443.125 71.125 442.344 70.4479 442.344 69.0938V65.4062C442.344 64.0521 443.125 63.375 444.688 63.375H458.25C459.812 63.375 460.594 64.0521 460.594 65.4062V81.2812C457.677 83.4271 454.729 84.9271 451.75 85.7812C448.792 86.6354 445.302 87.0625 441.281 87.0625C434.51 87.0625 429.219 84.9479 425.406 80.7188C421.615 76.4896 419.719 70.7812 419.719 63.5938ZM467.688 86C466.188 86 465.698 85.3125 466.219 83.9375L481.531 43.7188C482.177 42.0312 483.156 41.1875 484.469 41.1875H488.844C490.156 41.1875 491.135 42.0312 491.781 43.7188L507.094 83.9375C507.615 85.3125 507.125 86 505.625 86H500.656C499.281 86 498.323 85.2812 497.781 83.8438L494.594 75.4375H478.719L475.531 83.8438C474.99 85.2812 474.031 86 472.656 86H467.688ZM481.625 67.6875H491.688L487.844 57.75C487.385 56.5833 487.104 55.7396 487 55.2188C486.917 54.6771 486.823 53.8854 486.719 52.8438H486.594C486.49 53.8854 486.385 54.6771 486.281 55.2188C486.198 55.7396 485.927 56.5833 485.469 57.75L481.625 67.6875ZM514.844 86C513.385 86 512.656 85.2188 512.656 83.6562V43.5312C512.656 41.9688 513.385 41.1875 514.844 41.1875H519.594C521.052 41.1875 521.781 41.9688 521.781 43.5312V55.9688C521.781 57.2188 521.729 58.4688 521.625 59.7188H521.844L537.031 43.0312C538.156 41.8021 539.115 41.1875 539.906 41.1875H546.188C548.625 41.1875 549.021 42.0833 547.375 43.875L533.156 59.4375L548.375 83.3125C549.521 85.1042 549.125 86 547.188 86H541.344C540.26 86 539.323 85.3854 538.531 84.1562L527.031 66.125L521.781 72.0312V83.6562C521.781 85.2188 521.052 86 519.594 86H514.844ZM555.219 67.3438V42.9062C555.219 41.7604 555.948 41.1875 557.406 41.1875H562.156C563.615 41.1875 564.344 41.7604 564.344 42.9062V67.0312C564.344 72.6562 565.167 76.1771 566.812 77.5938C568.479 78.9896 570.354 79.6875 572.438 79.6875C574.521 79.6875 576.385 78.9896 578.031 77.5938C579.698 76.1771 580.531 72.6562 580.531 67.0312V42.9062C580.531 41.7604 581.26 41.1875 582.719 41.1875H587.469C588.927 41.1875 589.656 41.7604 589.656 42.9062V67.3438C589.656 74.6354 588.115 79.75 585.031 82.6875C581.948 85.6042 577.75 87.0625 572.438 87.0625C567.125 87.0625 562.927 85.6042 559.844 82.6875C556.76 79.75 555.219 74.6354 555.219 67.3438ZM601.844 86C600.385 86 599.656 85.2188 599.656 83.6562V43.5312C599.656 41.9688 600.385 41.1875 601.844 41.1875H606.594C608.052 41.1875 608.781 41.9688 608.781 43.5312V83.6562C608.781 85.2188 608.052 86 606.594 86H601.844ZM620.969 86C619.51 86 618.781 85.2188 618.781 83.6562V43.5312C618.781 41.9688 619.51 41.1875 620.969 41.1875H625.594C627.385 41.1875 628.74 41.9167 629.656 43.375L645.594 68.9688H645.812C645.708 67.7188 645.656 66.4688 645.656 65.2188V43.5312C645.656 41.9688 646.385 41.1875 647.844 41.1875H652.594C654.052 41.1875 654.781 41.9688 654.781 43.5312V83.6562C654.781 85.2188 654.052 86 652.594 86H648.281C646.49 86 645.135 85.2708 644.219 83.8125L627.969 57.75H627.75C627.854 59 627.906 60.25 627.906 61.5V83.6562C627.906 85.2188 627.177 86 625.719 86H620.969ZM333.1 139C332.058 139 331.538 138.427 331.538 137.281V95.9062C331.538 94.7604 332.058 94.1875 333.1 94.1875H335.975C337.017 94.1875 337.538 94.7604 337.538 95.9062V113.125H359.35V95.9062C359.35 94.7604 359.871 94.1875 360.913 94.1875H363.788C364.829 94.1875 365.35 94.7604 365.35 95.9062V137.281C365.35 138.427 364.829 139 363.788 139H360.913C359.871 139 359.35 138.427 359.35 137.281V118.25H337.538V137.281C337.538 138.427 337.017 139 335.975 139H333.1ZM367.325 139C366.242 139 365.96 138.312 366.481 136.938L382.044 96.0938C382.523 94.8229 383.21 94.1875 384.106 94.1875H388.481C389.377 94.1875 390.065 94.8229 390.544 96.0938L406.106 136.938C406.627 138.312 406.346 139 405.263 139H402.075C400.971 139 400.221 138.49 399.825 137.469L395.919 127.125H376.669L372.763 137.469C372.367 138.49 371.617 139 370.513 139H367.325ZM378.638 122H393.95L389.169 109.5C388.731 108.333 388.294 107.042 387.856 105.625C387.44 104.208 386.94 102.198 386.356 99.5938H386.231C385.648 102.198 385.138 104.208 384.7 105.625C384.283 107.042 383.856 108.333 383.419 109.5L378.638 122ZM403.238 116.594C403.238 109.302 405.04 103.594 408.644 99.4688C412.269 95.3229 417.467 93.25 424.238 93.25C428.196 93.25 431.467 93.9271 434.05 95.2812C436.633 96.6146 438.488 98.4479 439.613 100.781C440.196 101.99 440.102 102.823 439.331 103.281L436.863 104.719C436.029 105.198 435.29 104.802 434.644 103.531C433.956 102.219 432.831 100.99 431.269 99.8438C429.706 98.6979 427.467 98.125 424.55 98.125C419.342 98.125 415.55 99.75 413.175 103C410.821 106.229 409.644 110.76 409.644 116.594C409.644 122.427 410.821 126.969 413.175 130.219C415.55 133.448 419.342 135.062 424.55 135.062C427.55 135.062 429.946 134.375 431.738 133C433.55 131.625 434.863 130.188 435.675 128.688C436.321 127.479 437.071 127.115 437.925 127.594L440.519 129.062C441.269 129.5 441.331 130.333 440.706 131.562C439.477 133.958 437.477 135.958 434.706 137.562C431.935 139.146 428.446 139.938 424.238 139.938C417.467 139.938 412.269 137.875 408.644 133.75C405.04 129.604 403.238 123.885 403.238 116.594ZM444.65 139C443.608 139 443.088 138.427 443.088 137.281V95.9062C443.088 94.7604 443.608 94.1875 444.65 94.1875H447.525C448.567 94.1875 449.088 94.7604 449.088 95.9062V114.281C449.088 115.115 449.067 115.948 449.025 116.781H449.15L470.025 95.4062C470.817 94.5938 471.546 94.1875 472.213 94.1875H475.994C477.723 94.1875 477.91 94.875 476.556 96.25L460.681 112.438L477.4 136.938C478.317 138.312 478.129 139 476.838 139H473.025C472.108 139 471.379 138.594 470.838 137.781L456.556 116.688L449.088 124.281V137.281C449.088 138.427 448.567 139 447.525 139H444.65ZM475.938 139C474.854 139 474.573 138.312 475.094 136.938L490.656 96.0938C491.135 94.8229 491.823 94.1875 492.719 94.1875H497.094C497.99 94.1875 498.677 94.8229 499.156 96.0938L514.719 136.938C515.24 138.312 514.958 139 513.875 139H510.688C509.583 139 508.833 138.49 508.438 137.469L504.531 127.125H485.281L481.375 137.469C480.979 138.49 480.229 139 479.125 139H475.938ZM487.25 122H502.562L497.781 109.5C497.344 108.333 496.906 107.042 496.469 105.625C496.052 104.208 495.552 102.198 494.969 99.5938H494.844C494.26 102.198 493.75 104.208 493.312 105.625C492.896 107.042 492.469 108.333 492.031 109.5L487.25 122ZM506.069 99.5625C504.923 99.5625 504.35 99.0938 504.35 98.1562V95.5938C504.35 94.6562 504.923 94.1875 506.069 94.1875H539.131C540.277 94.1875 540.85 94.6562 540.85 95.5938V98.1562C540.85 99.0938 540.277 99.5625 539.131 99.5625H525.6V137.281C525.6 138.427 525.079 139 524.038 139H521.163C520.121 139 519.6 138.427 519.6 137.281V99.5625H506.069ZM542.45 139C541.408 139 540.888 138.427 540.888 137.281V95.9062C540.888 94.7604 541.408 94.1875 542.45 94.1875H545.325C546.367 94.1875 546.888 94.7604 546.888 95.9062V113.125H568.7V95.9062C568.7 94.7604 569.221 94.1875 570.263 94.1875H573.138C574.179 94.1875 574.7 94.7604 574.7 95.9062V137.281C574.7 138.427 574.179 139 573.138 139H570.263C569.221 139 568.7 138.427 568.7 137.281V118.25H546.888V137.281C546.888 138.427 546.367 139 545.325 139H542.45ZM576.487 116.594C576.487 109.302 578.279 103.594 581.862 99.4688C585.467 95.3229 590.654 93.25 597.425 93.25C604.196 93.25 609.373 95.3229 612.956 99.4688C616.56 103.594 618.362 109.302 618.362 116.594C618.362 123.885 616.56 129.604 612.956 133.75C609.373 137.875 604.196 139.938 597.425 139.938C590.654 139.938 585.467 137.875 581.862 133.75C578.279 129.604 576.487 123.885 576.487 116.594ZM582.894 116.594C582.894 122.427 584.092 126.969 586.487 130.219C588.883 133.448 592.529 135.062 597.425 135.062C602.321 135.062 605.967 133.448 608.362 130.219C610.758 126.969 611.956 122.427 611.956 116.594C611.956 110.76 610.758 106.229 608.362 103C605.967 99.75 602.321 98.125 597.425 98.125C592.529 98.125 588.883 99.75 586.487 103C584.092 106.229 582.894 110.76 582.894 116.594ZM621.712 139C620.671 139 620.15 138.427 620.15 137.281V95.9062C620.15 94.7604 620.671 94.1875 621.712 94.1875H625.712C627.171 94.1875 628.212 94.7083 628.837 95.75L648.4 128.531H648.525C648.483 127.698 648.462 126.865 648.462 126.031V95.9062C648.462 94.7604 648.983 94.1875 650.025 94.1875H652.9C653.942 94.1875 654.462 94.7604 654.462 95.9062V137.281C654.462 138.427 653.942 139 652.9 139H650.15C648.692 139 647.65 138.479 647.025 137.438L626.212 102.656H626.087C626.129 103.49 626.15 104.323 626.15 105.156V137.281C626.15 138.427 625.629 139 624.587 139H621.712Z" fill="#FFC021"/>
<rect x="4" y="171" width="1001" height="429" fill="#FFFCF4"/>
<path d="M534.2 536.16H559.864V540.16H534.2V536.16ZM532.408 556.8H561.688V560.672H532.408V556.8ZM544.664 538.336H549.048V558.336H544.664V538.336ZM569.496 543.776H584.248V547.072H569.496V543.776ZM563.768 550.944H592.408V554.496H563.768V550.944ZM576.088 548.896H580.024V558.784C580.024 560.768 579.544 561.76 578.008 562.336C576.504 562.848 574.456 562.912 571.736 562.912C571.48 561.824 570.776 560.192 570.168 559.2C572.216 559.264 574.616 559.264 575.256 559.264C575.896 559.264 576.088 559.104 576.088 558.656V548.896ZM583 543.776H583.96L584.76 543.584L587.192 545.44C584.984 547.808 581.816 550.304 578.68 551.808C578.232 551.168 577.208 550.112 576.632 549.6C579.096 548.32 581.816 546.048 583 544.48V543.776ZM564.152 537.92H592.056V545.76H588.248V541.312H567.768V545.76H564.152V537.92ZM586.328 533.056L590.488 534.272C589.016 536.384 587.352 538.56 586.04 539.968L582.904 538.816C584.12 537.248 585.56 534.848 586.328 533.056ZM566.296 534.624L569.56 533.152C570.712 534.4 571.992 536.128 572.504 537.376L569.016 538.976C568.568 537.792 567.384 535.968 566.296 534.624ZM574.36 533.92L577.752 532.64C578.776 534.048 579.864 536 580.28 537.28L576.632 538.688C576.312 537.408 575.32 535.392 574.36 533.92ZM612.312 532.992H616.056V538.016H612.312V532.992ZM605.208 536.352H623.736V542.656H620.184V539.616H608.6V542.688H605.208V536.352ZM607.576 542.208H621.272V545.504H607.576V542.208ZM605.656 547.808H623.608V551.232H605.656V547.808ZM609.272 549.472H612.92C612.632 556.352 611.672 560.576 604.792 562.88C604.472 561.952 603.512 560.544 602.776 559.84C608.568 558.112 609.08 555.04 609.272 549.472ZM615.16 549.088H618.776V558.176C618.776 559.104 618.84 559.232 619.256 559.232C619.448 559.232 620.12 559.232 620.344 559.232C620.856 559.232 620.952 558.72 621.016 555.456C621.72 556.032 623.256 556.64 624.216 556.864C623.896 561.376 623 562.592 620.76 562.592C620.184 562.592 619.128 562.592 618.616 562.592C615.8 562.592 615.16 561.504 615.16 558.208V549.088ZM595.352 534.208H602.904V537.632H598.712V562.912H595.352V534.208ZM601.72 534.208H602.36L602.904 534.08L605.4 535.488C604.568 538.24 603.512 541.728 602.584 544.224C604.568 546.72 604.952 548.864 604.952 550.72C604.952 552.8 604.536 554.144 603.512 554.848C603 555.2 602.392 555.424 601.688 555.52C601.112 555.584 600.344 555.616 599.608 555.616C599.576 554.688 599.288 553.248 598.776 552.32C599.352 552.352 599.768 552.384 600.152 552.352C600.504 552.352 600.824 552.288 601.048 552.096C601.432 551.808 601.592 551.168 601.592 550.272C601.592 548.768 601.176 546.784 599.352 544.64C600.248 541.76 601.272 537.344 601.72 535.296V534.208ZM625.912 541.44H654.392V545.408H625.912V541.44ZM642.328 543.04C644.248 550.368 648.312 556.448 655.096 559.136C654.136 560 652.856 561.664 652.216 562.784C644.888 559.36 640.888 552.736 638.456 543.936L642.328 543.04ZM637.912 532.832H642.136C641.976 542.592 641.912 556.16 628.184 562.784C627.576 561.728 626.392 560.352 625.272 559.52C638.392 553.664 637.816 541.504 637.912 532.832ZM662.616 543.776H677.368V547.072H662.616V543.776ZM656.888 550.944H685.528V554.496H656.888V550.944ZM669.208 548.896H673.144V558.784C673.144 560.768 672.664 561.76 671.128 562.336C669.624 562.848 667.576 562.912 664.856 562.912C664.6 561.824 663.896 560.192 663.288 559.2C665.336 559.264 667.736 559.264 668.376 559.264C669.016 559.264 669.208 559.104 669.208 558.656V548.896ZM676.12 543.776H677.08L677.88 543.584L680.312 545.44C678.104 547.808 674.936 550.304 671.8 551.808C671.352 551.168 670.328 550.112 669.752 549.6C672.216 548.32 674.936 546.048 676.12 544.48V543.776ZM657.272 537.92H685.176V545.76H681.368V541.312H660.888V545.76H657.272V537.92ZM679.448 533.056L683.608 534.272C682.136 536.384 680.472 538.56 679.16 539.968L676.024 538.816C677.24 537.248 678.68 534.848 679.448 533.056ZM659.416 534.624L662.68 533.152C663.832 534.4 665.112 536.128 665.624 537.376L662.136 538.976C661.688 537.792 660.504 535.968 659.416 534.624ZM667.48 533.92L670.872 532.64C671.896 534.048 672.984 536 673.4 537.28L669.752 538.688C669.432 537.408 668.44 535.392 667.48 533.92ZM705.24 543.424H717.176V546.976H705.24V543.424ZM687.896 536H702.296V539.136H687.896V536ZM687.576 548.736H702.264V551.968H687.576V548.736ZM687.48 543.136H702.552V546.304H687.48V543.136ZM710.424 544.96H714.136V562.72H710.424V544.96ZM693.24 533.088H696.984V537.408H693.24V533.088ZM693.24 546.112H696.984V562.848H693.24V546.112ZM703.512 535.36L707.992 536.608C707.96 536.928 707.736 537.088 707.16 537.184V546.592C707.16 551.36 706.552 558.432 702.2 562.944C701.72 562.112 700.312 560.8 699.448 560.32C703.16 556.384 703.512 550.912 703.512 546.528V535.36ZM713.976 533.152L717.048 535.936C713.784 537.408 709.432 538.496 705.688 539.2C705.496 538.368 704.952 537.024 704.504 536.288C707.928 535.52 711.704 534.368 713.976 533.152ZM696.696 552.096C697.688 552.704 700.76 555.104 701.528 555.744L699.32 558.496C698.264 557.216 695.832 554.816 694.648 553.76L696.696 552.096ZM689.496 539.616L692.44 538.912C693.016 540.064 693.464 541.632 693.624 542.688L690.488 543.52C690.424 542.464 690.008 540.832 689.496 539.616ZM697.464 538.848L700.856 539.488C700.248 540.96 699.704 542.336 699.224 543.328L696.184 542.688C696.632 541.6 697.176 539.968 697.464 538.848ZM693.272 550.624L695.992 551.616C694.424 555.136 691.768 558.816 689.208 560.896C688.6 560.064 687.48 558.784 686.68 558.176C689.208 556.544 691.864 553.44 693.272 550.624ZM731.224 532.864H735.16V537.376H731.224V532.864ZM719.512 535.328H747V541.024H743.064V538.784H723.288V541.504H719.512V535.328ZM728.696 541.664H747.224V545.024H728.696V541.664ZM731.576 552.928H744.024V556.032H731.576V552.928ZM731.576 558.592H744.024V561.856H731.576V558.592ZM729.816 547.392H746.04V562.912H742.264V550.656H733.464V562.944H729.816V547.392ZM735.8 543.328L740.088 544.288C739.32 546.4 738.552 548.576 737.944 550.048L734.552 549.12C735.032 547.52 735.576 545.12 735.8 543.328ZM725.432 539.616L728.984 540.8C726.872 545.344 723.448 549.92 719.96 552.736C719.544 551.904 718.424 549.984 717.752 549.12C720.792 546.912 723.736 543.328 725.432 539.616ZM722.616 546.272L725.976 542.88L726.232 543.008V562.88H722.616V546.272ZM759.928 537.152C759.736 536.256 759.512 535.488 759.256 534.752L763.8 534.016C763.864 534.624 763.992 535.712 764.12 536.48C764.44 538.592 767.608 554.784 768.28 558.048C768.504 558.976 768.792 560.128 769.08 561.184L764.472 561.984C764.312 560.8 764.248 559.712 764.024 558.752C763.544 555.872 760.44 539.744 759.928 537.152ZM751.192 541.248C752.184 541.184 753.144 541.12 754.168 540.992C756.888 540.672 768.088 538.944 770.968 538.368C771.96 538.208 773.176 537.92 773.944 537.696L774.744 541.92C774.04 541.952 772.728 542.144 771.768 542.272C768.376 542.816 757.368 544.576 754.968 544.992C753.976 545.184 753.144 545.376 752.056 545.664L751.192 541.248ZM751.224 550.624C752.056 550.592 753.528 550.432 754.52 550.272C757.944 549.792 769.624 547.904 773.304 547.2C774.552 546.976 775.736 546.688 776.6 546.464L777.432 550.688C776.568 550.752 775.256 550.976 774.072 551.168C770.008 551.776 758.488 553.664 755.32 554.272C753.944 554.528 752.824 554.72 752.12 554.912L751.224 550.624ZM792.12 539.68C792.216 540.448 792.44 541.28 792.632 542.112C793.72 545.952 796.728 556.96 797.528 559.616C797.688 560.192 798.136 561.6 798.36 562.24L794.04 563.328C793.912 562.464 793.72 561.408 793.464 560.512C792.664 557.728 789.752 546.304 788.728 542.976C788.504 542.176 788.152 541.376 787.8 540.704L792.12 539.68ZM807.48 544.64C806.104 547.424 802.904 552.256 800.664 554.624L797.112 552.864C798.776 551.392 800.984 548.704 801.848 547.136C800.184 547.424 787.16 550.144 784.536 550.72L783.544 546.912C784.536 546.816 785.432 546.72 786.488 546.528C788.216 546.272 801.016 543.84 803.288 543.328C803.832 543.2 804.472 543.008 804.888 542.816L807.48 544.64ZM818.072 535.68C820.28 537.184 824.44 540.512 826.328 542.464L823.064 545.792C821.4 544 817.368 540.512 815.032 538.912L818.072 535.68ZM814.04 556.992C819.064 556.288 823.192 554.656 826.296 552.832C831.768 549.568 835.928 544.704 837.976 540.384L840.44 544.864C838.04 549.216 833.784 553.632 828.632 556.736C825.368 558.688 821.24 560.448 816.76 561.216L814.04 556.992ZM867.032 536.992C867.032 538.016 867.864 538.848 868.888 538.848C869.88 538.848 870.712 538.016 870.712 536.992C870.712 535.968 869.88 535.136 868.888 535.136C867.864 535.136 867.032 535.968 867.032 536.992ZM865.048 536.992C865.048 534.88 866.776 533.152 868.888 533.152C870.968 533.152 872.696 534.88 872.696 536.992C872.696 539.104 870.968 540.832 868.888 540.832C866.776 540.832 865.048 539.104 865.048 536.992ZM847.544 550.048C848.952 546.496 850.168 541.984 850.584 537.888L855.224 538.88C854.968 539.776 854.584 541.344 854.456 542.08C854.008 544.32 852.856 548.704 851.736 551.68C850.584 554.784 848.696 558.432 847.032 560.832L842.552 558.944C844.536 556.32 846.424 552.896 847.544 550.048ZM863.32 549.408C862.104 546.048 860.056 541.312 858.68 538.88L862.936 537.504C864.28 539.968 866.456 544.896 867.672 547.968C868.824 550.88 870.52 555.968 871.384 559.136L866.648 560.672C865.784 556.896 864.6 552.864 863.32 549.408ZM899.096 538.336C898.84 538.688 898.264 539.648 897.976 540.32C896.664 543.36 894.296 547.712 891.544 550.912C887.96 555.04 883.128 559.008 878.168 561.344L874.84 557.888C880.024 555.968 884.952 552.064 887.96 548.736C890.072 546.336 892.024 543.168 892.76 540.896C891.416 540.896 883.256 540.896 881.88 540.896C880.568 540.896 878.808 541.056 878.104 541.12V536.544C878.968 536.672 880.952 536.768 881.88 536.768C883.576 536.768 891.768 536.768 893.176 536.768C894.584 536.768 895.832 536.608 896.504 536.384L899.096 538.336ZM891.96 548.256C895.256 550.944 899.8 555.712 901.88 558.272L898.232 561.44C895.864 558.144 892.376 554.336 888.952 551.232L891.96 548.256Z" fill="black"/>
<path d="M510.14 493.92H519.84V495.82H510.14V493.92ZM509.84 497.34H520.16V499.3H509.84V497.34ZM515.84 494.52H517.94V503.44H515.84V494.52ZM511.94 494.6H513.98V498.44C513.98 499.72 513.44 502.36 511.34 503.8C511.02 503.38 510.3 502.74 509.8 502.42C511.5 501.38 511.94 499.44 511.94 498.42V494.6ZM507.76 488.52H512.8V490.08H507.76V488.52ZM517.04 488.52H522.1V490.08H517.04V488.52ZM521.16 485.78H523.52V501.02C523.52 502.22 523.3 502.9 522.58 503.3C521.84 503.7 520.8 503.76 519.26 503.74C519.2 503.1 518.88 501.98 518.56 501.36C519.44 501.4 520.44 501.4 520.74 501.4C521.06 501.4 521.16 501.28 521.16 500.98V485.78ZM507.98 485.78H514.32V492.9H507.98V491.18H512.06V487.5H507.98V485.78ZM522.38 485.78V487.5H517.9V491.22H522.38V492.94H515.62V485.78H522.38ZM506.56 485.78H508.92V503.8H506.56V485.78ZM536.16 485.16H538.54V489.34H536.16V485.16ZM537.08 493.44H539.38V502.08H537.08V493.44ZM531.72 485.72H533.9V488.1H540.96V485.72H543.28V490.12H531.72V485.72ZM533.16 489.96L535.44 490.62C534.44 492.96 532.8 495.32 531.18 496.8C530.78 496.36 529.9 495.5 529.38 495.12C530.94 493.9 532.34 491.94 533.16 489.96ZM532.28 492.1H543.46V493.96H534.58V503.76H532.28V492.1ZM537.88 490.08L540.36 490.64C539.8 491.74 539.22 492.86 538.76 493.6L536.92 493.08C537.28 492.22 537.68 490.98 537.88 490.08ZM533.54 495.16H542.92V496.9H533.54V495.16ZM533.54 498.16H542.92V499.88H533.54V498.16ZM533.52 501.16H543.72V503.04H533.52V501.16ZM529.14 485.1L531.4 485.8C530.1 489.22 528.02 492.82 525.84 495.1C525.62 494.52 524.98 493.2 524.56 492.62C526.38 490.8 528.12 487.96 529.14 485.1ZM527.2 490.62L529.48 488.34L529.5 488.36V503.78H527.2V490.62ZM550.54 493.08H563.2V495.1H550.54V493.08ZM552.72 496.06H560.94V497.94H552.72V496.06ZM553.48 493.82L555.54 494.34C554.52 496.66 552.72 498.66 550.82 499.9C550.48 499.5 549.68 498.78 549.22 498.46C551.06 497.42 552.66 495.76 553.48 493.82ZM560.56 496.06H562.8C562.8 496.06 562.78 496.6 562.74 496.88C562.46 500.8 562.14 502.42 561.6 503.02C561.22 503.46 560.78 503.62 560.26 503.68C559.8 503.74 559.04 503.76 558.22 503.74C558.2 503.16 558 502.34 557.7 501.84C558.32 501.9 558.86 501.92 559.12 501.92C559.4 501.92 559.56 501.88 559.72 501.68C560.04 501.32 560.34 499.94 560.56 496.38V496.06ZM554.42 489.7V490.66H559.6V489.7H554.42ZM554.42 487.18V488.14H559.6V487.18H554.42ZM552.3 485.52H561.82V492.32H552.3V485.52ZM544.68 489.22H550.8V491.5H544.68V489.22ZM546.7 485.26H548.94V497.7H546.7V485.26ZM544.24 498.12C545.78 497.54 548.22 496.52 550.54 495.52L551.04 497.58C549.04 498.62 546.88 499.7 545.12 500.54L544.24 498.12ZM558.28 496.44L559.9 497.32C559.14 499.72 557.46 502.5 555.68 503.88C555.26 503.42 554.56 502.88 553.96 502.54C555.9 501.34 557.54 498.76 558.28 496.44ZM555.24 496.46L556.82 497.4C555.82 499.46 553.72 501.78 551.82 503C551.44 502.5 550.8 501.92 550.24 501.58C552.22 500.58 554.28 498.42 555.24 496.46ZM564.26 486H573.14V488.18H564.26V486ZM574.78 491.8H582.64V494.1H574.78V491.8ZM578.46 493.42H580.84V503.82H578.46V493.42ZM573.82 486.8L576.7 487.48C576.68 487.68 576.54 487.78 576.18 487.84V492.38C576.18 495.62 575.72 500.56 572.54 503.78C572.22 503.26 571.32 502.44 570.76 502.16C573.56 499.32 573.82 495.34 573.82 492.36V486.8ZM564.9 489.68H567.18V494.8C567.18 497.5 566.9 501.38 565.34 503.84C564.96 503.42 563.96 502.66 563.46 502.4C564.78 500.24 564.9 497.1 564.9 494.78V489.68ZM580.4 485.22L582.5 487.02C580.36 488.08 577.54 488.9 575.1 489.44C574.96 488.9 574.58 488.02 574.28 487.52C576.52 486.96 578.96 486.08 580.4 485.22ZM566.22 489.68H572.72V496.52H566.22V494.38H570.4V491.84H566.22V489.68Z" fill="#3F49AB"/>
<path d="M142.184 562C141.207 562 140.719 561.577 140.719 560.73V559.793C140.719 559.116 141.031 558.445 141.656 557.781L147.496 551.629C149.254 549.767 150.862 548.113 152.32 546.668C153.779 545.21 154.508 543.738 154.508 542.254C154.508 540.77 154.137 539.682 153.395 538.992C152.665 538.289 151.734 537.938 150.602 537.938C148.805 537.938 147.555 538.354 146.852 539.188C146.148 540.021 145.641 540.913 145.328 541.863C145.029 542.788 144.482 543.12 143.688 542.859L141.715 542.195C141.077 541.974 140.895 541.362 141.168 540.359C141.676 538.497 142.711 536.902 144.273 535.574C145.836 534.233 148.154 533.562 151.227 533.562C154.43 533.562 156.754 534.389 158.199 536.043C159.645 537.684 160.367 539.467 160.367 541.395C160.367 543.921 159.312 546.141 157.203 548.055C155.094 549.956 153.18 551.811 151.461 553.621L148.141 557.117V557.234C148.922 557.182 149.573 557.156 150.094 557.156H159.215C160.191 557.156 160.68 557.579 160.68 558.426V560.73C160.68 561.577 160.191 562 159.215 562H142.184ZM162.956 548.113C162.956 542.84 163.777 539.096 165.417 536.883C167.058 534.669 169.571 533.562 172.956 533.562C176.342 533.562 178.855 534.669 180.495 536.883C182.136 539.096 182.956 542.84 182.956 548.113C182.956 553.387 182.136 557.13 180.495 559.344C178.855 561.557 176.342 562.664 172.956 562.664C169.571 562.664 167.058 561.557 165.417 559.344C163.777 557.13 162.956 553.387 162.956 548.113ZM168.737 548.113C168.737 550.522 168.933 552.84 169.323 555.066C169.727 557.293 170.938 558.406 172.956 558.406C174.974 558.406 176.179 557.293 176.57 555.066C176.973 552.84 177.175 550.522 177.175 548.113C177.175 545.704 176.973 543.387 176.57 541.16C176.179 538.934 174.974 537.82 172.956 537.82C170.938 537.82 169.727 538.934 169.323 541.16C168.933 543.387 168.737 545.704 168.737 548.113ZM186.659 562C185.682 562 185.194 561.577 185.194 560.73V559.793C185.194 559.116 185.506 558.445 186.131 557.781L191.971 551.629C193.729 549.767 195.337 548.113 196.795 546.668C198.254 545.21 198.983 543.738 198.983 542.254C198.983 540.77 198.612 539.682 197.87 538.992C197.14 538.289 196.209 537.938 195.077 537.938C193.28 537.938 192.03 538.354 191.327 539.188C190.623 540.021 190.116 540.913 189.803 541.863C189.504 542.788 188.957 543.12 188.162 542.859L186.19 542.195C185.552 541.974 185.37 541.362 185.643 540.359C186.151 538.497 187.186 536.902 188.748 535.574C190.311 534.233 192.629 533.562 195.702 533.562C198.905 533.562 201.229 534.389 202.674 536.043C204.12 537.684 204.842 539.467 204.842 541.395C204.842 543.921 203.787 546.141 201.678 548.055C199.569 549.956 197.655 551.811 195.936 553.621L192.616 557.117V557.234C193.397 557.182 194.048 557.156 194.569 557.156H203.69C204.666 557.156 205.155 557.579 205.155 558.426V560.73C205.155 561.577 204.666 562 203.69 562H186.659ZM208.193 555.906C207.347 555.906 206.923 555.483 206.923 554.637V552.059C206.923 551.316 207.119 550.672 207.509 550.125L218.33 534.891C218.811 534.214 219.417 533.875 220.146 533.875H223.017C223.877 533.875 224.306 534.298 224.306 535.145V551.062H226.67C227.516 551.062 227.939 551.486 227.939 552.332V554.637C227.939 555.483 227.522 555.906 226.689 555.906H224.306V560.73C224.306 561.577 223.883 562 223.037 562H220.107C219.261 562 218.838 561.577 218.838 560.73V555.906H208.193ZM212.373 551.062H218.838V543.504C218.838 542.983 218.864 542.462 218.916 541.941H218.838L212.373 551.062ZM229.044 569.383C228.432 569.148 228.269 568.667 228.555 567.938L241.524 534.148C241.811 533.419 242.253 533.172 242.852 533.406L244.434 534.012C245.046 534.246 245.209 534.728 244.923 535.457L231.954 569.246C231.667 569.975 231.225 570.223 230.626 569.988L229.044 569.383ZM245.949 555.906C245.103 555.906 244.68 555.483 244.68 554.637V552.059C244.68 551.316 244.875 550.672 245.266 550.125L256.086 534.891C256.568 534.214 257.173 533.875 257.902 533.875H260.773C261.633 533.875 262.062 534.298 262.062 535.145V551.062H264.426C265.272 551.062 265.695 551.486 265.695 552.332V554.637C265.695 555.483 265.279 555.906 264.445 555.906H262.062V560.73C262.062 561.577 261.639 562 260.793 562H257.863C257.017 562 256.594 561.577 256.594 560.73V555.906H245.949ZM250.129 551.062H256.594V543.504C256.594 542.983 256.62 542.462 256.672 541.941H256.594L250.129 551.062ZM266.8 569.383C266.188 569.148 266.025 568.667 266.312 567.938L279.28 534.148C279.567 533.419 280.01 533.172 280.609 533.406L282.191 534.012C282.803 534.246 282.965 534.728 282.679 535.457L269.71 569.246C269.424 569.975 268.981 570.223 268.382 569.988L266.8 569.383ZM284.409 562C283.432 562 282.944 561.577 282.944 560.73V559.793C282.944 559.116 283.256 558.445 283.881 557.781L289.721 551.629C291.479 549.767 293.087 548.113 294.545 546.668C296.004 545.21 296.733 543.738 296.733 542.254C296.733 540.77 296.362 539.682 295.62 538.992C294.89 538.289 293.959 537.938 292.827 537.938C291.03 537.938 289.78 538.354 289.077 539.188C288.373 540.021 287.866 540.913 287.553 541.863C287.254 542.788 286.707 543.12 285.913 542.859L283.94 542.195C283.302 541.974 283.12 541.362 283.393 540.359C283.901 538.497 284.936 536.902 286.498 535.574C288.061 534.233 290.379 533.562 293.452 533.562C296.655 533.562 298.979 534.389 300.424 536.043C301.87 537.684 302.592 539.467 302.592 541.395C302.592 543.921 301.538 546.141 299.428 548.055C297.319 549.956 295.405 551.811 293.686 553.621L290.366 557.117V557.234C291.147 557.182 291.798 557.156 292.319 557.156H301.44C302.416 557.156 302.905 557.579 302.905 558.426V560.73C302.905 561.577 302.416 562 301.44 562H284.409ZM306.353 539.07C305.507 539.07 305.084 538.647 305.084 537.801V535.496C305.084 534.65 305.507 534.227 306.353 534.227H322.291C323.137 534.227 323.56 534.65 323.56 535.496V537.703C323.56 538.367 323.235 539.064 322.584 539.793C319.914 542.801 318.046 545.802 316.978 548.797C315.91 551.792 315.377 555.405 315.377 559.637V560.848C315.377 561.694 314.953 562.117 314.107 562.117H311.177C310.331 562.117 309.908 561.694 309.908 560.848V560.32C309.908 555.62 310.683 551.668 312.232 548.465C313.795 545.262 315.865 542.13 318.443 539.07V538.992C317.922 539.044 317.401 539.07 316.88 539.07H306.353ZM326.208 549.617C325.804 549.409 325.693 549.057 325.876 548.562C326.462 546.974 327.256 545.802 328.259 545.047C329.261 544.292 330.687 543.914 332.536 543.914C334.229 543.914 335.934 544.604 337.653 545.984C339.372 547.365 340.72 548.055 341.696 548.055C342.673 548.055 343.382 547.853 343.825 547.449C344.268 547.046 344.658 546.544 344.997 545.945C345.335 545.359 345.674 545.164 346.012 545.359L347.302 546.062C347.705 546.271 347.816 546.622 347.634 547.117C347.048 548.706 346.253 549.878 345.251 550.633C344.248 551.388 342.822 551.766 340.973 551.766C339.281 551.766 337.575 551.076 335.856 549.695C334.137 548.315 332.79 547.625 331.813 547.625C330.837 547.625 330.127 547.827 329.684 548.23C329.242 548.634 328.851 549.135 328.512 549.734C328.174 550.32 327.835 550.516 327.497 550.32L326.208 549.617ZM350.965 562C349.988 562 349.5 561.577 349.5 560.73V559.793C349.5 559.116 349.812 558.445 350.438 557.781L356.277 551.629C358.035 549.767 359.643 548.113 361.102 546.668C362.56 545.21 363.289 543.738 363.289 542.254C363.289 540.77 362.918 539.682 362.176 538.992C361.447 538.289 360.516 537.938 359.383 537.938C357.586 537.938 356.336 538.354 355.633 539.188C354.93 540.021 354.422 540.913 354.109 541.863C353.81 542.788 353.263 543.12 352.469 542.859L350.496 542.195C349.858 541.974 349.676 541.362 349.949 540.359C350.457 538.497 351.492 536.902 353.055 535.574C354.617 534.233 356.935 533.562 360.008 533.562C363.211 533.562 365.535 534.389 366.98 536.043C368.426 537.684 369.148 539.467 369.148 541.395C369.148 543.921 368.094 546.141 365.984 548.055C363.875 549.956 361.961 551.811 360.242 553.621L356.922 557.117V557.234C357.703 557.182 358.354 557.156 358.875 557.156H367.996C368.973 557.156 369.461 557.579 369.461 558.426V560.73C369.461 561.577 368.973 562 367.996 562H350.965ZM371.698 554.52C371.698 552.28 372.382 550.542 373.749 549.305C375.129 548.055 376.314 547.293 377.304 547.02V546.922C376.197 546.57 375.116 545.88 374.062 544.852C373.02 543.81 372.499 542.443 372.499 540.75C372.499 538.719 373.32 537.013 374.96 535.633C376.614 534.253 378.873 533.562 381.738 533.562C384.602 533.562 386.855 534.253 388.495 535.633C390.149 537.013 390.976 538.719 390.976 540.75C390.976 542.443 390.448 543.81 389.394 544.852C388.352 545.88 387.278 546.57 386.171 546.922V547.02C387.161 547.293 388.339 548.055 389.706 549.305C391.086 550.542 391.777 552.28 391.777 554.52C391.777 556.928 390.989 558.888 389.413 560.398C387.851 561.909 385.292 562.664 381.738 562.664C378.183 562.664 375.618 561.909 374.042 560.398C372.48 558.888 371.698 556.928 371.698 554.52ZM377.558 553.934C377.558 555.405 377.883 556.499 378.534 557.215C379.185 557.931 380.253 558.289 381.738 558.289C383.222 558.289 384.29 557.931 384.941 557.215C385.592 556.499 385.917 555.405 385.917 553.934C385.917 552.814 385.559 551.785 384.843 550.848C384.14 549.897 383.105 549.422 381.738 549.422C380.37 549.422 379.329 549.897 378.613 550.848C377.909 551.785 377.558 552.814 377.558 553.934ZM378.202 541.336C378.202 542.378 378.495 543.198 379.081 543.797C379.68 544.396 380.566 544.695 381.738 544.695C382.909 544.695 383.788 544.396 384.374 543.797C384.973 543.198 385.273 542.378 385.273 541.336C385.273 540.294 384.96 539.467 384.335 538.855C383.723 538.243 382.857 537.938 381.738 537.938C380.618 537.938 379.745 538.243 379.12 538.855C378.508 539.467 378.202 540.294 378.202 541.336Z" fill="black"/>
<path d="M117.14 493.92H126.84V495.82H117.14V493.92ZM116.84 497.34H127.16V499.3H116.84V497.34ZM122.84 494.52H124.94V503.44H122.84V494.52ZM118.94 494.6H120.98V498.44C120.98 499.72 120.44 502.36 118.34 503.8C118.02 503.38 117.3 502.74 116.8 502.42C118.5 501.38 118.94 499.44 118.94 498.42V494.6ZM114.76 488.52H119.8V490.08H114.76V488.52ZM124.04 488.52H129.1V490.08H124.04V488.52ZM128.16 485.78H130.52V501.02C130.52 502.22 130.3 502.9 129.58 503.3C128.84 503.7 127.8 503.76 126.26 503.74C126.2 503.1 125.88 501.98 125.56 501.36C126.44 501.4 127.44 501.4 127.74 501.4C128.06 501.4 128.16 501.28 128.16 500.98V485.78ZM114.98 485.78H121.32V492.9H114.98V491.18H119.06V487.5H114.98V485.78ZM129.38 485.78V487.5H124.9V491.22H129.38V492.94H122.62V485.78H129.38ZM113.56 485.78H115.92V503.8H113.56V485.78ZM143.16 485.16H145.54V489.34H143.16V485.16ZM144.08 493.44H146.38V502.08H144.08V493.44ZM138.72 485.72H140.9V488.1H147.96V485.72H150.28V490.12H138.72V485.72ZM140.16 489.96L142.44 490.62C141.44 492.96 139.8 495.32 138.18 496.8C137.78 496.36 136.9 495.5 136.38 495.12C137.94 493.9 139.34 491.94 140.16 489.96ZM139.28 492.1H150.46V493.96H141.58V503.76H139.28V492.1ZM144.88 490.08L147.36 490.64C146.8 491.74 146.22 492.86 145.76 493.6L143.92 493.08C144.28 492.22 144.68 490.98 144.88 490.08ZM140.54 495.16H149.92V496.9H140.54V495.16ZM140.54 498.16H149.92V499.88H140.54V498.16ZM140.52 501.16H150.72V503.04H140.52V501.16ZM136.14 485.1L138.4 485.8C137.1 489.22 135.02 492.82 132.84 495.1C132.62 494.52 131.98 493.2 131.56 492.62C133.38 490.8 135.12 487.96 136.14 485.1ZM134.2 490.62L136.48 488.34L136.5 488.36V503.78H134.2V490.62ZM153.86 486.22H167.82V503.54H165.24V488.64H156.34V503.56H153.86V486.22ZM155.56 492.94H166.32V495.32H155.56V492.94ZM155.54 499.84H166.32V502.26H155.54V499.84ZM178.76 487.14H188.98V489.22H178.76V487.14ZM178.08 490.98H189.58V493.1H178.08V490.98ZM178.12 494.8H189.44V496.9H178.12V494.8ZM182.62 485H184.98V492.34H182.62V485ZM185.16 492.98H187.5V501.26C187.5 502.42 187.28 503.04 186.5 503.38C185.7 503.74 184.62 503.78 183.12 503.78C183.04 503.12 182.68 502.16 182.36 501.54C183.34 501.58 184.44 501.58 184.74 501.56C185.06 501.56 185.16 501.5 185.16 501.22V492.98ZM178.92 498.24L180.84 497.14C181.78 498.12 182.84 499.44 183.28 500.42L181.22 501.62C180.84 500.68 179.84 499.26 178.92 498.24ZM172.58 486.24H177.74V499.92H172.58V497.78H175.5V488.38H172.58V486.24ZM172.7 491.92H176.58V494.02H172.7V491.92ZM171.46 486.24H173.68V501.7H171.46V486.24Z" fill="#3F49AB"/>
<path d="M152.96 343.536H174.144V350.448H160.512V384.432H152.96V343.536ZM199.04 358.704C202.752 359.088 206.4 359.28 210.304 359.28C218.112 359.28 226.112 358.64 232.768 357.232V365.168C226.048 366.192 217.984 366.704 210.304 366.768C206.528 366.768 202.88 366.64 199.104 366.384L199.04 358.704ZM223.424 347.952C223.232 349.168 223.104 350.704 223.04 352.048C222.912 354.16 222.784 358.576 222.784 363.184C222.784 374.96 223.808 383.28 223.808 389.36C223.808 396.08 220.48 400.944 211.264 400.944C202.368 400.944 196.864 397.296 196.864 390.576C196.864 384.048 202.368 379.568 211.136 379.568C223.168 379.568 230.912 385.584 235.904 390.192L231.552 396.912C224.192 390.064 217.728 385.776 210.496 385.776C206.848 385.776 204.352 387.248 204.352 389.68C204.352 392.304 206.912 393.456 210.368 393.456C214.272 393.456 215.616 391.408 215.616 387.632C215.616 383.216 214.784 372.464 214.784 363.248C214.784 358.384 214.72 354.096 214.656 352.176C214.656 351.152 214.464 349.168 214.272 347.952H223.424ZM192.192 348.592C191.68 349.872 190.912 353.2 190.656 354.352C189.696 358.64 187.584 372.72 187.584 379.12C187.584 380.336 187.648 382 187.84 383.28C188.736 381.04 189.824 378.864 190.72 376.688L194.688 379.824C192.896 385.136 190.784 391.6 190.08 395.12C189.888 396.016 189.696 397.424 189.76 398.064C189.76 398.768 189.76 399.856 189.824 400.752L182.592 401.264C181.312 396.848 180.032 389.488 180.032 380.848C180.032 371.184 181.952 359.088 182.72 354.16C182.976 352.368 183.232 349.872 183.296 347.888L192.192 348.592ZM275.392 352.816C277.184 355.504 280 360.112 281.472 363.056L275.712 365.552C273.792 361.52 272.192 358.448 269.824 355.12L275.392 352.816ZM283.968 349.296C285.888 351.856 288.768 356.4 290.24 359.28L284.672 361.968C282.624 357.936 280.832 354.992 278.464 351.792L283.968 349.296ZM258.88 347.632C258.496 350.384 258.176 353.648 258.048 356.208C257.792 363.056 257.28 377.392 257.28 385.328C257.28 391.792 261.12 393.904 266.112 393.904C276.672 393.904 283.392 387.824 288 380.848L293.824 387.952C289.664 394.032 280.64 402.608 266.048 402.608C255.552 402.608 248.768 398 248.768 387.056C248.768 378.48 249.408 361.648 249.408 356.208C249.408 353.136 249.152 350.064 248.576 347.568L258.88 347.632ZM342.976 347.824C342.4 349.616 341.824 352.752 341.44 354.288C338.752 365.616 334.592 378.928 328.448 386.672C322.56 394.096 318.464 397.424 312.576 397.424C307.264 397.424 302.4 392.944 302.4 384.688C302.4 376.112 307.328 366.96 314.816 362.16C321.664 357.744 328.128 356.144 334.976 356.144C348.16 356.144 357.632 365.04 357.632 378.352C357.632 391.92 347.968 399.728 334.592 401.776L329.728 394.352C343.808 393.136 349.312 385.968 349.312 377.968C349.312 369.264 343.36 363.248 334.144 363.248C327.488 363.248 322.304 365.68 317.824 368.944C312.832 372.464 309.888 378.736 309.888 383.984C309.888 387.12 311.232 389.104 313.472 389.104C316.8 389.104 320.32 385.008 323.648 379.952C328.576 372.72 332.288 360.944 333.632 353.072C333.952 351.216 334.144 348.528 334.08 346.992L342.976 347.824ZM315.968 349.936C316.288 352.112 316.8 354.224 317.312 356.08C319.296 363.248 322.688 373.04 325.632 377.648C327.808 381.104 330.816 385.136 333.824 387.952L327.296 393.136C324.8 390.32 322.88 387.888 320.832 384.624C316.928 378.928 313.088 368.688 310.144 359.216C309.44 356.976 308.672 354.928 307.52 352.624L315.968 349.936ZM364.864 354.032C367.36 353.968 369.92 353.84 371.136 353.712C376.512 353.2 387.008 352.304 398.784 351.28C405.376 350.704 412.352 350.32 416.896 350.128L416.96 358.384C413.504 358.384 408 358.448 404.544 359.216C396.864 361.264 391.04 369.584 391.04 377.136C391.04 387.696 400.896 391.472 411.712 392.048L408.768 400.816C395.328 399.984 382.656 392.752 382.656 378.864C382.656 369.648 387.84 362.416 392.192 359.152C386.176 359.792 373.12 361.136 365.696 362.8L364.864 354.032ZM460.224 354.16C459.328 360.688 458.048 368.176 455.808 375.728C451.968 388.656 446.464 396.592 439.488 396.592C432.32 396.592 426.432 388.72 426.432 377.904C426.432 363.184 439.296 350.512 455.872 350.512C471.68 350.512 481.728 361.52 481.728 375.536C481.728 388.976 473.472 398.512 457.344 401.008L452.48 393.456C454.976 393.136 456.768 392.816 458.496 392.432C466.624 390.448 473.024 384.624 473.024 375.216C473.024 365.168 466.752 358 455.68 358C442.112 358 434.688 369.072 434.688 377.136C434.688 383.6 437.248 386.736 439.68 386.736C442.432 386.736 444.864 382.64 447.552 374C449.408 367.984 450.816 360.624 451.456 353.904L460.224 354.16ZM497.6 376.944C500.416 369.776 502.848 360.752 503.68 352.624L512.96 354.544C512.448 356.336 511.744 359.472 511.424 360.944C510.592 365.424 508.224 374.192 505.984 380.208C503.744 386.416 499.904 393.648 496.576 398.448L487.616 394.672C491.584 389.488 495.36 382.576 497.6 376.944ZM529.152 375.6C526.72 368.88 522.624 359.408 519.872 354.544L528.384 351.792C531.072 356.72 535.424 366.576 537.856 372.784C540.16 378.544 543.552 388.784 545.28 395.12L535.872 398.192C534.08 390.576 531.712 382.512 529.152 375.6ZM578.816 360.048C580.032 362.736 583.168 371.12 584.064 374.064L576.448 376.688C575.616 373.616 572.8 365.872 571.264 362.544L578.816 360.048ZM602.432 364.656C601.728 366.768 601.344 368.112 600.96 369.392C599.296 375.856 596.544 382.512 592.192 388.08C586.24 395.824 578.304 401.136 570.816 404.016L564.096 397.168C571.072 395.248 580.032 390.384 585.28 383.728C589.632 378.352 592.768 369.84 593.472 361.776L602.432 364.656ZM563.968 363.376C565.568 366.64 568.704 374.448 569.92 378.032L562.112 380.912C561.088 377.52 557.824 368.944 556.288 366.192L563.968 363.376ZM642.688 346.672C642.496 348.208 642.304 350.896 642.24 352.432C641.536 377.84 635.52 390.832 621.376 400.88L613.888 394.864C616.576 393.392 619.776 391.28 622.336 388.656C630.72 380.336 633.664 369.456 633.728 352.56C633.728 351.152 633.472 348.208 633.216 346.672H642.688ZM664.384 360.432C664.192 361.456 664 363.056 664 363.76C663.744 370.736 662.912 388.592 660.16 395.12C658.816 398.32 656.32 400.048 651.968 400.048C648.256 400.048 644.48 399.728 641.344 399.472L640.32 390.96C643.52 391.472 646.784 391.856 649.344 391.856C651.392 391.856 652.288 391.152 652.928 389.552C654.784 385.52 655.68 372.72 655.68 365.808H624.448C622.272 365.808 618.688 365.872 616 366.128V357.68C618.688 358 621.952 358.128 624.384 358.128H654.016C655.68 358.128 657.344 358 658.88 357.68L664.384 360.432ZM686.272 394.288C696.64 390 703.552 383.6 708.16 376.88C712.96 370.032 714.752 362.864 715.776 357.552C716.352 354.672 716.608 351.408 716.544 349.872L726.912 351.28C726.208 353.712 725.44 356.912 725.056 358.768C723.392 366.256 720.832 374.064 716.16 381.232C711.168 388.912 704.064 395.952 693.952 400.88L686.272 394.288ZM684.992 350.128C688.128 354.672 693.632 364.464 696 368.944L687.616 373.68C684.416 366.832 679.68 358.512 676.736 354.352L684.992 350.128ZM748.224 349.36C752.64 352.368 760.96 359.024 764.736 362.928L758.208 369.584C754.88 366 746.816 359.024 742.144 355.824L748.224 349.36ZM740.16 391.984C750.208 390.576 758.464 387.312 764.672 383.664C775.616 377.136 783.936 367.408 788.032 358.768L792.96 367.728C788.16 376.432 779.648 385.264 769.344 391.472C762.816 395.376 754.56 398.896 745.6 400.432L740.16 391.984ZM817.856 403.888H796.672V396.976H810.304V362.992H817.856V403.888Z" fill="black"/>
<path d="M116.02 307.68C116.66 307.76 117.48 307.82 118.16 307.82C119.42 307.82 125.02 307.82 126.2 307.82C126.86 307.82 127.66 307.76 128.34 307.68V310.26C127.66 310.22 126.88 310.18 126.2 310.18C125.02 310.18 119.42 310.18 118.16 310.18C117.48 310.18 116.62 310.22 116.02 310.26V307.68ZM113.68 312.78C114.28 312.86 114.98 312.9 115.6 312.9C116.86 312.9 127.52 312.9 128.7 312.9C129.12 312.9 130 312.88 130.54 312.78V315.38C130.02 315.36 129.26 315.34 128.7 315.34C127.52 315.34 116.86 315.34 115.6 315.34C115.02 315.34 114.24 315.36 113.68 315.4V312.78ZM123.92 314.18C123.92 316.8 123.46 318.8 122.6 320.46C121.92 321.86 120.36 323.4 118.6 324.32L116.24 322.62C117.66 322.06 119.08 320.92 119.86 319.74C120.86 318.22 121.14 316.34 121.14 314.2L123.92 314.18ZM133.22 313.74C133.96 313.8 135.4 313.88 136.44 313.88C138.8 313.88 145.4 313.88 147.18 313.88C148.12 313.88 149 313.78 149.54 313.74V316.9C149.06 316.88 148.04 316.78 147.2 316.78C145.38 316.78 138.8 316.78 136.44 316.78C135.32 316.78 133.98 316.84 133.22 316.9V313.74ZM169.84 310.4C169.56 310.72 169.32 311 169.16 311.24C167.6 313.82 164.64 317.42 161.54 319.7L159.54 317.86C162.18 316.02 164.42 313.3 165.46 311.46C163.7 311.46 156.42 311.46 154.9 311.46C154.08 311.46 153 311.56 152.58 311.62V308.8C153.12 308.9 154.2 309 154.9 309C156.16 309 163.84 309 165.98 309C166.76 309 167.42 308.92 167.86 308.78L169.84 310.4ZM159.3 320C158.12 318.82 156.08 317 154.9 316.16L157 314.44C158.08 315.26 160.08 316.88 161.6 318.34C162.92 319.62 164.5 321.28 165.46 322.44L163.1 324.32C162.28 323.2 160.6 321.32 159.3 320Z" fill="#3F49AB"/>
<path d="M117.391 233C116.297 233 115.75 232.414 115.75 231.242V201.148C115.75 199.977 116.297 199.391 117.391 199.391H120.953C122.047 199.391 122.594 199.977 122.594 201.148V210.477C122.594 211.414 122.555 212.352 122.477 213.289H122.641L134.031 200.773C134.875 199.852 135.594 199.391 136.188 199.391H140.898C142.727 199.391 143.023 200.062 141.789 201.406L131.125 213.078L142.539 230.984C143.398 232.328 143.102 233 141.648 233H137.266C136.453 233 135.75 232.539 135.156 231.617L126.531 218.094L122.594 222.523V231.242C122.594 232.414 122.047 233 120.953 233H117.391ZM144.497 216.195C144.497 210.805 145.888 206.523 148.669 203.352C151.451 200.18 155.419 198.594 160.576 198.594C165.732 198.594 169.701 200.18 172.482 203.352C175.263 206.523 176.654 210.805 176.654 216.195C176.654 221.586 175.263 225.867 172.482 229.039C169.701 232.211 165.732 233.797 160.576 233.797C155.419 233.797 151.451 232.211 148.669 229.039C145.888 225.867 144.497 221.586 144.497 216.195ZM151.81 216.195C151.81 220.102 152.505 223.094 153.896 225.172C155.302 227.234 157.529 228.266 160.576 228.266C163.622 228.266 165.841 227.234 167.232 225.172C168.638 223.094 169.341 220.102 169.341 216.195C169.341 212.289 168.638 209.305 167.232 207.242C165.841 205.164 163.622 204.125 160.576 204.125C157.529 204.125 155.302 205.164 153.896 207.242C152.505 209.305 151.81 212.289 151.81 216.195ZM179.245 216.195C179.245 210.805 180.651 206.523 183.464 203.352C186.276 200.18 190.261 198.594 195.417 198.594C198.526 198.594 200.964 198.992 202.729 199.789C204.511 200.586 206.073 201.82 207.417 203.492C208.229 204.508 208.206 205.297 207.347 205.859L204.675 207.594C203.893 208.109 203.058 207.883 202.167 206.914C201.433 206.117 200.503 205.453 199.378 204.922C198.253 204.391 197.011 204.125 195.651 204.125C192.37 204.125 190.034 205.164 188.643 207.242C187.253 209.305 186.558 212.289 186.558 216.195C186.558 220.102 187.253 223.094 188.643 225.172C190.034 227.234 192.37 228.266 195.651 228.266C197.245 228.266 198.62 228.109 199.776 227.797C200.933 227.469 202.026 226.883 203.058 226.039V221.844H197.972C196.8 221.844 196.214 221.336 196.214 220.32V217.555C196.214 216.539 196.8 216.031 197.972 216.031H208.143C209.315 216.031 209.901 216.539 209.901 217.555V229.461C207.714 231.07 205.503 232.195 203.268 232.836C201.05 233.477 198.433 233.797 195.417 233.797C190.339 233.797 186.37 232.211 183.511 229.039C180.667 225.867 179.245 221.586 179.245 216.195ZM213.782 233C212.657 233 212.289 232.484 212.68 231.453L224.164 201.289C224.649 200.023 225.383 199.391 226.368 199.391H229.649C230.633 199.391 231.368 200.023 231.852 201.289L243.336 231.453C243.727 232.484 243.36 233 242.235 233H238.508C237.477 233 236.758 232.461 236.352 231.383L233.961 225.078H222.055L219.664 231.383C219.258 232.461 218.539 233 217.508 233H213.782ZM224.235 219.266H231.782L228.899 211.812C228.555 210.938 228.344 210.305 228.266 209.914C228.203 209.508 228.133 208.914 228.055 208.133H227.961C227.883 208.914 227.805 209.508 227.727 209.914C227.664 210.305 227.461 210.938 227.118 211.812L224.235 219.266ZM247.709 233C246.615 233 246.068 232.414 246.068 231.242V201.148C246.068 199.977 246.615 199.391 247.709 199.391H251.271C252.365 199.391 252.912 199.977 252.912 201.148V210.477C252.912 211.414 252.873 212.352 252.795 213.289H252.959L264.349 200.773C265.193 199.852 265.912 199.391 266.506 199.391H271.217C273.045 199.391 273.342 200.062 272.107 201.406L261.443 213.078L272.857 230.984C273.717 232.328 273.42 233 271.967 233H267.584C266.771 233 266.068 232.539 265.474 231.617L256.849 218.094L252.912 222.523V231.242C252.912 232.414 252.365 233 251.271 233H247.709ZM276.55 219.008V200.68C276.55 199.82 277.097 199.391 278.191 199.391H281.753C282.847 199.391 283.394 199.82 283.394 200.68V218.773C283.394 222.992 284.011 225.633 285.245 226.695C286.495 227.742 287.902 228.266 289.464 228.266C291.027 228.266 292.425 227.742 293.659 226.695C294.909 225.633 295.534 222.992 295.534 218.773V200.68C295.534 199.82 296.081 199.391 297.175 199.391H300.738C301.831 199.391 302.378 199.82 302.378 200.68V219.008C302.378 224.477 301.222 228.312 298.909 230.516C296.597 232.703 293.448 233.797 289.464 233.797C285.48 233.797 282.331 232.703 280.019 230.516C277.706 228.312 276.55 224.477 276.55 219.008ZM310.079 233C308.985 233 308.438 232.414 308.438 231.242V201.148C308.438 199.977 308.985 199.391 310.079 199.391H313.641C314.735 199.391 315.282 199.977 315.282 201.148V231.242C315.282 232.414 314.735 233 313.641 233H310.079ZM322.982 233C321.889 233 321.342 232.414 321.342 231.242V201.148C321.342 199.977 321.889 199.391 322.982 199.391H326.451C327.795 199.391 328.811 199.938 329.498 201.031L341.451 220.227H341.615C341.537 219.289 341.498 218.352 341.498 217.414V201.148C341.498 199.977 342.045 199.391 343.139 199.391H346.701C347.795 199.391 348.342 199.977 348.342 201.148V231.242C348.342 232.414 347.795 233 346.701 233H343.467C342.123 233 341.107 232.453 340.42 231.359L328.232 211.812H328.068C328.147 212.75 328.186 213.688 328.186 214.625V231.242C328.186 232.414 327.639 233 326.545 233H322.982ZM371.009 233C369.915 233 369.368 232.414 369.368 231.242V201.148C369.368 199.977 369.915 199.391 371.009 199.391H374.571C375.665 199.391 376.212 199.977 376.212 201.148V212.609H388.821V201.148C388.821 199.977 389.368 199.391 390.462 199.391H394.024C395.118 199.391 395.665 199.977 395.665 201.148V231.242C395.665 232.414 395.118 233 394.024 233H390.462C389.368 233 388.821 232.414 388.821 231.242V218.422H376.212V231.242C376.212 232.414 375.665 233 374.571 233H371.009ZM400.67 233C399.545 233 399.178 232.484 399.569 231.453L411.053 201.289C411.538 200.023 412.272 199.391 413.256 199.391H416.538C417.522 199.391 418.256 200.023 418.741 201.289L430.225 231.453C430.616 232.484 430.248 233 429.123 233H425.397C424.366 233 423.647 232.461 423.241 231.383L420.85 225.078H408.944L406.553 231.383C406.147 232.461 405.428 233 404.397 233H400.67ZM411.123 219.266H418.67L415.788 211.812C415.444 210.938 415.233 210.305 415.155 209.914C415.092 209.508 415.022 208.914 414.944 208.133H414.85C414.772 208.914 414.694 209.508 414.616 209.914C414.553 210.305 414.35 210.938 414.006 211.812L411.123 219.266ZM431.223 216.195C431.223 210.805 432.59 206.523 435.324 203.352C438.058 200.18 442.004 198.594 447.16 198.594C450.129 198.594 452.644 199.055 454.707 199.977C456.769 200.898 458.223 202.234 459.066 203.984C459.629 205.141 459.535 205.922 458.785 206.328L455.973 207.828C454.988 208.359 454.176 208.062 453.535 206.938C453.129 206.219 452.371 205.57 451.262 204.992C450.168 204.414 448.879 204.125 447.394 204.125C444.113 204.125 441.816 205.164 440.504 207.242C439.191 209.305 438.535 212.289 438.535 216.195C438.535 220.102 439.191 223.094 440.504 225.172C441.816 227.234 444.113 228.266 447.394 228.266C449.16 228.266 450.644 227.867 451.848 227.07C453.066 226.273 453.91 225.516 454.379 224.797C455.144 223.625 455.957 223.328 456.816 223.906L459.629 225.781C460.394 226.297 460.473 227.078 459.863 228.125C458.957 229.688 457.402 231.023 455.199 232.133C452.996 233.242 450.316 233.797 447.16 233.797C442.082 233.797 438.152 232.211 435.371 229.039C432.605 225.867 431.223 221.586 431.223 216.195ZM466.392 233C465.298 233 464.751 232.414 464.751 231.242V201.148C464.751 199.977 465.298 199.391 466.392 199.391H469.954C471.048 199.391 471.595 199.977 471.595 201.148V210.477C471.595 211.414 471.556 212.352 471.478 213.289H471.642L483.033 200.773C483.876 199.852 484.595 199.391 485.189 199.391H489.9C491.728 199.391 492.025 200.062 490.79 201.406L480.126 213.078L491.54 230.984C492.4 232.328 492.103 233 490.65 233H486.267C485.454 233 484.751 232.539 484.158 231.617L475.533 218.094L471.595 222.523V231.242C471.595 232.414 471.048 233 469.954 233H466.392ZM494.178 233C493.053 233 492.686 232.484 493.077 231.453L504.561 201.289C505.046 200.023 505.78 199.391 506.764 199.391H510.046C511.03 199.391 511.764 200.023 512.249 201.289L523.733 231.453C524.124 232.484 523.757 233 522.632 233H518.905C517.874 233 517.155 232.461 516.749 231.383L514.358 225.078H502.452L500.061 231.383C499.655 232.461 498.936 233 497.905 233H494.178ZM504.632 219.266H512.178L509.296 211.812C508.952 210.938 508.741 210.305 508.663 209.914C508.6 209.508 508.53 208.914 508.452 208.133H508.358C508.28 208.914 508.202 209.508 508.124 209.914C508.061 210.305 507.858 210.938 507.514 211.812L504.632 219.266ZM521.192 205.391C520.02 205.391 519.434 204.883 519.434 203.867V200.914C519.434 199.898 520.02 199.391 521.192 199.391H545.285C546.457 199.391 547.043 199.898 547.043 200.914V203.867C547.043 204.883 546.457 205.391 545.285 205.391H536.66V231.711C536.66 232.57 536.27 233 535.488 233H530.988C530.207 233 529.817 232.57 529.817 231.711V205.391H521.192ZM551.791 233C550.697 233 550.15 232.414 550.15 231.242V201.148C550.15 199.977 550.697 199.391 551.791 199.391H555.353C556.447 199.391 556.994 199.977 556.994 201.148V212.609H569.603V201.148C569.603 199.977 570.15 199.391 571.244 199.391H574.806C575.9 199.391 576.447 199.977 576.447 201.148V231.242C576.447 232.414 575.9 233 574.806 233H571.244C570.15 233 569.603 232.414 569.603 231.242V218.422H556.994V231.242C556.994 232.414 556.447 233 555.353 233H551.791ZM580.772 216.195C580.772 210.805 582.163 206.523 584.944 203.352C587.726 200.18 591.694 198.594 596.851 198.594C602.007 198.594 605.976 200.18 608.757 203.352C611.538 206.523 612.929 210.805 612.929 216.195C612.929 221.586 611.538 225.867 608.757 229.039C605.976 232.211 602.007 233.797 596.851 233.797C591.694 233.797 587.726 232.211 584.944 229.039C582.163 225.867 580.772 221.586 580.772 216.195ZM588.085 216.195C588.085 220.102 588.78 223.094 590.171 225.172C591.577 227.234 593.804 228.266 596.851 228.266C599.897 228.266 602.116 227.234 603.507 225.172C604.913 223.094 605.616 220.102 605.616 216.195C605.616 212.289 604.913 209.305 603.507 207.242C602.116 205.164 599.897 204.125 596.851 204.125C593.804 204.125 591.577 205.164 590.171 207.242C588.78 209.305 588.085 212.289 588.085 216.195ZM618.895 233C617.801 233 617.254 232.414 617.254 231.242V201.148C617.254 199.977 617.801 199.391 618.895 199.391H622.364C623.707 199.391 624.723 199.938 625.411 201.031L637.364 220.227H637.528C637.45 219.289 637.411 218.352 637.411 217.414V201.148C637.411 199.977 637.957 199.391 639.051 199.391H642.614C643.707 199.391 644.254 199.977 644.254 201.148V231.242C644.254 232.414 643.707 233 642.614 233H639.379C638.036 233 637.02 232.453 636.332 231.359L624.145 211.812H623.981C624.059 212.75 624.098 213.688 624.098 214.625V231.242C624.098 232.414 623.551 233 622.457 233H618.895ZM665.351 233C664.179 233 663.593 232.492 663.593 231.477V230.352C663.593 229.539 663.968 228.734 664.718 227.938L671.726 220.555C673.835 218.32 675.765 216.336 677.515 214.602C679.265 212.852 680.14 211.086 680.14 209.305C680.14 207.523 679.695 206.219 678.804 205.391C677.929 204.547 676.812 204.125 675.453 204.125C673.296 204.125 671.796 204.625 670.953 205.625C670.109 206.625 669.499 207.695 669.124 208.836C668.765 209.945 668.109 210.344 667.156 210.031L664.788 209.234C664.023 208.969 663.804 208.234 664.132 207.031C664.742 204.797 665.984 202.883 667.859 201.289C669.734 199.68 672.515 198.875 676.203 198.875C680.046 198.875 682.835 199.867 684.57 201.852C686.304 203.82 687.171 205.961 687.171 208.273C687.171 211.305 685.906 213.969 683.374 216.266C680.843 218.547 678.546 220.773 676.484 222.945L672.499 227.141V227.281C673.437 227.219 674.218 227.188 674.843 227.188H685.788C686.96 227.188 687.546 227.695 687.546 228.711V231.477C687.546 232.492 686.96 233 685.788 233H665.351ZM690.278 216.336C690.278 210.008 691.263 205.516 693.231 202.859C695.2 200.203 698.216 198.875 702.278 198.875C706.341 198.875 709.356 200.203 711.325 202.859C713.294 205.516 714.278 210.008 714.278 216.336C714.278 222.664 713.294 227.156 711.325 229.812C709.356 232.469 706.341 233.797 702.278 233.797C698.216 233.797 695.2 232.469 693.231 229.812C691.263 227.156 690.278 222.664 690.278 216.336ZM697.216 216.336C697.216 219.227 697.45 222.008 697.919 224.68C698.403 227.352 699.856 228.688 702.278 228.688C704.7 228.688 706.145 227.352 706.614 224.68C707.098 222.008 707.341 219.227 707.341 216.336C707.341 213.445 707.098 210.664 706.614 207.992C706.145 205.32 704.7 203.984 702.278 203.984C699.856 203.984 698.403 205.32 697.919 207.992C697.45 210.664 697.216 213.445 697.216 216.336ZM718.721 233C717.549 233 716.963 232.492 716.963 231.477V230.352C716.963 229.539 717.338 228.734 718.088 227.938L725.096 220.555C727.205 218.32 729.135 216.336 730.885 214.602C732.635 212.852 733.51 211.086 733.51 209.305C733.51 207.523 733.065 206.219 732.174 205.391C731.299 204.547 730.182 204.125 728.823 204.125C726.666 204.125 725.166 204.625 724.323 205.625C723.479 206.625 722.869 207.695 722.494 208.836C722.135 209.945 721.479 210.344 720.526 210.031L718.158 209.234C717.393 208.969 717.174 208.234 717.502 207.031C718.112 204.797 719.354 202.883 721.229 201.289C723.104 199.68 725.885 198.875 729.573 198.875C733.416 198.875 736.205 199.867 737.94 201.852C739.674 203.82 740.541 205.961 740.541 208.273C740.541 211.305 739.276 213.969 736.744 216.266C734.213 218.547 731.916 220.773 729.854 222.945L725.869 227.141V227.281C726.807 227.219 727.588 227.188 728.213 227.188H739.158C740.33 227.188 740.916 227.695 740.916 228.711V231.477C740.916 232.492 740.33 233 739.158 233H718.721ZM744.562 225.688C743.547 225.688 743.039 225.18 743.039 224.164V221.07C743.039 220.18 743.273 219.406 743.742 218.75L756.726 200.469C757.304 199.656 758.031 199.25 758.906 199.25H762.351C763.383 199.25 763.898 199.758 763.898 200.773V219.875H766.734C767.75 219.875 768.258 220.383 768.258 221.398V224.164C768.258 225.18 767.758 225.688 766.758 225.688H763.898V231.477C763.898 232.492 763.39 233 762.375 233H758.859C757.843 233 757.336 232.492 757.336 231.477V225.688H744.562ZM749.578 219.875H757.336V210.805C757.336 210.18 757.367 209.555 757.429 208.93H757.336L749.578 219.875ZM785.932 233C784.807 233 784.44 232.484 784.831 231.453L796.315 201.289C796.799 200.023 797.534 199.391 798.518 199.391H801.799C802.784 199.391 803.518 200.023 804.003 201.289L815.487 231.453C815.878 232.484 815.51 233 814.385 233H810.659C809.628 233 808.909 232.461 808.503 231.383L806.112 225.078H794.206L791.815 231.383C791.409 232.461 790.69 233 789.659 233H785.932ZM796.385 219.266H803.932L801.049 211.812C800.706 210.938 800.495 210.305 800.417 209.914C800.354 209.508 800.284 208.914 800.206 208.133H800.112C800.034 208.914 799.956 209.508 799.878 209.914C799.815 210.305 799.612 210.938 799.268 211.812L796.385 219.266ZM819.062 242.375C818.125 242.375 817.656 241.906 817.656 240.969V209.797C817.656 208.859 818.125 208.391 819.062 208.391H822.766C823.547 208.391 823.969 208.859 824.031 209.797L824.125 211.156H824.219C825.031 209.812 825.938 208.938 826.938 208.531C827.938 208.125 829.141 207.922 830.547 207.922C834.219 207.922 836.797 209.195 838.281 211.742C839.781 214.273 840.531 217.258 840.531 220.695C840.531 224.133 839.781 227.125 838.281 229.672C836.797 232.203 834.219 233.469 830.547 233.469C829.141 233.469 827.938 233.266 826.938 232.859C825.938 232.453 825.031 231.578 824.219 230.234H824.125C824.188 230.859 824.219 231.484 824.219 232.109V240.969C824.219 241.906 823.75 242.375 822.812 242.375H819.062ZM824.219 221.75C824.219 223.859 824.633 225.578 825.461 226.906C826.305 228.219 827.312 228.875 828.484 228.875C830.594 228.875 831.969 228.141 832.609 226.672C833.266 225.188 833.594 223.195 833.594 220.695C833.594 218.195 833.266 216.211 832.609 214.742C831.969 213.258 830.594 212.516 828.484 212.516C827.312 212.516 826.305 213.18 825.461 214.508C824.633 215.82 824.219 217.531 824.219 219.641V221.75ZM845.56 233C844.622 233 844.154 232.531 844.154 231.594V209.797C844.154 208.859 844.622 208.391 845.56 208.391H849.263C850.201 208.391 850.669 208.859 850.669 209.797V211.719H850.763C851.169 210.719 851.849 209.836 852.802 209.07C853.755 208.305 854.88 207.922 856.177 207.922C857.068 207.922 857.802 208.031 858.38 208.25C858.927 208.453 859.138 208.828 859.013 209.375L858.357 212.164C858.216 212.789 857.794 212.977 857.091 212.727C856.685 212.586 856.294 212.516 855.919 212.516C854.419 212.516 853.177 213.414 852.193 215.211C851.208 217.008 850.716 219.625 850.716 223.062V231.594C850.716 232.531 850.247 233 849.31 233H845.56ZM862.542 233C861.604 233 861.136 232.531 861.136 231.594V209.797C861.136 208.859 861.604 208.391 862.542 208.391H866.292C867.229 208.391 867.698 208.859 867.698 209.797V231.594C867.698 232.531 867.229 233 866.292 233H862.542ZM862.542 204.781C861.604 204.781 861.136 204.312 861.136 203.375V200.375C861.136 199.438 861.604 198.969 862.542 198.969H866.292C867.229 198.969 867.698 199.438 867.698 200.375V203.375C867.698 204.312 867.229 204.781 866.292 204.781H862.542ZM874.039 233C873.102 233 872.633 232.531 872.633 231.594V203.914C872.633 203.211 872.797 202.57 873.125 201.992L874.93 198.828C875.274 198.234 875.68 197.938 876.149 197.938H877.789C878.727 197.938 879.196 198.406 879.196 199.344V231.594C879.196 232.531 878.727 233 877.789 233H874.039Z" fill="#3F49AB"/>
<defs>
<filter id="filter0_d_32_2" x="1" y="0" width="1008" height="608" filterUnits="userSpaceOnUse" color-interpolation-filters="sRGB">
<feFlood flood-opacity="0" result="BackgroundImageFix"/>
<feColorMatrix in="SourceAlpha" type="matrix" values="0 0 0 0 0 0 0 0 0 0 0 0 0 0 0 0 0 0 127 0" result="hardAlpha"/>
<feOffset dy="4"/>
<feGaussianBlur stdDeviation="2"/>
<feComposite in2="hardAlpha" operator="out"/>
<feColorMatrix type="matrix" values="0 0 0 0 0 0 0 0 0 0 0 0 0 0 0 0 0 0 0.25 0"/>
<feBlend mode="normal" in2="BackgroundImageFix" result="effect1_dropShadow_32_2"/>
<feBlend mode="normal" in="SourceGraphic" in2="effect1_dropShadow_32_2" result="shape"/>
</filter>
</defs>
</svg>
