<svg width="162" height="54" viewBox="0 0 162 54" fill="none" xmlns="http://www.w3.org/2000/svg">
<path d="M1.20312 23C0.473958 23 0.109375 22.6094 0.109375 21.8281V1.76562C0.109375 0.984375 0.473958 0.59375 1.20312 0.59375H3.57812C4.30729 0.59375 4.67188 0.984375 4.67188 1.76562V7.98438C4.67188 8.60938 4.64583 9.23438 4.59375 9.85938H4.70312L12.2969 1.51562C12.8594 0.901042 13.3385 0.59375 13.7344 0.59375H16.875C18.0938 0.59375 18.2917 1.04167 17.4688 1.9375L10.3594 9.71875L17.9688 21.6562C18.5417 22.5521 18.3438 23 17.375 23H14.4531C13.9115 23 13.4427 22.6927 13.0469 22.0781L7.29688 13.0625L4.67188 16.0156V21.8281C4.67188 22.6094 4.30729 23 3.57812 23H1.20312ZM20.2344 11.7969C20.2344 8.20312 21.1615 5.34896 23.0156 3.23438C24.8698 1.11979 27.5156 0.0625 30.9531 0.0625C34.3906 0.0625 37.0365 1.11979 38.8906 3.23438C40.7448 5.34896 41.6719 8.20312 41.6719 11.7969C41.6719 15.3906 40.7448 18.2448 38.8906 20.3594C37.0365 22.474 34.3906 23.5312 30.9531 23.5312C27.5156 23.5312 24.8698 22.474 23.0156 20.3594C21.1615 18.2448 20.2344 15.3906 20.2344 11.7969ZM25.1094 11.7969C25.1094 14.401 25.5729 16.3958 26.5 17.7812C27.4375 19.1562 28.9219 19.8438 30.9531 19.8438C32.9844 19.8438 34.4635 19.1562 35.3906 17.7812C36.3281 16.3958 36.7969 14.401 36.7969 11.7969C36.7969 9.19271 36.3281 7.20312 35.3906 5.82812C34.4635 4.44271 32.9844 3.75 30.9531 3.75C28.9219 3.75 27.4375 4.44271 26.5 5.82812C25.5729 7.20312 25.1094 9.19271 25.1094 11.7969ZM44.3594 11.7969C44.3594 8.20312 45.2969 5.34896 47.1719 3.23438C49.0469 1.11979 51.7031 0.0625 55.1406 0.0625C57.2135 0.0625 58.8385 0.328125 60.0156 0.859375C61.2031 1.39062 62.2448 2.21354 63.1406 3.32812C63.6823 4.00521 63.6667 4.53125 63.0938 4.90625L61.3125 6.0625C60.7917 6.40625 60.2344 6.25521 59.6406 5.60938C59.151 5.07812 58.5312 4.63542 57.7812 4.28125C57.0312 3.92708 56.2031 3.75 55.2969 3.75C53.1094 3.75 51.5521 4.44271 50.625 5.82812C49.6979 7.20312 49.2344 9.19271 49.2344 11.7969C49.2344 14.401 49.6979 16.3958 50.625 17.7812C51.5521 19.1562 53.1094 19.8438 55.2969 19.8438C56.3594 19.8438 57.276 19.7396 58.0469 19.5312C58.8177 19.3125 59.5469 18.9219 60.2344 18.3594V15.5625H56.8438C56.0625 15.5625 55.6719 15.224 55.6719 14.5469V12.7031C55.6719 12.026 56.0625 11.6875 56.8438 11.6875H63.625C64.4062 11.6875 64.7969 12.026 64.7969 12.7031V20.6406C63.3385 21.7135 61.8646 22.4635 60.375 22.8906C58.8958 23.3177 57.151 23.5312 55.1406 23.5312C51.7552 23.5312 49.1094 22.474 47.2031 20.3594C45.3073 18.2448 44.3594 15.3906 44.3594 11.7969ZM68.3438 23C67.5938 23 67.349 22.6562 67.6094 21.9688L75.2656 1.85938C75.5885 1.01562 76.0781 0.59375 76.7344 0.59375H78.9219C79.5781 0.59375 80.0677 1.01562 80.3906 1.85938L88.0469 21.9688C88.3073 22.6562 88.0625 23 87.3125 23H84.8281C84.1406 23 83.6615 22.6406 83.3906 21.9219L81.7969 17.7188H73.8594L72.2656 21.9219C71.9948 22.6406 71.5156 23 70.8281 23H68.3438ZM75.3125 13.8438H80.3438L78.4219 8.875C78.1927 8.29167 78.0521 7.86979 78 7.60938C77.9583 7.33854 77.9115 6.94271 77.8594 6.42188H77.7969C77.7448 6.94271 77.6927 7.33854 77.6406 7.60938C77.599 7.86979 77.4635 8.29167 77.2344 8.875L75.3125 13.8438ZM91.9219 23C91.1927 23 90.8281 22.6094 90.8281 21.8281V1.76562C90.8281 0.984375 91.1927 0.59375 91.9219 0.59375H94.2969C95.026 0.59375 95.3906 0.984375 95.3906 1.76562V7.98438C95.3906 8.60938 95.3646 9.23438 95.3125 9.85938H95.4219L103.016 1.51562C103.578 0.901042 104.057 0.59375 104.453 0.59375H107.594C108.812 0.59375 109.01 1.04167 108.188 1.9375L101.078 9.71875L108.688 21.6562C109.26 22.5521 109.062 23 108.094 23H105.172C104.63 23 104.161 22.6927 103.766 22.0781L98.0156 13.0625L95.3906 16.0156V21.8281C95.3906 22.6094 95.026 23 94.2969 23H91.9219ZM112.109 13.6719V1.45312C112.109 0.880208 112.474 0.59375 113.203 0.59375H115.578C116.307 0.59375 116.672 0.880208 116.672 1.45312V13.5156C116.672 16.3281 117.083 18.0885 117.906 18.7969C118.74 19.4948 119.677 19.8438 120.719 19.8438C121.76 19.8438 122.693 19.4948 123.516 18.7969C124.349 18.0885 124.766 16.3281 124.766 13.5156V1.45312C124.766 0.880208 125.13 0.59375 125.859 0.59375H128.234C128.964 0.59375 129.328 0.880208 129.328 1.45312V13.6719C129.328 17.3177 128.557 19.875 127.016 21.3438C125.474 22.8021 123.375 23.5312 120.719 23.5312C118.062 23.5312 115.964 22.8021 114.422 21.3438C112.88 19.875 112.109 17.3177 112.109 13.6719ZM135.422 23C134.693 23 134.328 22.6094 134.328 21.8281V1.76562C134.328 0.984375 134.693 0.59375 135.422 0.59375H137.797C138.526 0.59375 138.891 0.984375 138.891 1.76562V21.8281C138.891 22.6094 138.526 23 137.797 23H135.422ZM144.984 23C144.255 23 143.891 22.6094 143.891 21.8281V1.76562C143.891 0.984375 144.255 0.59375 144.984 0.59375H147.297C148.193 0.59375 148.87 0.958333 149.328 1.6875L157.297 14.4844H157.406C157.354 13.8594 157.328 13.2344 157.328 12.6094V1.76562C157.328 0.984375 157.693 0.59375 158.422 0.59375H160.797C161.526 0.59375 161.891 0.984375 161.891 1.76562V21.8281C161.891 22.6094 161.526 23 160.797 23H158.641C157.745 23 157.068 22.6354 156.609 21.9062L148.484 8.875H148.375C148.427 9.5 148.453 10.125 148.453 10.75V21.8281C148.453 22.6094 148.089 23 147.359 23H144.984ZM1.05 53C0.52917 53 0.268753 52.7135 0.268753 52.1406V31.4531C0.268753 30.8802 0.52917 30.5938 1.05 30.5938H2.4875C3.00834 30.5938 3.26875 30.8802 3.26875 31.4531V40.0625H14.175V31.4531C14.175 30.8802 14.4354 30.5938 14.9563 30.5938H16.3938C16.9146 30.5938 17.175 30.8802 17.175 31.4531V52.1406C17.175 52.7135 16.9146 53 16.3938 53H14.9563C14.4354 53 14.175 52.7135 14.175 52.1406V42.625H3.26875V52.1406C3.26875 52.7135 3.00834 53 2.4875 53H1.05ZM18.1625 53C17.6208 53 17.4802 52.6562 17.7406 51.9688L25.5219 31.5469C25.7615 30.9115 26.1052 30.5938 26.5531 30.5938H28.7406C29.1885 30.5938 29.5323 30.9115 29.7719 31.5469L37.5531 51.9688C37.8135 52.6562 37.6729 53 37.1313 53H35.5375C34.9854 53 34.6104 52.7448 34.4125 52.2344L32.4594 47.0625H22.8344L20.8813 52.2344C20.6833 52.7448 20.3083 53 19.7563 53H18.1625ZM23.8188 44.5H31.475L29.0844 38.25C28.8656 37.6667 28.6469 37.0208 28.4281 36.3125C28.2198 35.6042 27.9698 34.599 27.6781 33.2969H27.6156C27.324 34.599 27.0688 35.6042 26.85 36.3125C26.6417 37.0208 26.4281 37.6667 26.2094 38.25L23.8188 44.5ZM36.1188 41.7969C36.1188 38.151 37.0198 35.2969 38.8219 33.2344C40.6344 31.1615 43.2333 30.125 46.6188 30.125C48.5979 30.125 50.2333 30.4635 51.525 31.1406C52.8167 31.8073 53.7438 32.724 54.3063 33.8906C54.5979 34.4948 54.551 34.9115 54.1656 35.1406L52.9313 35.8594C52.5146 36.099 52.1448 35.901 51.8219 35.2656C51.4781 34.6094 50.9156 33.9948 50.1344 33.4219C49.3531 32.849 48.2333 32.5625 46.775 32.5625C44.1708 32.5625 42.275 33.375 41.0875 35C39.9104 36.6146 39.3219 38.8802 39.3219 41.7969C39.3219 44.7135 39.9104 46.9844 41.0875 48.6094C42.275 50.224 44.1708 51.0312 46.775 51.0312C48.275 51.0312 49.4729 50.6875 50.3688 50C51.275 49.3125 51.9313 48.5938 52.3375 47.8438C52.6604 47.2396 53.0354 47.0573 53.4625 47.2969L54.7594 48.0312C55.1344 48.25 55.1656 48.6667 54.8531 49.2812C54.2385 50.4792 53.2385 51.4792 51.8531 52.2812C50.4677 53.0729 48.7229 53.4688 46.6188 53.4688C43.2333 53.4688 40.6344 52.4375 38.8219 50.375C37.0198 48.3021 36.1188 45.4427 36.1188 41.7969ZM56.825 53C56.3042 53 56.0438 52.7135 56.0438 52.1406V31.4531C56.0438 30.8802 56.3042 30.5938 56.825 30.5938H58.2625C58.7833 30.5938 59.0438 30.8802 59.0438 31.4531V40.6406C59.0438 41.0573 59.0333 41.474 59.0125 41.8906H59.075L69.5125 31.2031C69.9083 30.7969 70.2729 30.5938 70.6063 30.5938H72.4969C73.3615 30.5938 73.4552 30.9375 72.7781 31.625L64.8406 39.7188L73.2 51.9688C73.6583 52.6562 73.5646 53 72.9188 53H71.0125C70.5542 53 70.1896 52.7969 69.9188 52.3906L62.7781 41.8438L59.0438 45.6406V52.1406C59.0438 52.7135 58.7833 53 58.2625 53H56.825ZM72.4688 53C71.9271 53 71.7865 52.6562 72.0469 51.9688L79.8281 31.5469C80.0677 30.9115 80.4115 30.5938 80.8594 30.5938H83.0469C83.4948 30.5938 83.8385 30.9115 84.0781 31.5469L91.8594 51.9688C92.1198 52.6562 91.9792 53 91.4375 53H89.8438C89.2917 53 88.9167 52.7448 88.7188 52.2344L86.7656 47.0625H77.1406L75.1875 52.2344C74.9896 52.7448 74.6146 53 74.0625 53H72.4688ZM78.125 44.5H85.7812L83.3906 38.25C83.1719 37.6667 82.9531 37.0208 82.7344 36.3125C82.526 35.6042 82.276 34.599 81.9844 33.2969H81.9219C81.6302 34.599 81.375 35.6042 81.1562 36.3125C80.9479 37.0208 80.7344 37.6667 80.5156 38.25L78.125 44.5ZM87.5344 33.2812C86.9615 33.2812 86.675 33.0469 86.675 32.5781V31.2969C86.675 30.8281 86.9615 30.5938 87.5344 30.5938H104.066C104.639 30.5938 104.925 30.8281 104.925 31.2969V32.5781C104.925 33.0469 104.639 33.2812 104.066 33.2812H97.3V52.1406C97.3 52.7135 97.0396 53 96.5188 53H95.0813C94.5604 53 94.3 52.7135 94.3 52.1406V33.2812H87.5344ZM105.725 53C105.204 53 104.944 52.7135 104.944 52.1406V31.4531C104.944 30.8802 105.204 30.5938 105.725 30.5938H107.163C107.683 30.5938 107.944 30.8802 107.944 31.4531V40.0625H118.85V31.4531C118.85 30.8802 119.11 30.5938 119.631 30.5938H121.069C121.59 30.5938 121.85 30.8802 121.85 31.4531V52.1406C121.85 52.7135 121.59 53 121.069 53H119.631C119.11 53 118.85 52.7135 118.85 52.1406V42.625H107.944V52.1406C107.944 52.7135 107.683 53 107.163 53H105.725ZM122.744 41.7969C122.744 38.151 123.64 35.2969 125.431 33.2344C127.233 31.1615 129.827 30.125 133.212 30.125C136.598 30.125 139.186 31.1615 140.978 33.2344C142.78 35.2969 143.681 38.151 143.681 41.7969C143.681 45.4427 142.78 48.3021 140.978 50.375C139.186 52.4375 136.598 53.4688 133.212 53.4688C129.827 53.4688 127.233 52.4375 125.431 50.375C123.64 48.3021 122.744 45.4427 122.744 41.7969ZM125.947 41.7969C125.947 44.7135 126.546 46.9844 127.744 48.6094C128.942 50.224 130.765 51.0312 133.212 51.0312C135.66 51.0312 137.483 50.224 138.681 48.6094C139.879 46.9844 140.478 44.7135 140.478 41.7969C140.478 38.8802 139.879 36.6146 138.681 35C137.483 33.375 135.66 32.5625 133.212 32.5625C130.765 32.5625 128.942 33.375 127.744 35C126.546 36.6146 125.947 38.8802 125.947 41.7969ZM145.356 53C144.835 53 144.575 52.7135 144.575 52.1406V31.4531C144.575 30.8802 144.835 30.5938 145.356 30.5938H147.356C148.085 30.5938 148.606 30.8542 148.919 31.375L158.7 47.7656H158.762C158.742 47.349 158.731 46.9323 158.731 46.5156V31.4531C158.731 30.8802 158.992 30.5938 159.512 30.5938H160.95C161.471 30.5938 161.731 30.8802 161.731 31.4531V52.1406C161.731 52.7135 161.471 53 160.95 53H159.575C158.846 53 158.325 52.7396 158.012 52.2188L147.606 34.8281H147.544C147.565 35.2448 147.575 35.6615 147.575 36.0781V52.1406C147.575 52.7135 147.315 53 146.794 53H145.356Z" fill="#FFC021"/>
</svg>
