<svg width="1509" height="562" viewBox="0 0 1509 562" fill="none" xmlns="http://www.w3.org/2000/svg">
<path d="M66 0H216L151 52H1L66 0Z" fill="#FFEEC2"/>
<path d="M150 52L216 0V500L150 552V52Z" fill="#FFEEC2"/>
<path d="M416 0H566L501 52H351L416 0Z" fill="#E9EBFF"/>
<path d="M500 52L566 0V500L500 552V52Z" fill="#E9EBFF"/>
<path d="M215 175H422L357 227H150L215 175Z" fill="#CBD5F2"/>
<path d="M166 176H373L308 228H101L166 176Z" fill="#FFC021"/>
<path d="M166 176H373L308 228H101L166 176Z" fill="#FFEEC2"/>
<path d="M156 175H363L298 227H91L156 175Z" fill="#FFC021"/>
<path d="M156 175H363L298 227H91L156 175Z" fill="#CBD5F2"/>
<path d="M143 176H350L285 228H78L143 176Z" fill="#FFC021"/>
<path d="M143 176H350L285 228H78L143 176Z" fill="#FFEEC2"/>
<path d="M133 175H340L275 227H68L133 175Z" fill="#FFC021"/>
<path d="M133 175H340L275 227H68L133 175Z" fill="#CBD5F2"/>
<path d="M122 175H329L264 227H57L122 175Z" fill="#FFC021"/>
<path d="M122 175H329L264 227H57L122 175Z" fill="#FFEEC2"/>
<path d="M351 52L501 52L501 552H351L351 52Z" fill="#3F49AB"/>
<g clip-path="url(#clip0_203_229)">
<rect width="500" height="150" transform="translate(1 227)" fill="#3F49AB"/>
<path d="M1 377L1 227L351 227V377L1 377Z" fill="#FFC021"/>
<rect x="308.529" y="149" width="156.616" height="265.058" transform="rotate(30 308.529 149)" fill="#3F49AB"/>
<rect x="305.289" y="214" width="10" height="196.578" transform="rotate(30 305.289 214)" fill="#FFC021"/>
<rect x="282.289" y="214" width="10" height="196.578" transform="rotate(30 282.289 214)" fill="#3F49AB"/>
<rect x="282.289" y="214" width="10" height="196.578" transform="rotate(30 282.289 214)" fill="#3F49AB"/>
<rect x="282.289" y="214" width="10" height="196.578" transform="rotate(30 282.289 214)" fill="#FFC021"/>
</g>
<rect y="52" width="150" height="500" fill="#FFC021"/>
<mask id="path-17-outside-1_203_229" maskUnits="userSpaceOnUse" x="446" y="67" width="44" height="132" fill="black">
<rect fill="white" x="446" y="67" width="44" height="132"/>
<path d="M482.88 176.076L482.88 158.796L486.528 158.796L486.528 197.196L482.88 197.196L482.88 179.82L454.992 179.82L454.992 194.556L451.344 194.556L451.344 161.292L454.992 161.292L454.992 176.076L482.88 176.076ZM470.928 115.596L474.48 115.596L474.48 133.884L488.304 133.884L488.304 144.684L484.896 144.684L484.896 137.628L474.48 137.628L474.48 155.676L470.928 155.676L470.928 137.628L467.808 137.628L467.808 135.42L462.816 130.284L462.816 149.292L459.264 149.292L459.264 121.356L470.928 133.26L470.928 115.596ZM452.304 141.948L452.304 146.364L447.552 149.676L447.552 145.26L452.304 141.948ZM452.304 133.356L452.304 137.724L447.552 141.036L447.552 136.668L452.304 133.356ZM456.624 150.972L463.488 150.972L463.488 154.62L453.072 154.62L453.072 130.572L447.216 126.444L447.216 121.98L453.072 126.06L453.072 116.652L463.488 116.652L463.488 120.348L456.624 120.348L456.624 150.972ZM451.104 94.812L451.104 83.676L447.216 83.676L447.216 80.124L451.104 80.124L451.104 68.988L460.896 68.988L460.896 72.588L454.512 72.588L454.512 91.26L460.896 91.26L460.896 94.812L451.104 94.812ZM462.048 73.548L462.048 90.252L458.544 90.252L458.544 73.548L462.048 73.548ZM470.208 68.796L470.208 78.012L484.608 78.012L484.608 68.796L488.016 68.796L488.016 81.612L470.208 81.612L470.208 82.572L488.496 92.076L488.496 96.156L470.208 86.604L470.208 95.004L466.704 95.004L466.704 68.796L470.208 68.796ZM484.032 104.076L480.768 104.076L480.768 99.372L459.648 103.068L451.92 99.66L451.92 104.652L488.496 104.652L488.496 108.252L448.368 108.252L448.368 94.092L460.56 99.468L484.032 95.34L484.032 104.076Z"/>
</mask>
<path d="M482.88 176.076L482.88 158.796L486.528 158.796L486.528 197.196L482.88 197.196L482.88 179.82L454.992 179.82L454.992 194.556L451.344 194.556L451.344 161.292L454.992 161.292L454.992 176.076L482.88 176.076ZM470.928 115.596L474.48 115.596L474.48 133.884L488.304 133.884L488.304 144.684L484.896 144.684L484.896 137.628L474.48 137.628L474.48 155.676L470.928 155.676L470.928 137.628L467.808 137.628L467.808 135.42L462.816 130.284L462.816 149.292L459.264 149.292L459.264 121.356L470.928 133.26L470.928 115.596ZM452.304 141.948L452.304 146.364L447.552 149.676L447.552 145.26L452.304 141.948ZM452.304 133.356L452.304 137.724L447.552 141.036L447.552 136.668L452.304 133.356ZM456.624 150.972L463.488 150.972L463.488 154.62L453.072 154.62L453.072 130.572L447.216 126.444L447.216 121.98L453.072 126.06L453.072 116.652L463.488 116.652L463.488 120.348L456.624 120.348L456.624 150.972ZM451.104 94.812L451.104 83.676L447.216 83.676L447.216 80.124L451.104 80.124L451.104 68.988L460.896 68.988L460.896 72.588L454.512 72.588L454.512 91.26L460.896 91.26L460.896 94.812L451.104 94.812ZM462.048 73.548L462.048 90.252L458.544 90.252L458.544 73.548L462.048 73.548ZM470.208 68.796L470.208 78.012L484.608 78.012L484.608 68.796L488.016 68.796L488.016 81.612L470.208 81.612L470.208 82.572L488.496 92.076L488.496 96.156L470.208 86.604L470.208 95.004L466.704 95.004L466.704 68.796L470.208 68.796ZM484.032 104.076L480.768 104.076L480.768 99.372L459.648 103.068L451.92 99.66L451.92 104.652L488.496 104.652L488.496 108.252L448.368 108.252L448.368 94.092L460.56 99.468L484.032 95.34L484.032 104.076Z" fill="white"/>
<path d="M482.88 176.076L482.88 177.076L483.88 177.076L483.88 176.076L482.88 176.076ZM482.88 158.796L482.88 157.796L481.88 157.796L481.88 158.796L482.88 158.796ZM486.528 158.796L487.528 158.796L487.528 157.796L486.528 157.796L486.528 158.796ZM486.528 197.196L486.528 198.196L487.528 198.196L487.528 197.196L486.528 197.196ZM482.88 197.196L481.88 197.196L481.88 198.196L482.88 198.196L482.88 197.196ZM482.88 179.82L483.88 179.82L483.88 178.82L482.88 178.82L482.88 179.82ZM454.992 179.82L454.992 178.82L453.992 178.82L453.992 179.82L454.992 179.82ZM454.992 194.556L454.992 195.556L455.992 195.556L455.992 194.556L454.992 194.556ZM451.344 194.556L450.344 194.556L450.344 195.556L451.344 195.556L451.344 194.556ZM451.344 161.292L451.344 160.292L450.344 160.292L450.344 161.292L451.344 161.292ZM454.992 161.292L455.992 161.292L455.992 160.292L454.992 160.292L454.992 161.292ZM454.992 176.076L453.992 176.076L453.992 177.076L454.992 177.076L454.992 176.076ZM483.88 176.076L483.88 158.796L481.88 158.796L481.88 176.076L483.88 176.076ZM482.88 159.796L486.528 159.796L486.528 157.796L482.88 157.796L482.88 159.796ZM485.528 158.796L485.528 197.196L487.528 197.196L487.528 158.796L485.528 158.796ZM486.528 196.196L482.88 196.196L482.88 198.196L486.528 198.196L486.528 196.196ZM483.88 197.196L483.88 179.82L481.88 179.82L481.88 197.196L483.88 197.196ZM482.88 178.82L454.992 178.82L454.992 180.82L482.88 180.82L482.88 178.82ZM453.992 179.82L453.992 194.556L455.992 194.556L455.992 179.82L453.992 179.82ZM454.992 193.556L451.344 193.556L451.344 195.556L454.992 195.556L454.992 193.556ZM452.344 194.556L452.344 161.292L450.344 161.292L450.344 194.556L452.344 194.556ZM451.344 162.292L454.992 162.292L454.992 160.292L451.344 160.292L451.344 162.292ZM453.992 161.292L453.992 176.076L455.992 176.076L455.992 161.292L453.992 161.292ZM454.992 177.076L482.88 177.076L482.88 175.076L454.992 175.076L454.992 177.076ZM470.928 115.596L470.928 114.596L469.928 114.596L469.928 115.596L470.928 115.596ZM474.48 115.596L475.48 115.596L475.48 114.596L474.48 114.596L474.48 115.596ZM474.48 133.884L473.48 133.884L473.48 134.884L474.48 134.884L474.48 133.884ZM488.304 133.884L489.304 133.884L489.304 132.884L488.304 132.884L488.304 133.884ZM488.304 144.684L488.304 145.684L489.304 145.684L489.304 144.684L488.304 144.684ZM484.896 144.684L483.896 144.684L483.896 145.684L484.896 145.684L484.896 144.684ZM484.896 137.628L485.896 137.628L485.896 136.628L484.896 136.628L484.896 137.628ZM474.48 137.628L474.48 136.628L473.48 136.628L473.48 137.628L474.48 137.628ZM474.48 155.676L474.48 156.676L475.48 156.676L475.48 155.676L474.48 155.676ZM470.928 155.676L469.928 155.676L469.928 156.676L470.928 156.676L470.928 155.676ZM470.928 137.628L471.928 137.628L471.928 136.628L470.928 136.628L470.928 137.628ZM467.808 137.628L466.808 137.628L466.808 138.628L467.808 138.628L467.808 137.628ZM467.808 135.42L468.808 135.42L468.808 135.014L468.525 134.723L467.808 135.42ZM462.816 130.284L463.533 129.587L461.816 127.82L461.816 130.284L462.816 130.284ZM462.816 149.292L462.816 150.292L463.816 150.292L463.816 149.292L462.816 149.292ZM459.264 149.292L458.264 149.292L458.264 150.292L459.264 150.292L459.264 149.292ZM459.264 121.356L459.978 120.656L458.264 118.907L458.264 121.356L459.264 121.356ZM470.928 133.26L470.214 133.96L471.928 135.709L471.928 133.26L470.928 133.26ZM452.304 141.948L453.304 141.948L453.304 140.032L451.732 141.128L452.304 141.948ZM452.304 146.364L452.876 147.184L453.304 146.886L453.304 146.364L452.304 146.364ZM447.552 149.676L446.552 149.676L446.552 151.592L448.124 150.496L447.552 149.676ZM447.552 145.26L446.98 144.44L446.552 144.738L446.552 145.26L447.552 145.26ZM452.304 133.356L453.304 133.356L453.304 131.44L451.732 132.536L452.304 133.356ZM452.304 137.724L452.876 138.544L453.304 138.246L453.304 137.724L452.304 137.724ZM447.552 141.036L446.552 141.036L446.552 142.952L448.124 141.856L447.552 141.036ZM447.552 136.668L446.98 135.848L446.552 136.146L446.552 136.668L447.552 136.668ZM456.624 150.972L455.624 150.972L455.624 151.972L456.624 151.972L456.624 150.972ZM463.488 150.972L464.488 150.972L464.488 149.972L463.488 149.972L463.488 150.972ZM463.488 154.62L463.488 155.62L464.488 155.62L464.488 154.62L463.488 154.62ZM453.072 154.62L452.072 154.62L452.072 155.62L453.072 155.62L453.072 154.62ZM453.072 130.572L454.072 130.572L454.072 130.053L453.648 129.755L453.072 130.572ZM447.216 126.444L446.216 126.444L446.216 126.963L446.64 127.261L447.216 126.444ZM447.216 121.98L447.788 121.16L446.216 120.064L446.216 121.98L447.216 121.98ZM453.072 126.06L452.5 126.88L454.072 127.975L454.072 126.06L453.072 126.06ZM453.072 116.652L453.072 115.652L452.072 115.652L452.072 116.652L453.072 116.652ZM463.488 116.652L464.488 116.652L464.488 115.652L463.488 115.652L463.488 116.652ZM463.488 120.348L463.488 121.348L464.488 121.348L464.488 120.348L463.488 120.348ZM456.624 120.348L456.624 119.348L455.624 119.348L455.624 120.348L456.624 120.348ZM470.928 116.596L474.48 116.596L474.48 114.596L470.928 114.596L470.928 116.596ZM473.48 115.596L473.48 133.884L475.48 133.884L475.48 115.596L473.48 115.596ZM474.48 134.884L488.304 134.884L488.304 132.884L474.48 132.884L474.48 134.884ZM487.304 133.884L487.304 144.684L489.304 144.684L489.304 133.884L487.304 133.884ZM488.304 143.684L484.896 143.684L484.896 145.684L488.304 145.684L488.304 143.684ZM485.896 144.684L485.896 137.628L483.896 137.628L483.896 144.684L485.896 144.684ZM484.896 136.628L474.48 136.628L474.48 138.628L484.896 138.628L484.896 136.628ZM473.48 137.628L473.48 155.676L475.48 155.676L475.48 137.628L473.48 137.628ZM474.48 154.676L470.928 154.676L470.928 156.676L474.48 156.676L474.48 154.676ZM471.928 155.676L471.928 137.628L469.928 137.628L469.928 155.676L471.928 155.676ZM470.928 136.628L467.808 136.628L467.808 138.628L470.928 138.628L470.928 136.628ZM468.808 137.628L468.808 135.42L466.808 135.42L466.808 137.628L468.808 137.628ZM468.525 134.723L463.533 129.587L462.099 130.981L467.091 136.117L468.525 134.723ZM461.816 130.284L461.816 149.292L463.816 149.292L463.816 130.284L461.816 130.284ZM462.816 148.292L459.264 148.292L459.264 150.292L462.816 150.292L462.816 148.292ZM460.264 149.292L460.264 121.356L458.264 121.356L458.264 149.292L460.264 149.292ZM458.55 122.056L470.214 133.96L471.642 132.56L459.978 120.656L458.55 122.056ZM471.928 133.26L471.928 115.596L469.928 115.596L469.928 133.26L471.928 133.26ZM451.304 141.948L451.304 146.364L453.304 146.364L453.304 141.948L451.304 141.948ZM451.732 145.544L446.98 148.856L448.124 150.496L452.876 147.184L451.732 145.544ZM448.552 149.676L448.552 145.26L446.552 145.26L446.552 149.676L448.552 149.676ZM448.124 146.08L452.876 142.768L451.732 141.128L446.98 144.44L448.124 146.08ZM451.304 133.356L451.304 137.724L453.304 137.724L453.304 133.356L451.304 133.356ZM451.732 136.904L446.98 140.216L448.124 141.856L452.876 138.544L451.732 136.904ZM448.552 141.036L448.552 136.668L446.552 136.668L446.552 141.036L448.552 141.036ZM448.124 137.488L452.876 134.176L451.732 132.536L446.98 135.848L448.124 137.488ZM456.624 151.972L463.488 151.972L463.488 149.972L456.624 149.972L456.624 151.972ZM462.488 150.972L462.488 154.62L464.488 154.62L464.488 150.972L462.488 150.972ZM463.488 153.62L453.072 153.62L453.072 155.62L463.488 155.62L463.488 153.62ZM454.072 154.62L454.072 130.572L452.072 130.572L452.072 154.62L454.072 154.62ZM453.648 129.755L447.792 125.627L446.64 127.261L452.496 131.389L453.648 129.755ZM448.216 126.444L448.216 121.98L446.216 121.98L446.216 126.444L448.216 126.444ZM446.644 122.8L452.5 126.88L453.644 125.24L447.788 121.16L446.644 122.8ZM454.072 126.06L454.072 116.652L452.072 116.652L452.072 126.06L454.072 126.06ZM453.072 117.652L463.488 117.652L463.488 115.652L453.072 115.652L453.072 117.652ZM462.488 116.652L462.488 120.348L464.488 120.348L464.488 116.652L462.488 116.652ZM463.488 119.348L456.624 119.348L456.624 121.348L463.488 121.348L463.488 119.348ZM455.624 120.348L455.624 150.972L457.624 150.972L457.624 120.348L455.624 120.348ZM451.104 94.812L450.104 94.812L450.104 95.812L451.104 95.812L451.104 94.812ZM451.104 83.676L452.104 83.676L452.104 82.676L451.104 82.676L451.104 83.676ZM447.216 83.676L446.216 83.676L446.216 84.676L447.216 84.676L447.216 83.676ZM447.216 80.124L447.216 79.124L446.216 79.124L446.216 80.124L447.216 80.124ZM451.104 80.124L451.104 81.124L452.104 81.124L452.104 80.124L451.104 80.124ZM451.104 68.988L451.104 67.988L450.104 67.988L450.104 68.988L451.104 68.988ZM460.896 68.988L461.896 68.988L461.896 67.988L460.896 67.988L460.896 68.988ZM460.896 72.588L460.896 73.588L461.896 73.588L461.896 72.588L460.896 72.588ZM454.512 72.588L454.512 71.588L453.512 71.588L453.512 72.588L454.512 72.588ZM454.512 91.26L453.512 91.26L453.512 92.26L454.512 92.26L454.512 91.26ZM460.896 91.26L461.896 91.26L461.896 90.26L460.896 90.26L460.896 91.26ZM460.896 94.812L460.896 95.812L461.896 95.812L461.896 94.812L460.896 94.812ZM462.048 73.548L463.048 73.548L463.048 72.548L462.048 72.548L462.048 73.548ZM462.048 90.252L462.048 91.252L463.048 91.252L463.048 90.252L462.048 90.252ZM458.544 90.252L457.544 90.252L457.544 91.252L458.544 91.252L458.544 90.252ZM458.544 73.548L458.544 72.548L457.544 72.548L457.544 73.548L458.544 73.548ZM470.208 68.796L471.208 68.796L471.208 67.796L470.208 67.796L470.208 68.796ZM470.208 78.012L469.208 78.012L469.208 79.012L470.208 79.012L470.208 78.012ZM484.608 78.012L484.608 79.012L485.608 79.012L485.608 78.012L484.608 78.012ZM484.608 68.796L484.608 67.796L483.608 67.796L483.608 68.796L484.608 68.796ZM488.016 68.796L489.016 68.796L489.016 67.796L488.016 67.796L488.016 68.796ZM488.016 81.612L488.016 82.612L489.016 82.612L489.016 81.612L488.016 81.612ZM470.208 81.612L470.208 80.612L469.208 80.612L469.208 81.612L470.208 81.612ZM470.208 82.572L469.208 82.572L469.208 83.1793L469.747 83.4593L470.208 82.572ZM488.496 92.076L489.496 92.076L489.496 91.4687L488.957 91.1886L488.496 92.076ZM488.496 96.156L488.033 97.0423L489.496 97.8065L489.496 96.156L488.496 96.156ZM470.208 86.604L470.671 85.7176L469.208 84.9535L469.208 86.604L470.208 86.604ZM470.208 95.004L470.208 96.004L471.208 96.004L471.208 95.004L470.208 95.004ZM466.704 95.004L465.704 95.004L465.704 96.004L466.704 96.004L466.704 95.004ZM466.704 68.796L466.704 67.796L465.704 67.796L465.704 68.796L466.704 68.796ZM484.032 104.076L484.032 105.076L485.032 105.076L485.032 104.076L484.032 104.076ZM480.768 104.076L479.768 104.076L479.768 105.076L480.768 105.076L480.768 104.076ZM480.768 99.372L481.768 99.372L481.768 98.1818L480.596 98.3869L480.768 99.372ZM459.648 103.068L459.245 103.983L459.522 104.105L459.82 104.053L459.648 103.068ZM451.92 99.66L452.324 98.745L450.92 98.1261L450.92 99.66L451.92 99.66ZM451.92 104.652L450.92 104.652L450.92 105.652L451.92 105.652L451.92 104.652ZM488.496 104.652L489.496 104.652L489.496 103.652L488.496 103.652L488.496 104.652ZM488.496 108.252L488.496 109.252L489.496 109.252L489.496 108.252L488.496 108.252ZM448.368 108.252L447.368 108.252L447.368 109.252L448.368 109.252L448.368 108.252ZM448.368 94.092L448.771 93.177L447.368 92.5581L447.368 94.092L448.368 94.092ZM460.56 99.468L460.157 100.383L460.434 100.505L460.733 100.453L460.56 99.468ZM484.032 95.34L485.032 95.34L485.032 94.1488L483.859 94.3551L484.032 95.34ZM452.104 94.812L452.104 83.676L450.104 83.676L450.104 94.812L452.104 94.812ZM451.104 82.676L447.216 82.676L447.216 84.676L451.104 84.676L451.104 82.676ZM448.216 83.676L448.216 80.124L446.216 80.124L446.216 83.676L448.216 83.676ZM447.216 81.124L451.104 81.124L451.104 79.124L447.216 79.124L447.216 81.124ZM452.104 80.124L452.104 68.988L450.104 68.988L450.104 80.124L452.104 80.124ZM451.104 69.988L460.896 69.988L460.896 67.988L451.104 67.988L451.104 69.988ZM459.896 68.988L459.896 72.588L461.896 72.588L461.896 68.988L459.896 68.988ZM460.896 71.588L454.512 71.588L454.512 73.588L460.896 73.588L460.896 71.588ZM453.512 72.588L453.512 91.26L455.512 91.26L455.512 72.588L453.512 72.588ZM454.512 92.26L460.896 92.26L460.896 90.26L454.512 90.26L454.512 92.26ZM459.896 91.26L459.896 94.812L461.896 94.812L461.896 91.26L459.896 91.26ZM460.896 93.812L451.104 93.812L451.104 95.812L460.896 95.812L460.896 93.812ZM461.048 73.548L461.048 90.252L463.048 90.252L463.048 73.548L461.048 73.548ZM462.048 89.252L458.544 89.252L458.544 91.252L462.048 91.252L462.048 89.252ZM459.544 90.252L459.544 73.548L457.544 73.548L457.544 90.252L459.544 90.252ZM458.544 74.548L462.048 74.548L462.048 72.548L458.544 72.548L458.544 74.548ZM469.208 68.796L469.208 78.012L471.208 78.012L471.208 68.796L469.208 68.796ZM470.208 79.012L484.608 79.012L484.608 77.012L470.208 77.012L470.208 79.012ZM485.608 78.012L485.608 68.796L483.608 68.796L483.608 78.012L485.608 78.012ZM484.608 69.796L488.016 69.796L488.016 67.796L484.608 67.796L484.608 69.796ZM487.016 68.796L487.016 81.612L489.016 81.612L489.016 68.796L487.016 68.796ZM488.016 80.612L470.208 80.612L470.208 82.612L488.016 82.612L488.016 80.612ZM469.208 81.612L469.208 82.572L471.208 82.572L471.208 81.612L469.208 81.612ZM469.747 83.4593L488.035 92.9633L488.957 91.1886L470.669 81.6846L469.747 83.4593ZM487.496 92.076L487.496 96.156L489.496 96.156L489.496 92.076L487.496 92.076ZM488.959 95.2696L470.671 85.7176L469.745 87.4903L488.033 97.0423L488.959 95.2696ZM469.208 86.604L469.208 95.004L471.208 95.004L471.208 86.604L469.208 86.604ZM470.208 94.004L466.704 94.004L466.704 96.004L470.208 96.004L470.208 94.004ZM467.704 95.004L467.704 68.796L465.704 68.796L465.704 95.004L467.704 95.004ZM466.704 69.796L470.208 69.796L470.208 67.796L466.704 67.796L466.704 69.796ZM484.032 103.076L480.768 103.076L480.768 105.076L484.032 105.076L484.032 103.076ZM481.768 104.076L481.768 99.372L479.768 99.372L479.768 104.076L481.768 104.076ZM480.596 98.3869L459.476 102.083L459.82 104.053L480.94 100.357L480.596 98.3869ZM460.052 102.153L452.324 98.745L451.517 100.575L459.245 103.983L460.052 102.153ZM450.92 99.66L450.92 104.652L452.92 104.652L452.92 99.66L450.92 99.66ZM451.92 105.652L488.496 105.652L488.496 103.652L451.92 103.652L451.92 105.652ZM487.496 104.652L487.496 108.252L489.496 108.252L489.496 104.652L487.496 104.652ZM488.496 107.252L448.368 107.252L448.368 109.252L488.496 109.252L488.496 107.252ZM449.368 108.252L449.368 94.092L447.368 94.092L447.368 108.252L449.368 108.252ZM447.965 95.007L460.157 100.383L460.963 98.553L448.771 93.177L447.965 95.007ZM460.733 100.453L484.205 96.3249L483.859 94.3551L460.387 98.4831L460.733 100.453ZM483.032 95.34L483.032 104.076L485.032 104.076L485.032 95.34L483.032 95.34Z" fill="white" mask="url(#path-17-outside-1_203_229)"/>
<mask id="path-19-outside-2_203_229" maskUnits="userSpaceOnUse" x="14" y="284" width="43" height="256" fill="black">
<rect fill="white" x="14" y="284" width="43" height="256"/>
<path d="M55.392 310.534L55.392 314.278L16.464 314.278L16.464 310.534L32.976 310.534L32.976 288.838L16.464 288.838L16.464 285.094L55.392 285.094L55.392 288.838L36.624 288.838L36.624 310.534L55.392 310.534ZM38.016 319.083L38.016 346.539L16.464 346.539L16.464 318.987L27.744 318.987L27.744 342.843L34.464 342.843L34.464 319.083L38.016 319.083ZM19.968 322.683L19.968 342.843L24.192 342.843L24.192 322.683L19.968 322.683ZM30.384 379.234L30.384 375.586L34.464 375.586L34.464 355.378L19.968 355.378L19.968 375.586L24.096 375.586L24.096 379.234L16.464 379.234L16.464 351.73L38.016 351.73L38.016 379.234L30.384 379.234ZM16.464 407.695L25.008 395.455L19.872 388.111L16.464 388.111L16.464 384.415L55.392 384.415L55.392 388.111L24.336 388.111L38.016 407.647L38.016 414.079L27.264 398.671L16.464 414.079L16.464 407.695ZM38.016 442.161L34.416 442.161L34.416 429.153L15.984 429.153L15.984 425.505L34.416 425.505L34.416 415.425L38.016 415.425L38.016 425.505L55.392 425.505L55.392 429.153L38.016 429.153L38.016 442.161ZM38.016 449.59L38.016 473.446L16.464 473.446L16.464 469.75L34.416 469.75L34.416 449.59L16.464 449.59L16.464 445.894L55.392 445.894L55.392 449.59L38.016 449.59ZM38.016 478.626L38.016 506.178L16.464 506.178L16.464 478.626L38.016 478.626ZM19.968 482.322L19.968 502.482L34.464 502.482L34.464 482.322L19.968 482.322ZM38.016 511.358L38.016 538.91L16.464 538.91L16.464 535.214L34.464 535.214L34.464 515.054L16.464 515.054L16.464 511.358L38.016 511.358Z"/>
</mask>
<path d="M55.392 310.534L55.392 314.278L16.464 314.278L16.464 310.534L32.976 310.534L32.976 288.838L16.464 288.838L16.464 285.094L55.392 285.094L55.392 288.838L36.624 288.838L36.624 310.534L55.392 310.534ZM38.016 319.083L38.016 346.539L16.464 346.539L16.464 318.987L27.744 318.987L27.744 342.843L34.464 342.843L34.464 319.083L38.016 319.083ZM19.968 322.683L19.968 342.843L24.192 342.843L24.192 322.683L19.968 322.683ZM30.384 379.234L30.384 375.586L34.464 375.586L34.464 355.378L19.968 355.378L19.968 375.586L24.096 375.586L24.096 379.234L16.464 379.234L16.464 351.73L38.016 351.73L38.016 379.234L30.384 379.234ZM16.464 407.695L25.008 395.455L19.872 388.111L16.464 388.111L16.464 384.415L55.392 384.415L55.392 388.111L24.336 388.111L38.016 407.647L38.016 414.079L27.264 398.671L16.464 414.079L16.464 407.695ZM38.016 442.161L34.416 442.161L34.416 429.153L15.984 429.153L15.984 425.505L34.416 425.505L34.416 415.425L38.016 415.425L38.016 425.505L55.392 425.505L55.392 429.153L38.016 429.153L38.016 442.161ZM38.016 449.59L38.016 473.446L16.464 473.446L16.464 469.75L34.416 469.75L34.416 449.59L16.464 449.59L16.464 445.894L55.392 445.894L55.392 449.59L38.016 449.59ZM38.016 478.626L38.016 506.178L16.464 506.178L16.464 478.626L38.016 478.626ZM19.968 482.322L19.968 502.482L34.464 502.482L34.464 482.322L19.968 482.322ZM38.016 511.358L38.016 538.91L16.464 538.91L16.464 535.214L34.464 535.214L34.464 515.054L16.464 515.054L16.464 511.358L38.016 511.358Z" fill="white"/>
<path d="M55.392 310.534L56.392 310.534L56.392 309.534L55.392 309.534L55.392 310.534ZM55.392 314.278L55.392 315.278L56.392 315.278L56.392 314.278L55.392 314.278ZM16.464 314.278L15.464 314.278L15.464 315.278L16.464 315.278L16.464 314.278ZM16.464 310.534L16.464 309.534L15.464 309.534L15.464 310.534L16.464 310.534ZM32.976 310.534L32.976 311.534L33.976 311.534L33.976 310.534L32.976 310.534ZM32.976 288.838L33.976 288.838L33.976 287.838L32.976 287.838L32.976 288.838ZM16.464 288.838L15.464 288.838L15.464 289.838L16.464 289.838L16.464 288.838ZM16.464 285.094L16.464 284.094L15.464 284.094L15.464 285.094L16.464 285.094ZM55.392 285.094L56.392 285.094L56.392 284.094L55.392 284.094L55.392 285.094ZM55.392 288.838L55.392 289.838L56.392 289.838L56.392 288.838L55.392 288.838ZM36.624 288.838L36.624 287.838L35.624 287.838L35.624 288.838L36.624 288.838ZM36.624 310.534L35.624 310.534L35.624 311.534L36.624 311.534L36.624 310.534ZM54.392 310.534L54.392 314.278L56.392 314.278L56.392 310.534L54.392 310.534ZM55.392 313.278L16.464 313.278L16.464 315.278L55.392 315.278L55.392 313.278ZM17.464 314.278L17.464 310.534L15.464 310.534L15.464 314.278L17.464 314.278ZM16.464 311.534L32.976 311.534L32.976 309.534L16.464 309.534L16.464 311.534ZM33.976 310.534L33.976 288.838L31.976 288.838L31.976 310.534L33.976 310.534ZM32.976 287.838L16.464 287.838L16.464 289.838L32.976 289.838L32.976 287.838ZM17.464 288.838L17.464 285.094L15.464 285.094L15.464 288.838L17.464 288.838ZM16.464 286.094L55.392 286.094L55.392 284.094L16.464 284.094L16.464 286.094ZM54.392 285.094L54.392 288.838L56.392 288.838L56.392 285.094L54.392 285.094ZM55.392 287.838L36.624 287.838L36.624 289.838L55.392 289.838L55.392 287.838ZM35.624 288.838L35.624 310.534L37.624 310.534L37.624 288.838L35.624 288.838ZM36.624 311.534L55.392 311.534L55.392 309.534L36.624 309.534L36.624 311.534ZM38.016 319.083L39.016 319.083L39.016 318.083L38.016 318.083L38.016 319.083ZM38.016 346.539L38.016 347.539L39.016 347.539L39.016 346.539L38.016 346.539ZM16.464 346.539L15.464 346.539L15.464 347.539L16.464 347.539L16.464 346.539ZM16.464 318.987L16.464 317.987L15.464 317.987L15.464 318.987L16.464 318.987ZM27.744 318.987L28.744 318.987L28.744 317.987L27.744 317.987L27.744 318.987ZM27.744 342.843L26.744 342.843L26.744 343.843L27.744 343.843L27.744 342.843ZM34.464 342.843L34.464 343.843L35.464 343.843L35.464 342.843L34.464 342.843ZM34.464 319.083L34.464 318.083L33.464 318.083L33.464 319.083L34.464 319.083ZM19.968 322.683L19.968 321.683L18.968 321.683L18.968 322.683L19.968 322.683ZM19.968 342.843L18.968 342.843L18.968 343.843L19.968 343.843L19.968 342.843ZM24.192 342.843L24.192 343.843L25.192 343.843L25.192 342.843L24.192 342.843ZM24.192 322.683L25.192 322.683L25.192 321.683L24.192 321.683L24.192 322.683ZM37.016 319.083L37.016 346.539L39.016 346.539L39.016 319.083L37.016 319.083ZM38.016 345.539L16.464 345.539L16.464 347.539L38.016 347.539L38.016 345.539ZM17.464 346.539L17.464 318.987L15.464 318.987L15.464 346.539L17.464 346.539ZM16.464 319.987L27.744 319.987L27.744 317.987L16.464 317.987L16.464 319.987ZM26.744 318.987L26.744 342.843L28.744 342.843L28.744 318.987L26.744 318.987ZM27.744 343.843L34.464 343.843L34.464 341.843L27.744 341.843L27.744 343.843ZM35.464 342.843L35.464 319.083L33.464 319.083L33.464 342.843L35.464 342.843ZM34.464 320.083L38.016 320.083L38.016 318.083L34.464 318.083L34.464 320.083ZM18.968 322.683L18.968 342.843L20.968 342.843L20.968 322.683L18.968 322.683ZM19.968 343.843L24.192 343.843L24.192 341.843L19.968 341.843L19.968 343.843ZM25.192 342.843L25.192 322.683L23.192 322.683L23.192 342.843L25.192 342.843ZM24.192 321.683L19.968 321.683L19.968 323.683L24.192 323.683L24.192 321.683ZM30.384 379.234L29.384 379.234L29.384 380.234L30.384 380.234L30.384 379.234ZM30.384 375.586L30.384 374.586L29.384 374.586L29.384 375.586L30.384 375.586ZM34.464 375.586L34.464 376.586L35.464 376.586L35.464 375.586L34.464 375.586ZM34.464 355.378L35.464 355.378L35.464 354.378L34.464 354.378L34.464 355.378ZM19.968 355.378L19.968 354.378L18.968 354.378L18.968 355.378L19.968 355.378ZM19.968 375.586L18.968 375.586L18.968 376.586L19.968 376.586L19.968 375.586ZM24.096 375.586L25.096 375.586L25.096 374.586L24.096 374.586L24.096 375.586ZM24.096 379.234L24.096 380.234L25.096 380.234L25.096 379.234L24.096 379.234ZM16.464 379.234L15.464 379.234L15.464 380.234L16.464 380.234L16.464 379.234ZM16.464 351.73L16.464 350.73L15.464 350.73L15.464 351.73L16.464 351.73ZM38.016 351.73L39.016 351.73L39.016 350.73L38.016 350.73L38.016 351.73ZM38.016 379.234L38.016 380.234L39.016 380.234L39.016 379.234L38.016 379.234ZM31.384 379.234L31.384 375.586L29.384 375.586L29.384 379.234L31.384 379.234ZM30.384 376.586L34.464 376.586L34.464 374.586L30.384 374.586L30.384 376.586ZM35.464 375.586L35.464 355.378L33.464 355.378L33.464 375.586L35.464 375.586ZM34.464 354.378L19.968 354.378L19.968 356.378L34.464 356.378L34.464 354.378ZM18.968 355.378L18.968 375.586L20.968 375.586L20.968 355.378L18.968 355.378ZM19.968 376.586L24.096 376.586L24.096 374.586L19.968 374.586L19.968 376.586ZM23.096 375.586L23.096 379.234L25.096 379.234L25.096 375.586L23.096 375.586ZM24.096 378.234L16.464 378.234L16.464 380.234L24.096 380.234L24.096 378.234ZM17.464 379.234L17.464 351.73L15.464 351.73L15.464 379.234L17.464 379.234ZM16.464 352.73L38.016 352.73L38.016 350.73L16.464 350.73L16.464 352.73ZM37.016 351.73L37.016 379.234L39.016 379.234L39.016 351.73L37.016 351.73ZM38.016 378.234L30.384 378.234L30.384 380.234L38.016 380.234L38.016 378.234ZM16.464 407.695L15.644 407.122L15.464 407.38L15.464 407.695L16.464 407.695ZM25.008 395.455L25.828 396.027L26.2279 395.454L25.8275 394.882L25.008 395.455ZM19.872 388.111L20.6915 387.538L20.3929 387.111L19.872 387.111L19.872 388.111ZM16.464 388.111L15.464 388.111L15.464 389.111L16.464 389.111L16.464 388.111ZM16.464 384.415L16.464 383.415L15.464 383.415L15.464 384.415L16.464 384.415ZM55.392 384.415L56.392 384.415L56.392 383.415L55.392 383.415L55.392 384.415ZM55.392 388.111L55.392 389.111L56.392 389.111L56.392 388.111L55.392 388.111ZM24.336 388.111L24.336 387.111L22.415 387.111L23.5169 388.684L24.336 388.111ZM38.016 407.647L39.016 407.647L39.016 407.331L38.8351 407.073L38.016 407.647ZM38.016 414.079L37.1959 414.651L39.016 417.259L39.016 414.079L38.016 414.079ZM27.264 398.671L28.0841 398.099L27.2658 396.926L26.4451 398.097L27.264 398.671ZM16.464 414.079L15.464 414.079L15.464 417.248L17.2829 414.653L16.464 414.079ZM17.284 408.267L25.828 396.027L24.188 394.882L15.644 407.122L17.284 408.267ZM25.8275 394.882L20.6915 387.538L19.0525 388.684L24.1885 396.028L25.8275 394.882ZM19.872 387.111L16.464 387.111L16.464 389.111L19.872 389.111L19.872 387.111ZM17.464 388.111L17.464 384.415L15.464 384.415L15.464 388.111L17.464 388.111ZM16.464 385.415L55.392 385.415L55.392 383.415L16.464 383.415L16.464 385.415ZM54.392 384.415L54.392 388.111L56.392 388.111L56.392 384.415L54.392 384.415ZM55.392 387.111L24.336 387.111L24.336 389.111L55.392 389.111L55.392 387.111ZM23.5169 388.684L37.1969 408.22L38.8351 407.073L25.1551 387.537L23.5169 388.684ZM37.016 407.647L37.016 414.079L39.016 414.079L39.016 407.647L37.016 407.647ZM38.8361 413.507L28.0841 398.099L26.4439 399.243L37.1959 414.651L38.8361 413.507ZM26.4451 398.097L15.6451 413.505L17.2829 414.653L28.0829 399.245L26.4451 398.097ZM17.464 414.079L17.464 407.695L15.464 407.695L15.464 414.079L17.464 414.079ZM38.016 442.161L38.016 443.161L39.016 443.161L39.016 442.161L38.016 442.161ZM34.416 442.161L33.416 442.161L33.416 443.161L34.416 443.161L34.416 442.161ZM34.416 429.153L35.416 429.153L35.416 428.153L34.416 428.153L34.416 429.153ZM15.984 429.153L14.984 429.153L14.984 430.153L15.984 430.153L15.984 429.153ZM15.984 425.505L15.984 424.505L14.984 424.505L14.984 425.505L15.984 425.505ZM34.416 425.505L34.416 426.505L35.416 426.505L35.416 425.505L34.416 425.505ZM34.416 415.425L34.416 414.425L33.416 414.425L33.416 415.425L34.416 415.425ZM38.016 415.425L39.016 415.425L39.016 414.425L38.016 414.425L38.016 415.425ZM38.016 425.505L37.016 425.505L37.016 426.505L38.016 426.505L38.016 425.505ZM55.392 425.505L56.392 425.505L56.392 424.505L55.392 424.505L55.392 425.505ZM55.392 429.153L55.392 430.153L56.392 430.153L56.392 429.153L55.392 429.153ZM38.016 429.153L38.016 428.153L37.016 428.153L37.016 429.153L38.016 429.153ZM38.016 441.161L34.416 441.161L34.416 443.161L38.016 443.161L38.016 441.161ZM35.416 442.161L35.416 429.153L33.416 429.153L33.416 442.161L35.416 442.161ZM34.416 428.153L15.984 428.153L15.984 430.153L34.416 430.153L34.416 428.153ZM16.984 429.153L16.984 425.505L14.984 425.505L14.984 429.153L16.984 429.153ZM15.984 426.505L34.416 426.505L34.416 424.505L15.984 424.505L15.984 426.505ZM35.416 425.505L35.416 415.425L33.416 415.425L33.416 425.505L35.416 425.505ZM34.416 416.425L38.016 416.425L38.016 414.425L34.416 414.425L34.416 416.425ZM37.016 415.425L37.016 425.505L39.016 425.505L39.016 415.425L37.016 415.425ZM38.016 426.505L55.392 426.505L55.392 424.505L38.016 424.505L38.016 426.505ZM54.392 425.505L54.392 429.153L56.392 429.153L56.392 425.505L54.392 425.505ZM55.392 428.153L38.016 428.153L38.016 430.153L55.392 430.153L55.392 428.153ZM37.016 429.153L37.016 442.161L39.016 442.161L39.016 429.153L37.016 429.153ZM38.016 449.59L38.016 448.59L37.016 448.59L37.016 449.59L38.016 449.59ZM38.016 473.446L38.016 474.446L39.016 474.446L39.016 473.446L38.016 473.446ZM16.464 473.446L15.464 473.446L15.464 474.446L16.464 474.446L16.464 473.446ZM16.464 469.75L16.464 468.75L15.464 468.75L15.464 469.75L16.464 469.75ZM34.416 469.75L34.416 470.75L35.416 470.75L35.416 469.75L34.416 469.75ZM34.416 449.59L35.416 449.59L35.416 448.59L34.416 448.59L34.416 449.59ZM16.464 449.59L15.464 449.59L15.464 450.59L16.464 450.59L16.464 449.59ZM16.464 445.894L16.464 444.894L15.464 444.894L15.464 445.894L16.464 445.894ZM55.392 445.894L56.392 445.894L56.392 444.894L55.392 444.894L55.392 445.894ZM55.392 449.59L55.392 450.59L56.392 450.59L56.392 449.59L55.392 449.59ZM37.016 449.59L37.016 473.446L39.016 473.446L39.016 449.59L37.016 449.59ZM38.016 472.446L16.464 472.446L16.464 474.446L38.016 474.446L38.016 472.446ZM17.464 473.446L17.464 469.75L15.464 469.75L15.464 473.446L17.464 473.446ZM16.464 470.75L34.416 470.75L34.416 468.75L16.464 468.75L16.464 470.75ZM35.416 469.75L35.416 449.59L33.416 449.59L33.416 469.75L35.416 469.75ZM34.416 448.59L16.464 448.59L16.464 450.59L34.416 450.59L34.416 448.59ZM17.464 449.59L17.464 445.894L15.464 445.894L15.464 449.59L17.464 449.59ZM16.464 446.894L55.392 446.894L55.392 444.894L16.464 444.894L16.464 446.894ZM54.392 445.894L54.392 449.59L56.392 449.59L56.392 445.894L54.392 445.894ZM55.392 448.59L38.016 448.59L38.016 450.59L55.392 450.59L55.392 448.59ZM38.016 478.626L39.016 478.626L39.016 477.626L38.016 477.626L38.016 478.626ZM38.016 506.178L38.016 507.178L39.016 507.178L39.016 506.178L38.016 506.178ZM16.464 506.178L15.464 506.178L15.464 507.178L16.464 507.178L16.464 506.178ZM16.464 478.626L16.464 477.626L15.464 477.626L15.464 478.626L16.464 478.626ZM19.968 482.322L19.968 481.322L18.968 481.322L18.968 482.322L19.968 482.322ZM19.968 502.482L18.968 502.482L18.968 503.482L19.968 503.482L19.968 502.482ZM34.464 502.482L34.464 503.482L35.464 503.482L35.464 502.482L34.464 502.482ZM34.464 482.322L35.464 482.322L35.464 481.322L34.464 481.322L34.464 482.322ZM37.016 478.626L37.016 506.178L39.016 506.178L39.016 478.626L37.016 478.626ZM38.016 505.178L16.464 505.178L16.464 507.178L38.016 507.178L38.016 505.178ZM17.464 506.178L17.464 478.626L15.464 478.626L15.464 506.178L17.464 506.178ZM16.464 479.626L38.016 479.626L38.016 477.626L16.464 477.626L16.464 479.626ZM18.968 482.322L18.968 502.482L20.968 502.482L20.968 482.322L18.968 482.322ZM19.968 503.482L34.464 503.482L34.464 501.482L19.968 501.482L19.968 503.482ZM35.464 502.482L35.464 482.322L33.464 482.322L33.464 502.482L35.464 502.482ZM34.464 481.322L19.968 481.322L19.968 483.322L34.464 483.322L34.464 481.322ZM38.016 511.358L39.016 511.358L39.016 510.358L38.016 510.358L38.016 511.358ZM38.016 538.91L38.016 539.91L39.016 539.91L39.016 538.91L38.016 538.91ZM16.464 538.91L15.464 538.91L15.464 539.91L16.464 539.91L16.464 538.91ZM16.464 535.214L16.464 534.214L15.464 534.214L15.464 535.214L16.464 535.214ZM34.464 535.214L34.464 536.214L35.464 536.214L35.464 535.214L34.464 535.214ZM34.464 515.054L35.464 515.054L35.464 514.054L34.464 514.054L34.464 515.054ZM16.464 515.054L15.464 515.054L15.464 516.054L16.464 516.054L16.464 515.054ZM16.464 511.358L16.464 510.358L15.464 510.358L15.464 511.358L16.464 511.358ZM37.016 511.358L37.016 538.91L39.016 538.91L39.016 511.358L37.016 511.358ZM38.016 537.91L16.464 537.91L16.464 539.91L38.016 539.91L38.016 537.91ZM17.464 538.91L17.464 535.214L15.464 535.214L15.464 538.91L17.464 538.91ZM16.464 536.214L34.464 536.214L34.464 534.214L16.464 534.214L16.464 536.214ZM35.464 535.214L35.464 515.054L33.464 515.054L33.464 535.214L35.464 535.214ZM34.464 514.054L16.464 514.054L16.464 516.054L34.464 516.054L34.464 514.054ZM17.464 515.054L17.464 511.358L15.464 511.358L15.464 515.054L17.464 515.054ZM16.464 512.358L38.016 512.358L38.016 510.358L16.464 510.358L16.464 512.358Z" fill="white" mask="url(#path-19-outside-2_203_229)"/>
<mask id="path-21-outside-3_203_229" maskUnits="userSpaceOnUse" x="613" y="106" width="514" height="174" fill="black">
<rect fill="white" x="613" y="106" width="514" height="174"/>
<path d="M768.213 244.678V261.057H617.806V244.678H683.323V148.164H626.788V131.256H759.407V148.164H701.287V244.678H768.213ZM813.51 181.098H798.364V140.767H822.492C819.322 134.25 814.038 126.325 809.459 120.513L823.197 113.996C829.185 121.217 836.053 131.08 838.695 137.773L832.531 140.767H863.352C860.71 133.722 855.955 123.859 851.552 116.638L865.466 111.178C871.101 119.28 877.089 130.375 879.027 137.42L870.573 140.767H898.752C904.388 132.665 911.081 121.569 914.955 113.116L931.687 118.752C927.108 126.149 921.472 133.898 916.188 140.767H940.669V181.098H924.642V155.208H813.51V181.098ZM795.546 226.009V210.862H860.71V198.71H868.812C875.152 195.012 881.845 190.256 887.657 185.501H823.901V171.235H902.627L906.149 170.355L916.188 178.28C906.325 189.376 891.355 200.824 877.089 208.573L877.266 210.862H943.135V226.009H877.266V255.421C877.266 264.403 874.976 268.982 867.755 271.448C860.886 273.737 850.848 273.914 836.406 273.914C834.997 269.334 832.003 262.466 829.889 258.063C841.513 258.591 853.489 258.591 856.836 258.415C860.006 258.239 860.71 257.534 860.71 254.893V226.009H795.546ZM1105.02 146.05H1038.63V163.134H1105.02V146.05ZM974.871 273.914V119.632H1011.86L1014.15 119.104L1024.54 125.268C1020.13 140.062 1014.15 158.379 1008.69 172.116C1020.31 186.206 1022.78 198.182 1022.78 208.749C1022.78 218.788 1020.66 226.009 1015.73 229.707C1013.26 231.469 1010.09 232.701 1006.57 233.23C1003.23 233.582 999.175 233.582 995.124 233.406C994.948 229.355 993.716 223.015 991.602 219.316C995.124 219.668 998.119 219.668 1000.23 219.492C1002.35 219.492 1003.75 218.964 1005.34 217.907C1007.45 216.146 1008.33 211.919 1008.33 206.812C1008.33 198.006 1005.52 186.382 994.772 173.877C998.823 162.077 1003.05 146.402 1006.4 134.426H989.136V273.914H974.871ZM1012.21 261.233C1038.98 252.075 1044.61 235.695 1046.55 209.101H1026.12V194.131H1119.99V209.101H1092.7V251.898C1092.7 256.654 1093.05 257.182 1095.87 257.182H1104.67C1107.49 257.182 1108.19 254.364 1108.55 235.695C1111.36 238.513 1118.06 241.155 1122.11 242.212C1120.7 265.636 1117 271.8 1106.43 271.8H1093.4C1080.37 271.8 1077.37 267.045 1077.37 252.075V209.101H1061.7C1059.41 241.683 1052.54 262.466 1020.66 274.09C1019.43 270.039 1015.38 263.875 1012.21 261.233ZM1024.18 164.895V131.961H1062.75V112.763H1078.25V131.961H1119.99V164.895H1106.78V177.4H1036.86V164.895H1024.18Z"/>
</mask>
<path d="M768.213 244.678V261.057H617.806V244.678H683.323V148.164H626.788V131.256H759.407V148.164H701.287V244.678H768.213ZM813.51 181.098H798.364V140.767H822.492C819.322 134.25 814.038 126.325 809.459 120.513L823.197 113.996C829.185 121.217 836.053 131.08 838.695 137.773L832.531 140.767H863.352C860.71 133.722 855.955 123.859 851.552 116.638L865.466 111.178C871.101 119.28 877.089 130.375 879.027 137.42L870.573 140.767H898.752C904.388 132.665 911.081 121.569 914.955 113.116L931.687 118.752C927.108 126.149 921.472 133.898 916.188 140.767H940.669V181.098H924.642V155.208H813.51V181.098ZM795.546 226.009V210.862H860.71V198.71H868.812C875.152 195.012 881.845 190.256 887.657 185.501H823.901V171.235H902.627L906.149 170.355L916.188 178.28C906.325 189.376 891.355 200.824 877.089 208.573L877.266 210.862H943.135V226.009H877.266V255.421C877.266 264.403 874.976 268.982 867.755 271.448C860.886 273.737 850.848 273.914 836.406 273.914C834.997 269.334 832.003 262.466 829.889 258.063C841.513 258.591 853.489 258.591 856.836 258.415C860.006 258.239 860.71 257.534 860.71 254.893V226.009H795.546ZM1105.02 146.05H1038.63V163.134H1105.02V146.05ZM974.871 273.914V119.632H1011.86L1014.15 119.104L1024.54 125.268C1020.13 140.062 1014.15 158.379 1008.69 172.116C1020.31 186.206 1022.78 198.182 1022.78 208.749C1022.78 218.788 1020.66 226.009 1015.73 229.707C1013.26 231.469 1010.09 232.701 1006.57 233.23C1003.23 233.582 999.175 233.582 995.124 233.406C994.948 229.355 993.716 223.015 991.602 219.316C995.124 219.668 998.119 219.668 1000.23 219.492C1002.35 219.492 1003.75 218.964 1005.34 217.907C1007.45 216.146 1008.33 211.919 1008.33 206.812C1008.33 198.006 1005.52 186.382 994.772 173.877C998.823 162.077 1003.05 146.402 1006.4 134.426H989.136V273.914H974.871ZM1012.21 261.233C1038.98 252.075 1044.61 235.695 1046.55 209.101H1026.12V194.131H1119.99V209.101H1092.7V251.898C1092.7 256.654 1093.05 257.182 1095.87 257.182H1104.67C1107.49 257.182 1108.19 254.364 1108.55 235.695C1111.36 238.513 1118.06 241.155 1122.11 242.212C1120.7 265.636 1117 271.8 1106.43 271.8H1093.4C1080.37 271.8 1077.37 267.045 1077.37 252.075V209.101H1061.7C1059.41 241.683 1052.54 262.466 1020.66 274.09C1019.43 270.039 1015.38 263.875 1012.21 261.233ZM1024.18 164.895V131.961H1062.75V112.763H1078.25V131.961H1119.99V164.895H1106.78V177.4H1036.86V164.895H1024.18Z" fill="black"/>
<path d="M768.213 244.678H772.213V240.678H768.213V244.678ZM768.213 261.057V265.057H772.213V261.057H768.213ZM617.806 261.057H613.806V265.057H617.806V261.057ZM617.806 244.678V240.678H613.806V244.678H617.806ZM683.323 244.678V248.678H687.323V244.678H683.323ZM683.323 148.164H687.323V144.164H683.323V148.164ZM626.788 148.164H622.788V152.164H626.788V148.164ZM626.788 131.256V127.256H622.788V131.256H626.788ZM759.407 131.256H763.407V127.256H759.407V131.256ZM759.407 148.164V152.164H763.407V148.164H759.407ZM701.287 148.164V144.164H697.287V148.164H701.287ZM701.287 244.678H697.287V248.678H701.287V244.678ZM764.213 244.678V261.057H772.213V244.678H764.213ZM768.213 257.057H617.806V265.057H768.213V257.057ZM621.806 261.057V244.678H613.806V261.057H621.806ZM617.806 248.678H683.323V240.678H617.806V248.678ZM687.323 244.678V148.164H679.323V244.678H687.323ZM683.323 144.164H626.788V152.164H683.323V144.164ZM630.788 148.164V131.256H622.788V148.164H630.788ZM626.788 135.256H759.407V127.256H626.788V135.256ZM755.407 131.256V148.164H763.407V131.256H755.407ZM759.407 144.164H701.287V152.164H759.407V144.164ZM697.287 148.164V244.678H705.287V148.164H697.287ZM701.287 248.678H768.213V240.678H701.287V248.678ZM813.51 181.098V185.098H817.51V181.098H813.51ZM798.364 181.098H794.364V185.098H798.364V181.098ZM798.364 140.767V136.767H794.364V140.767H798.364ZM822.492 140.767V144.767H828.886L826.089 139.017L822.492 140.767ZM809.459 120.513L807.745 116.899L803.213 119.048L806.317 122.988L809.459 120.513ZM823.197 113.996L826.276 111.443L824.291 109.05L821.482 110.382L823.197 113.996ZM838.695 137.773L840.443 141.371L843.777 139.751L842.416 136.304L838.695 137.773ZM832.531 140.767L830.783 137.169L832.531 144.767V140.767ZM863.352 140.767V144.767H869.124L867.097 139.362L863.352 140.767ZM851.552 116.638L850.091 112.914L845.657 114.654L848.137 118.721L851.552 116.638ZM865.466 111.178L868.749 108.894L866.945 106.301L864.004 107.455L865.466 111.178ZM879.027 137.42L880.499 141.139L883.835 139.819L882.884 136.36L879.027 137.42ZM870.573 140.767L869.101 137.047L870.573 144.767V140.767ZM898.752 140.767V144.767H900.842L902.036 143.051L898.752 140.767ZM914.955 113.116L916.232 109.325L912.82 108.175L911.319 111.449L914.955 113.116ZM931.687 118.752L935.088 120.857L937.742 116.57L932.964 114.961L931.687 118.752ZM916.188 140.767L913.018 138.328L908.065 144.767H916.188V140.767ZM940.669 140.767H944.669V136.767H940.669V140.767ZM940.669 181.098V185.098H944.669V181.098H940.669ZM924.642 181.098H920.642V185.098H924.642V181.098ZM924.642 155.208H928.642V151.208H924.642V155.208ZM813.51 155.208V151.208H809.51V155.208H813.51ZM795.546 226.009H791.546V230.009H795.546V226.009ZM795.546 210.862V206.862H791.546V210.862H795.546ZM860.71 210.862V214.862H864.71V210.862H860.71ZM860.71 198.71V194.71H856.71V198.71H860.71ZM868.812 198.71V202.71H869.893L870.827 202.165L868.812 198.71ZM887.657 185.501L890.19 188.597L898.862 181.501H887.657V185.501ZM823.901 185.501H819.901V189.501H823.901V185.501ZM823.901 171.235V167.235H819.901V171.235H823.901ZM902.627 171.235V175.235H903.119L903.597 175.116L902.627 171.235ZM906.149 170.355L908.628 167.215L907.086 165.998L905.179 166.474L906.149 170.355ZM916.188 178.28L919.178 180.938L921.995 177.768L918.667 175.141L916.188 178.28ZM877.09 208.573L875.18 205.058L872.902 206.295L873.101 208.88L877.09 208.573ZM877.266 210.862L873.277 211.169L873.561 214.862H877.266V210.862ZM943.135 210.862H947.135V206.862H943.135V210.862ZM943.135 226.009V230.009H947.135V226.009H943.135ZM877.266 226.009V222.009H873.266V226.009H877.266ZM867.755 271.448L869.02 275.243L869.034 275.238L869.048 275.233L867.755 271.448ZM836.406 273.913L832.583 275.09L833.451 277.913H836.406V273.913ZM829.889 258.063L830.071 254.067L823.389 253.763L826.283 259.794L829.889 258.063ZM856.836 258.415L857.046 262.409L857.058 262.409L856.836 258.415ZM860.71 226.009H864.71V222.009H860.71V226.009ZM813.51 177.098H798.364V185.098H813.51V177.098ZM802.364 181.098V140.767H794.364V181.098H802.364ZM798.364 144.767H822.492V136.767H798.364V144.767ZM826.089 139.017C822.758 132.17 817.299 124 812.601 118.037L806.317 122.988C810.778 128.649 815.886 136.33 818.895 142.516L826.089 139.017ZM811.174 124.127L824.911 117.61L821.482 110.382L807.745 116.899L811.174 124.127ZM820.118 116.55C826.047 123.7 832.575 133.163 834.975 139.241L842.416 136.304C839.532 128.997 832.322 118.734 826.276 111.443L820.118 116.55ZM836.948 134.174L830.783 137.169L834.279 144.365L840.443 141.371L836.948 134.174ZM832.531 144.767H863.352V136.767H832.531V144.767ZM867.097 139.362C864.367 132.081 859.501 121.991 854.967 114.556L848.137 118.721C852.409 125.727 857.054 135.362 859.607 142.171L867.097 139.362ZM853.013 120.362L866.927 114.902L864.004 107.455L850.091 112.914L853.013 120.362ZM862.182 113.463C867.713 121.414 873.408 132.075 875.17 138.481L882.884 136.36C880.771 128.676 874.49 117.146 868.749 108.894L862.182 113.463ZM877.555 133.701L869.101 137.047L872.045 144.486L880.499 141.139L877.555 133.701ZM870.573 144.767H898.752V136.767H870.573V144.767ZM902.036 143.051C907.758 134.825 914.587 123.519 918.592 114.782L911.319 111.449C907.574 119.62 901.018 130.505 895.469 138.482L902.036 143.051ZM913.678 116.906L930.41 122.542L932.964 114.961L916.232 109.325L913.678 116.906ZM928.286 116.646C923.808 123.879 918.264 131.507 913.018 138.328L919.359 143.205C924.679 136.289 930.407 128.419 935.088 120.857L928.286 116.646ZM916.188 144.767H940.669V136.767H916.188V144.767ZM936.669 140.767V181.098H944.669V140.767H936.669ZM940.669 177.098H924.642V185.098H940.669V177.098ZM928.642 181.098V155.208H920.642V181.098H928.642ZM924.642 151.208H813.51V159.208H924.642V151.208ZM809.51 155.208V181.098H817.51V155.208H809.51ZM799.546 226.009V210.862H791.546V226.009H799.546ZM795.546 214.862H860.71V206.862H795.546V214.862ZM864.71 210.862V198.71H856.71V210.862H864.71ZM860.71 202.71H868.812V194.71H860.71V202.71ZM870.827 202.165C877.377 198.345 884.241 193.464 890.19 188.597L885.124 182.405C879.448 187.049 872.928 191.678 866.796 195.255L870.827 202.165ZM887.657 181.501H823.901V189.501H887.657V181.501ZM827.901 185.501V171.235H819.901V185.501H827.901ZM823.901 175.235H902.627V167.235H823.901V175.235ZM903.597 175.116L907.119 174.235L905.179 166.474L901.657 167.355L903.597 175.116ZM903.671 173.494L913.71 181.42L918.667 175.141L908.628 167.215L903.671 173.494ZM913.199 175.623C903.69 186.32 889.105 197.494 875.18 205.058L878.999 212.088C893.605 204.153 908.961 192.432 919.178 180.938L913.199 175.623ZM873.101 208.88L873.277 211.169L881.254 210.556L881.078 208.266L873.101 208.88ZM877.266 214.862H943.135V206.862H877.266V214.862ZM939.135 210.862V226.009H947.135V210.862H939.135ZM943.135 222.009H877.266V230.009H943.135V222.009ZM873.266 226.009V255.421H881.266V226.009H873.266ZM873.266 255.421C873.266 259.673 872.703 262.221 871.747 263.89C870.887 265.393 869.438 266.647 866.463 267.662L869.048 275.233C873.294 273.783 876.6 271.515 878.689 267.866C880.684 264.383 881.266 260.151 881.266 255.421H873.266ZM866.49 267.653C860.378 269.691 851.099 269.913 836.406 269.913V277.913C850.597 277.913 861.395 277.784 869.02 275.243L866.49 267.653ZM840.229 272.737C838.73 267.867 835.632 260.783 833.495 256.332L826.283 259.794C828.373 264.148 831.263 270.802 832.583 275.09L840.229 272.737ZM829.708 262.059C841.386 262.589 853.51 262.595 857.046 262.409L856.625 254.42C853.468 254.587 841.64 254.593 830.071 254.067L829.708 262.059ZM857.058 262.409C858.565 262.325 860.933 262.126 862.675 260.518C864.614 258.728 864.71 256.264 864.71 254.893H856.71C856.71 255.139 856.702 255.309 856.691 255.423C856.68 255.538 856.671 255.559 856.682 255.517C856.694 255.471 856.733 255.341 856.829 255.168C856.93 254.988 857.071 254.803 857.249 254.639C857.605 254.311 857.896 254.258 857.779 254.289C857.725 254.303 857.608 254.328 857.405 254.354C857.203 254.38 856.945 254.403 856.614 254.421L857.058 262.409ZM864.71 254.893V226.009H856.71V254.893H864.71ZM860.71 222.009H795.546V230.009H860.71V222.009ZM1105.02 146.05H1109.02V142.05H1105.02V146.05ZM1038.63 146.05V142.05H1034.63V146.05H1038.63ZM1038.63 163.134H1034.63V167.134H1038.63V163.134ZM1105.02 163.134V167.134H1109.02V163.134H1105.02ZM974.871 273.913H970.871V277.913H974.871V273.913ZM974.871 119.632V115.632H970.871V119.632H974.871ZM1011.86 119.632V123.632H1012.31L1012.76 123.53L1011.86 119.632ZM1014.15 119.104L1016.19 115.664L1014.81 114.846L1013.25 115.206L1014.15 119.104ZM1024.54 125.268L1028.37 126.409L1029.26 123.419L1026.58 121.828L1024.54 125.268ZM1008.69 172.116L1004.97 170.639L1004.09 172.837L1005.6 174.661L1008.69 172.116ZM1015.73 229.707L1018.06 232.962L1018.09 232.935L1018.13 232.907L1015.73 229.707ZM1006.57 233.23L1006.99 237.208L1007.08 237.199L1007.17 237.185L1006.57 233.23ZM995.124 233.406L991.128 233.58L991.288 237.243L994.951 237.402L995.124 233.406ZM991.602 219.316L992 215.336L984.28 214.564L988.129 221.301L991.602 219.316ZM1000.23 219.492V215.492H1000.07L999.9 215.506L1000.23 219.492ZM1005.34 217.907L1007.56 221.235L1007.74 221.117L1007.9 220.98L1005.34 217.907ZM994.772 173.877L990.989 172.578L990.245 174.746L991.738 176.484L994.772 173.877ZM1006.4 134.426L1010.25 135.503L1011.67 130.426H1006.4V134.426ZM989.136 134.426V130.426H985.136V134.426H989.136ZM989.136 273.913V277.913H993.136V273.913H989.136ZM1012.21 261.233L1010.91 257.448L1004.18 259.751L1009.65 264.306L1012.21 261.233ZM1046.55 209.101L1050.54 209.392L1050.85 205.101H1046.55V209.101ZM1026.12 209.101H1022.12V213.101H1026.12V209.101ZM1026.12 194.131V190.131H1022.12V194.131H1026.12ZM1119.99 194.131H1123.99V190.131H1119.99V194.131ZM1119.99 209.101V213.101H1123.99V209.101H1119.99ZM1092.7 209.101V205.101H1088.7V209.101H1092.7ZM1108.55 235.695L1111.37 232.867L1104.72 226.217L1104.55 235.62L1108.55 235.695ZM1122.11 242.212L1126.1 242.452L1126.3 239.171L1123.12 238.341L1122.11 242.212ZM1077.37 209.101H1081.37V205.101H1077.37V209.101ZM1061.7 209.101V205.101H1057.97L1057.71 208.821L1061.7 209.101ZM1020.66 274.09L1016.84 275.254L1018.06 279.294L1022.03 277.848L1020.66 274.09ZM1024.18 164.895H1020.18V168.895H1024.18V164.895ZM1024.18 131.961V127.961H1020.18V131.961H1024.18ZM1062.75 131.961V135.961H1066.75V131.961H1062.75ZM1062.75 112.763V108.763H1058.75V112.763H1062.75ZM1078.25 112.763H1082.25V108.763H1078.25V112.763ZM1078.25 131.961H1074.25V135.961H1078.25V131.961ZM1119.99 131.961H1123.99V127.961H1119.99V131.961ZM1119.99 164.895V168.895H1123.99V164.895H1119.99ZM1106.78 164.895V160.895H1102.78V164.895H1106.78ZM1106.78 177.4V181.4H1110.78V177.4H1106.78ZM1036.86 177.4H1032.86V181.4H1036.86V177.4ZM1036.86 164.895H1040.86V160.895H1036.86V164.895ZM1105.02 142.05H1038.63V150.05H1105.02V142.05ZM1034.63 146.05V163.134H1042.63V146.05H1034.63ZM1038.63 167.134H1105.02V159.134H1038.63V167.134ZM1109.02 163.134V146.05H1101.02V163.134H1109.02ZM978.871 273.913V119.632H970.871V273.913H978.871ZM974.871 123.632H1011.86V115.632H974.871V123.632ZM1012.76 123.53L1015.04 123.001L1013.25 115.206L1010.96 115.735L1012.76 123.53ZM1012.1 122.544L1022.5 128.708L1026.58 121.828L1016.19 115.664L1012.1 122.544ZM1020.7 124.127C1016.32 138.867 1010.37 157.057 1004.97 170.639L1012.4 173.593C1017.92 159.7 1023.95 141.257 1028.37 126.409L1020.7 124.127ZM1005.6 174.661C1016.57 187.963 1018.78 199.014 1018.78 208.749H1026.78C1026.78 197.349 1024.04 184.448 1011.77 169.57L1005.6 174.661ZM1018.78 208.749C1018.78 218.549 1016.65 224.017 1013.33 226.507L1018.13 232.907C1024.67 228.001 1026.78 219.026 1026.78 208.749H1018.78ZM1013.41 226.452C1011.52 227.796 1008.97 228.825 1005.98 229.274L1007.17 237.185C1011.22 236.577 1015.01 235.141 1018.06 232.962L1013.41 226.452ZM1006.15 229.252C1003.09 229.574 999.268 229.582 995.298 229.41L994.951 237.402C999.082 237.582 1003.36 237.59 1006.99 237.208L1006.15 229.252ZM999.121 233.232C998.931 228.864 997.632 221.807 995.075 217.332L988.129 221.301C989.799 224.223 990.966 229.846 991.128 233.58L999.121 233.232ZM991.204 223.296C994.931 223.669 998.172 223.678 1000.56 223.479L999.9 215.506C998.065 215.659 995.318 215.668 992 215.336L991.204 223.296ZM1000.23 223.492C1003.24 223.492 1005.41 222.668 1007.56 221.235L1003.12 214.579C1002.1 215.26 1001.45 215.492 1000.23 215.492V223.492ZM1007.9 220.98C1009.9 219.311 1010.94 216.85 1011.51 214.595C1012.1 212.25 1012.33 209.561 1012.33 206.812H1004.33C1004.33 209.17 1004.13 211.148 1003.75 212.634C1003.35 214.209 1002.89 214.742 1002.78 214.834L1007.9 220.98ZM1012.33 206.812C1012.33 197.064 1009.18 184.512 997.806 171.27L991.738 176.484C1001.85 188.252 1004.33 198.947 1004.33 206.812H1012.33ZM998.556 175.176C1002.66 163.234 1006.92 147.402 1010.25 135.503L1002.54 133.35C999.176 145.403 994.991 160.92 990.989 172.578L998.556 175.176ZM1006.4 130.426H989.136V138.426H1006.4V130.426ZM985.136 134.426V273.913H993.136V134.426H985.136ZM989.136 269.913H974.871V277.913H989.136V269.913ZM1013.5 265.018C1027.55 260.211 1036.55 253.315 1042.15 243.722C1047.63 234.321 1049.56 222.792 1050.54 209.392L1042.56 208.811C1041.6 222.005 1039.75 231.963 1035.24 239.689C1030.84 247.224 1023.63 253.096 1010.91 257.448L1013.5 265.018ZM1046.55 205.101H1026.12V213.101H1046.55V205.101ZM1030.12 209.101V194.131H1022.12V209.101H1030.12ZM1026.12 198.131H1119.99V190.131H1026.12V198.131ZM1115.99 194.131V209.101H1123.99V194.131H1115.99ZM1119.99 205.101H1092.7V213.101H1119.99V205.101ZM1088.7 209.101V251.898H1096.7V209.101H1088.7ZM1088.7 251.898C1088.7 253.094 1088.72 254.207 1088.82 255.157C1088.91 256.052 1089.12 257.272 1089.8 258.397C1090.62 259.746 1091.83 260.51 1093.07 260.869C1094.09 261.163 1095.14 261.182 1095.87 261.182V253.182C1095.56 253.182 1095.38 253.174 1095.26 253.164C1095.14 253.154 1095.17 253.148 1095.29 253.182C1095.42 253.22 1095.68 253.315 1095.97 253.524C1096.27 253.742 1096.5 254.004 1096.64 254.25C1096.71 254.364 1096.76 254.459 1096.78 254.524C1096.81 254.588 1096.82 254.627 1096.82 254.629C1096.82 254.632 1096.81 254.609 1096.8 254.552C1096.79 254.495 1096.78 254.414 1096.77 254.303C1096.72 253.817 1096.7 253.081 1096.7 251.898H1088.7ZM1095.87 261.182H1104.67V253.182H1095.87V261.182ZM1104.67 261.182C1106.17 261.182 1108.03 260.745 1109.48 259.026C1110.64 257.646 1111.15 255.848 1111.46 254.18C1112.11 250.744 1112.37 245.004 1112.55 235.771L1104.55 235.62C1104.37 245.056 1104.1 250.059 1103.6 252.699C1103.34 254.069 1103.13 254.142 1103.36 253.874C1103.53 253.665 1103.81 253.441 1104.17 253.3C1104.49 253.176 1104.7 253.182 1104.67 253.182V261.182ZM1105.72 238.524C1107.66 240.463 1110.58 242.068 1113.22 243.259C1115.95 244.495 1118.85 245.496 1121.1 246.082L1123.12 238.341C1121.32 237.871 1118.84 237.023 1116.51 235.969C1114.08 234.87 1112.25 233.745 1111.37 232.867L1105.72 238.524ZM1118.11 241.972C1117.41 253.744 1116.13 260.292 1114.19 263.884C1113.3 265.523 1112.35 266.386 1111.33 266.906C1110.24 267.461 1108.72 267.8 1106.43 267.8V275.8C1109.43 275.8 1112.34 275.368 1114.96 274.036C1117.64 272.668 1119.69 270.526 1121.22 267.696C1124.12 262.35 1125.4 254.104 1126.1 242.452L1118.11 241.972ZM1106.43 267.8H1093.4V275.8H1106.43V267.8ZM1093.4 267.8C1087.14 267.8 1084.83 266.608 1083.66 265.097C1082.21 263.24 1081.37 259.639 1081.37 252.075H1073.37C1073.37 259.48 1074.03 265.742 1077.34 270.005C1080.92 274.614 1086.63 275.8 1093.4 275.8V267.8ZM1081.37 252.075V209.101H1073.37V252.075H1081.37ZM1077.37 205.101H1061.7V213.101H1077.37V205.101ZM1057.71 208.821C1056.57 225.003 1054.32 237.594 1048.78 247.504C1043.36 257.221 1034.53 264.776 1019.29 270.332L1022.03 277.848C1038.67 271.779 1049.22 263.131 1055.77 251.405C1062.21 239.873 1064.54 225.782 1065.69 209.382L1057.71 208.821ZM1024.49 272.925C1023.72 270.393 1022.18 267.48 1020.5 264.936C1018.84 262.397 1016.78 259.835 1014.77 258.16L1009.65 264.306C1010.81 265.272 1012.36 267.113 1013.82 269.33C1015.27 271.541 1016.37 273.736 1016.84 275.254L1024.49 272.925ZM1028.18 164.895V131.961H1020.18V164.895H1028.18ZM1024.18 135.961H1062.75V127.961H1024.18V135.961ZM1066.75 131.961V112.763H1058.75V131.961H1066.75ZM1062.75 116.763H1078.25V108.763H1062.75V116.763ZM1074.25 112.763V131.961H1082.25V112.763H1074.25ZM1078.25 135.961H1119.99V127.961H1078.25V135.961ZM1115.99 131.961V164.895H1123.99V131.961H1115.99ZM1119.99 160.895H1106.78V168.895H1119.99V160.895ZM1102.78 164.895V177.4H1110.78V164.895H1102.78ZM1106.78 173.4H1036.86V181.4H1106.78V173.4ZM1040.86 177.4V164.895H1032.86V177.4H1040.86ZM1036.86 160.895H1024.18V168.895H1036.86V160.895Z" fill="black" mask="url(#path-21-outside-3_203_229)"/>
<mask id="path-23-outside-4_203_229" maskUnits="userSpaceOnUse" x="615" y="286" width="882" height="152" fill="black">
<rect fill="white" x="615" y="286" width="882" height="152"/>
<path d="M619.084 301.074H639.514V354.086H694.992V301.074H715.421V430.875H694.992V371.874H639.514V430.875H619.084V301.074ZM763.544 433.164C746.812 433.164 735.012 422.245 735.012 405.161C735.012 384.379 752.624 373.636 792.956 369.233C792.78 357.961 788.729 348.098 774.463 348.098C764.248 348.098 754.738 352.677 746.46 357.961L738.887 344.223C748.926 337.883 762.487 331.543 777.985 331.543C802.114 331.543 813.21 346.865 813.21 372.579V430.875H796.654L795.069 419.779H794.365C785.559 427.352 775.168 433.164 763.544 433.164ZM754.561 403.752C754.561 413.263 761.078 417.137 769.708 417.137C778.162 417.137 785.03 413.086 792.956 405.866V382.089C764.248 385.436 754.561 392.833 754.561 403.752ZM879.641 433.164C853.399 433.164 833.322 414.672 833.322 382.442C833.322 350.212 855.689 331.543 881.226 331.543C893.555 331.543 902.537 336.474 909.582 342.638L899.543 355.847C894.259 351.092 888.8 348.274 882.283 348.274C865.904 348.274 854.28 362.012 854.28 382.442C854.28 403.048 865.552 416.609 881.579 416.609C889.68 416.609 896.901 412.734 902.713 407.803L911.167 421.188C902.185 429.113 890.737 433.164 879.641 433.164ZM929.413 290.507H949.315V380.856H950.019L987.533 334.008H1010.08L977.318 373.459L1013.77 430.875H991.76L965.518 387.021L949.315 405.689V430.875H929.413V290.507ZM1053.61 433.164C1036.88 433.164 1025.08 422.245 1025.08 405.161C1025.08 384.379 1042.69 373.636 1083.02 369.233C1082.85 357.961 1078.8 348.098 1064.53 348.098C1054.32 348.098 1044.81 352.677 1036.53 357.961L1028.96 344.223C1038.99 337.883 1052.56 331.543 1068.05 331.543C1092.18 331.543 1103.28 346.865 1103.28 372.579V430.875H1086.72L1085.14 419.779H1084.43C1075.63 427.352 1065.24 433.164 1053.61 433.164ZM1044.63 403.752C1044.63 413.263 1051.15 417.137 1059.78 417.137C1068.23 417.137 1075.1 413.086 1083.02 405.866V382.089C1054.32 385.436 1044.63 392.833 1044.63 403.752ZM1162.84 433.164C1141 433.164 1133.43 419.603 1133.43 399.173V350.212H1119.34V335.065L1134.49 334.008L1136.78 307.238H1153.68V334.008H1178.87V350.212H1153.68V399.349C1153.68 410.973 1157.73 416.961 1167.77 416.961C1171.12 416.961 1175.35 415.904 1178.16 414.672L1181.86 429.642C1176.4 431.403 1169.89 433.164 1162.84 433.164ZM1198.33 290.507H1218.58V327.668L1217.7 346.865C1226.15 338.764 1235.84 331.543 1249.05 331.543C1269.66 331.543 1278.81 345.28 1278.81 369.937V430.875H1258.56V372.403C1258.56 355.671 1253.63 348.979 1242.18 348.979C1233.2 348.979 1227.03 353.558 1218.58 362.188V430.875H1198.33V290.507ZM1344.7 433.164C1320.75 433.164 1299.08 414.672 1299.08 382.442C1299.08 350.212 1320.75 331.543 1344.7 331.543C1368.65 331.543 1390.31 350.212 1390.31 382.442C1390.31 414.672 1368.65 433.164 1344.7 433.164ZM1320.04 382.442C1320.04 403.048 1329.55 416.609 1344.7 416.609C1360.02 416.609 1369.53 403.048 1369.53 382.442C1369.53 362.012 1360.02 348.274 1344.7 348.274C1329.55 348.274 1320.04 362.012 1320.04 382.442ZM1412.37 334.008H1428.93L1430.52 347.394H1431.04C1440.03 338.764 1449.89 331.543 1463.1 331.543C1483.7 331.543 1492.86 345.28 1492.86 369.937V430.875H1472.61V372.403C1472.61 355.671 1467.68 348.979 1456.23 348.979C1447.25 348.979 1441.08 353.558 1432.63 362.188V430.875H1412.37V334.008Z"/>
</mask>
<path d="M619.084 301.074H639.514V354.086H694.992V301.074H715.421V430.875H694.992V371.874H639.514V430.875H619.084V301.074ZM763.544 433.164C746.812 433.164 735.012 422.245 735.012 405.161C735.012 384.379 752.624 373.636 792.956 369.233C792.78 357.961 788.729 348.098 774.463 348.098C764.248 348.098 754.738 352.677 746.46 357.961L738.887 344.223C748.926 337.883 762.487 331.543 777.985 331.543C802.114 331.543 813.21 346.865 813.21 372.579V430.875H796.654L795.069 419.779H794.365C785.559 427.352 775.168 433.164 763.544 433.164ZM754.561 403.752C754.561 413.263 761.078 417.137 769.708 417.137C778.162 417.137 785.03 413.086 792.956 405.866V382.089C764.248 385.436 754.561 392.833 754.561 403.752ZM879.641 433.164C853.399 433.164 833.322 414.672 833.322 382.442C833.322 350.212 855.689 331.543 881.226 331.543C893.555 331.543 902.537 336.474 909.582 342.638L899.543 355.847C894.259 351.092 888.8 348.274 882.283 348.274C865.904 348.274 854.28 362.012 854.28 382.442C854.28 403.048 865.552 416.609 881.579 416.609C889.68 416.609 896.901 412.734 902.713 407.803L911.167 421.188C902.185 429.113 890.737 433.164 879.641 433.164ZM929.413 290.507H949.315V380.856H950.019L987.533 334.008H1010.08L977.318 373.459L1013.77 430.875H991.76L965.518 387.021L949.315 405.689V430.875H929.413V290.507ZM1053.61 433.164C1036.88 433.164 1025.08 422.245 1025.08 405.161C1025.08 384.379 1042.69 373.636 1083.02 369.233C1082.85 357.961 1078.8 348.098 1064.53 348.098C1054.32 348.098 1044.81 352.677 1036.53 357.961L1028.96 344.223C1038.99 337.883 1052.56 331.543 1068.05 331.543C1092.18 331.543 1103.28 346.865 1103.28 372.579V430.875H1086.72L1085.14 419.779H1084.43C1075.63 427.352 1065.24 433.164 1053.61 433.164ZM1044.63 403.752C1044.63 413.263 1051.15 417.137 1059.78 417.137C1068.23 417.137 1075.1 413.086 1083.02 405.866V382.089C1054.32 385.436 1044.63 392.833 1044.63 403.752ZM1162.84 433.164C1141 433.164 1133.43 419.603 1133.43 399.173V350.212H1119.34V335.065L1134.49 334.008L1136.78 307.238H1153.68V334.008H1178.87V350.212H1153.68V399.349C1153.68 410.973 1157.73 416.961 1167.77 416.961C1171.12 416.961 1175.35 415.904 1178.16 414.672L1181.86 429.642C1176.4 431.403 1169.89 433.164 1162.84 433.164ZM1198.33 290.507H1218.58V327.668L1217.7 346.865C1226.15 338.764 1235.84 331.543 1249.05 331.543C1269.66 331.543 1278.81 345.28 1278.81 369.937V430.875H1258.56V372.403C1258.56 355.671 1253.63 348.979 1242.18 348.979C1233.2 348.979 1227.03 353.558 1218.58 362.188V430.875H1198.33V290.507ZM1344.7 433.164C1320.75 433.164 1299.08 414.672 1299.08 382.442C1299.08 350.212 1320.75 331.543 1344.7 331.543C1368.65 331.543 1390.31 350.212 1390.31 382.442C1390.31 414.672 1368.65 433.164 1344.7 433.164ZM1320.04 382.442C1320.04 403.048 1329.55 416.609 1344.7 416.609C1360.02 416.609 1369.53 403.048 1369.53 382.442C1369.53 362.012 1360.02 348.274 1344.7 348.274C1329.55 348.274 1320.04 362.012 1320.04 382.442ZM1412.37 334.008H1428.93L1430.52 347.394H1431.04C1440.03 338.764 1449.89 331.543 1463.1 331.543C1483.7 331.543 1492.86 345.28 1492.86 369.937V430.875H1472.61V372.403C1472.61 355.671 1467.68 348.979 1456.23 348.979C1447.25 348.979 1441.08 353.558 1432.63 362.188V430.875H1412.37V334.008Z" fill="black"/>
<path d="M619.084 301.074V297.074H615.084V301.074H619.084ZM639.514 301.074H643.514V297.074H639.514V301.074ZM639.514 354.086H635.514V358.086H639.514V354.086ZM694.992 354.086V358.086H698.992V354.086H694.992ZM694.992 301.074V297.074H690.992V301.074H694.992ZM715.421 301.074H719.421V297.074H715.421V301.074ZM715.421 430.875V434.875H719.421V430.875H715.421ZM694.992 430.875H690.992V434.875H694.992V430.875ZM694.992 371.874H698.992V367.874H694.992V371.874ZM639.514 371.874V367.874H635.514V371.874H639.514ZM639.514 430.875V434.875H643.514V430.875H639.514ZM619.084 430.875H615.084V434.875H619.084V430.875ZM619.084 305.074H639.514V297.074H619.084V305.074ZM635.514 301.074V354.086H643.514V301.074H635.514ZM639.514 358.086H694.992V350.086H639.514V358.086ZM698.992 354.086V301.074H690.992V354.086H698.992ZM694.992 305.074H715.421V297.074H694.992V305.074ZM711.421 301.074V430.875H719.421V301.074H711.421ZM715.421 426.875H694.992V434.875H715.421V426.875ZM698.992 430.875V371.874H690.992V430.875H698.992ZM694.992 367.874H639.514V375.874H694.992V367.874ZM635.514 371.874V430.875H643.514V371.874H635.514ZM639.514 426.875H619.084V434.875H639.514V426.875ZM623.084 430.875V301.074H615.084V430.875H623.084ZM792.956 369.233L793.39 373.209L797.012 372.813L796.955 369.17L792.956 369.233ZM746.46 357.961L742.957 359.892L745.016 363.628L748.612 361.333L746.46 357.961ZM738.887 344.223L736.751 340.841L733.564 342.854L735.384 346.155L738.887 344.223ZM813.21 430.875V434.875H817.21V430.875H813.21ZM796.654 430.875L792.694 431.44L793.185 434.875H796.654V430.875ZM795.069 419.779L799.029 419.213L798.538 415.779H795.069V419.779ZM794.365 419.779V415.779H792.881L791.756 416.746L794.365 419.779ZM792.956 405.866L795.65 408.822L796.956 407.632V405.866H792.956ZM792.956 382.089H796.956V377.596L792.493 378.116L792.956 382.089ZM763.544 429.164C756.056 429.164 749.97 426.733 745.781 422.691C741.609 418.665 739.012 412.747 739.012 405.161H731.012C731.012 414.659 734.315 422.743 740.226 428.447C746.12 434.135 754.3 437.164 763.544 437.164V429.164ZM739.012 405.161C739.012 400.55 739.983 396.686 741.868 393.381C743.758 390.069 746.696 387.093 750.962 384.458C759.623 379.108 773.372 375.394 793.39 373.209L792.522 365.256C772.208 367.474 756.985 371.334 746.757 377.652C741.579 380.85 737.592 384.732 734.92 389.417C732.243 394.109 731.012 399.381 731.012 405.161H739.012ZM796.955 369.17C796.862 363.195 795.753 356.933 792.228 352.086C788.525 346.994 782.632 344.098 774.463 344.098V352.098C780.56 352.098 783.825 354.134 785.758 356.791C787.868 359.693 788.873 363.999 788.956 369.295L796.955 369.17ZM774.463 344.098C763.089 344.098 752.782 349.18 744.308 354.589L748.612 361.333C756.693 356.174 765.408 352.098 774.463 352.098V344.098ZM749.963 356.03L742.39 342.292L735.384 346.155L742.957 359.892L749.963 356.03ZM741.023 347.605C750.761 341.455 763.563 335.543 777.985 335.543V327.543C761.411 327.543 747.09 334.311 736.751 340.841L741.023 347.605ZM777.985 335.543C789.153 335.543 796.697 339.047 801.555 344.958C806.529 351.009 809.21 360.21 809.21 372.579H817.21C817.21 359.234 814.342 347.917 807.736 339.878C801.014 331.7 790.947 327.543 777.985 327.543V335.543ZM809.21 372.579V430.875H817.21V372.579H809.21ZM813.21 426.875H796.654V434.875H813.21V426.875ZM800.614 430.309L799.029 419.213L791.109 420.345L792.694 431.44L800.614 430.309ZM795.069 415.779H794.365V423.779H795.069V415.779ZM791.756 416.746C783.29 424.027 773.801 429.164 763.544 429.164V437.164C776.534 437.164 787.827 430.677 796.973 422.812L791.756 416.746ZM750.561 403.752C750.561 409.506 752.586 414.096 756.406 417.14C760.075 420.063 764.874 421.137 769.708 421.137V413.137C765.912 413.137 763.138 412.275 761.391 410.883C759.795 409.611 758.561 407.509 758.561 403.752H750.561ZM769.708 421.137C779.66 421.137 787.47 416.275 795.65 408.822L790.262 402.909C782.59 409.898 776.663 413.137 769.708 413.137V421.137ZM796.956 405.866V382.089H788.956V405.866H796.956ZM792.493 378.116C777.984 379.807 767.686 382.571 760.924 386.657C757.484 388.736 754.847 391.224 753.086 394.187C751.313 397.168 750.561 400.403 750.561 403.752H758.561C758.561 401.641 759.021 399.857 759.962 398.276C760.913 396.675 762.492 395.058 765.062 393.504C770.321 390.326 779.22 387.717 793.419 386.062L792.493 378.116ZM909.582 342.638L912.766 345.059L915.025 342.086L912.216 339.628L909.582 342.638ZM899.543 355.847L896.867 358.821L900.098 361.728L902.728 358.268L899.543 355.847ZM902.713 407.803L906.095 405.667L903.636 401.774L900.125 404.753L902.713 407.803ZM911.167 421.188L913.813 424.187L916.368 421.933L914.549 419.052L911.167 421.188ZM879.641 429.164C867.483 429.164 856.989 424.899 849.527 417.12C842.063 409.339 837.322 397.713 837.322 382.442H829.322C829.322 399.4 834.619 413.136 843.754 422.658C852.892 432.183 865.557 437.164 879.641 437.164V429.164ZM837.322 382.442C837.322 367.294 842.555 355.625 850.512 347.749C858.494 339.846 869.436 335.543 881.226 335.543V327.543C867.479 327.543 854.468 332.574 844.883 342.063C835.272 351.578 829.322 365.359 829.322 382.442H837.322ZM881.226 335.543C892.34 335.543 900.423 339.939 906.948 345.649L912.216 339.628C904.651 333.009 894.77 327.543 881.226 327.543V335.543ZM906.397 340.218L896.358 353.427L902.728 358.268L912.766 345.059L906.397 340.218ZM902.219 352.874C896.488 347.716 890.116 344.274 882.283 344.274V352.274C887.483 352.274 892.031 354.468 896.867 358.821L902.219 352.874ZM882.283 344.274C872.887 344.274 864.761 348.252 859.057 355.147C853.398 361.989 850.28 371.49 850.28 382.442H858.28C858.28 372.963 860.974 365.381 865.221 360.246C869.424 355.165 875.3 352.274 882.283 352.274V344.274ZM850.28 382.442C850.28 393.446 853.29 402.939 858.808 409.767C864.378 416.659 872.339 420.609 881.579 420.609V412.609C874.791 412.609 869.103 409.779 865.03 404.738C860.906 399.634 858.28 392.044 858.28 382.442H850.28ZM881.579 420.609C890.982 420.609 899.091 416.122 905.301 410.853L900.125 404.753C894.711 409.347 888.379 412.609 881.579 412.609V420.609ZM899.331 409.939L907.785 423.324L914.549 419.052L906.095 405.667L899.331 409.939ZM908.52 418.189C900.288 425.452 889.788 429.164 879.641 429.164V437.164C891.686 437.164 904.081 432.775 913.813 424.187L908.52 418.189ZM929.413 290.507V286.507H925.413V290.507H929.413ZM949.315 290.507H953.315V286.507H949.315V290.507ZM949.315 380.856H945.315V384.856H949.315V380.856ZM950.019 380.856V384.856H951.941L953.142 383.357L950.019 380.856ZM987.533 334.008V330.008H985.611L984.411 331.508L987.533 334.008ZM1010.08 334.008L1013.15 336.564L1018.6 330.008H1010.08V334.008ZM977.318 373.459L974.24 370.904L972.38 373.145L973.941 375.604L977.318 373.459ZM1013.77 430.875V434.875H1021.05L1017.15 428.73L1013.77 430.875ZM991.76 430.875L988.327 432.929L989.492 434.875H991.76V430.875ZM965.518 387.021L968.95 384.967L966.115 380.23L962.497 384.399L965.518 387.021ZM949.315 405.689L946.294 403.068L945.315 404.196V405.689H949.315ZM949.315 430.875V434.875H953.315V430.875H949.315ZM929.413 430.875H925.413V434.875H929.413V430.875ZM929.413 294.507H949.315V286.507H929.413V294.507ZM945.315 290.507V380.856H953.315V290.507H945.315ZM949.315 384.856H950.019V376.856H949.315V384.856ZM953.142 383.357L990.655 336.509L984.411 331.508L946.897 378.356L953.142 383.357ZM987.533 338.008H1010.08V330.008H987.533V338.008ZM1007 331.453L974.24 370.904L980.395 376.015L1013.15 336.564L1007 331.453ZM973.941 375.604L1010.4 433.019L1017.15 428.73L980.695 371.315L973.941 375.604ZM1013.77 426.875H991.76V434.875H1013.77V426.875ZM995.192 428.821L968.95 384.967L962.085 389.075L988.327 432.929L995.192 428.821ZM962.497 384.399L946.294 403.068L952.336 408.311L968.539 389.643L962.497 384.399ZM945.315 405.689V430.875H953.315V405.689H945.315ZM949.315 426.875H929.413V434.875H949.315V426.875ZM933.413 430.875V290.507H925.413V430.875H933.413ZM1083.02 369.233L1083.46 373.209L1087.08 372.813L1087.02 369.17L1083.02 369.233ZM1036.53 357.961L1033.03 359.892L1035.09 363.628L1038.68 361.333L1036.53 357.961ZM1028.96 344.223L1026.82 340.841L1023.63 342.854L1025.45 346.155L1028.96 344.223ZM1103.28 430.875V434.875H1107.28V430.875H1103.28ZM1086.72 430.875L1082.76 431.44L1083.25 434.875H1086.72V430.875ZM1085.14 419.779L1089.1 419.213L1088.61 415.779H1085.14V419.779ZM1084.43 419.779V415.779H1082.95L1081.83 416.746L1084.43 419.779ZM1083.02 405.866L1085.72 408.822L1087.02 407.632V405.866H1083.02ZM1083.02 382.089H1087.02V377.596L1082.56 378.116L1083.02 382.089ZM1053.61 429.164C1046.12 429.164 1040.04 426.733 1035.85 422.691C1031.68 418.665 1029.08 412.747 1029.08 405.161H1021.08C1021.08 414.659 1024.38 422.743 1030.29 428.447C1036.19 434.135 1044.37 437.164 1053.61 437.164V429.164ZM1029.08 405.161C1029.08 400.55 1030.05 396.686 1031.94 393.381C1033.83 390.069 1036.76 387.093 1041.03 384.458C1049.69 379.108 1063.44 375.394 1083.46 373.209L1082.59 365.256C1062.28 367.474 1047.05 371.334 1036.83 377.652C1031.65 380.85 1027.66 384.732 1024.99 389.417C1022.31 394.109 1021.08 399.381 1021.08 405.161H1029.08ZM1087.02 369.17C1086.93 363.195 1085.82 356.933 1082.3 352.086C1078.59 346.994 1072.7 344.098 1064.53 344.098V352.098C1070.63 352.098 1073.89 354.134 1075.83 356.791C1077.94 359.693 1078.94 363.999 1079.02 369.295L1087.02 369.17ZM1064.53 344.098C1053.16 344.098 1042.85 349.18 1034.38 354.589L1038.68 361.333C1046.76 356.174 1055.48 352.098 1064.53 352.098V344.098ZM1040.03 356.03L1032.46 342.292L1025.45 346.155L1033.03 359.892L1040.03 356.03ZM1031.09 347.605C1040.83 341.455 1053.63 335.543 1068.05 335.543V327.543C1051.48 327.543 1037.16 334.311 1026.82 340.841L1031.09 347.605ZM1068.05 335.543C1079.22 335.543 1086.77 339.047 1091.62 344.958C1096.6 351.009 1099.28 360.21 1099.28 372.579H1107.28C1107.28 359.234 1104.41 347.917 1097.8 339.878C1091.08 331.7 1081.02 327.543 1068.05 327.543V335.543ZM1099.28 372.579V430.875H1107.28V372.579H1099.28ZM1103.28 426.875H1086.72V434.875H1103.28V426.875ZM1090.68 430.309L1089.1 419.213L1081.18 420.345L1082.76 431.44L1090.68 430.309ZM1085.14 415.779H1084.43V423.779H1085.14V415.779ZM1081.83 416.746C1073.36 424.027 1063.87 429.164 1053.61 429.164V437.164C1066.6 437.164 1077.9 430.677 1087.04 422.812L1081.83 416.746ZM1040.63 403.752C1040.63 409.506 1042.65 414.096 1046.47 417.14C1050.14 420.063 1054.94 421.137 1059.78 421.137V413.137C1055.98 413.137 1053.21 412.275 1051.46 410.883C1049.86 409.611 1048.63 407.509 1048.63 403.752H1040.63ZM1059.78 421.137C1069.73 421.137 1077.54 416.275 1085.72 408.822L1080.33 402.909C1072.66 409.898 1066.73 413.137 1059.78 413.137V421.137ZM1087.02 405.866V382.089H1079.02V405.866H1087.02ZM1082.56 378.116C1068.05 379.807 1057.75 382.571 1050.99 386.657C1047.55 388.736 1044.92 391.224 1043.15 394.187C1041.38 397.168 1040.63 400.403 1040.63 403.752H1048.63C1048.63 401.641 1049.09 399.857 1050.03 398.276C1050.98 396.675 1052.56 395.058 1055.13 393.504C1060.39 390.326 1069.29 387.717 1083.49 386.062L1082.56 378.116ZM1133.43 350.212H1137.43V346.212H1133.43V350.212ZM1119.34 350.212H1115.34V354.212H1119.34V350.212ZM1119.34 335.065L1119.06 331.075L1115.34 331.335V335.065H1119.34ZM1134.49 334.008L1134.76 337.999L1138.18 337.761L1138.47 334.349L1134.49 334.008ZM1136.78 307.238V303.238H1133.1L1132.79 306.897L1136.78 307.238ZM1153.68 307.238H1157.68V303.238H1153.68V307.238ZM1153.68 334.008H1149.68V338.008H1153.68V334.008ZM1178.87 334.008H1182.87V330.008H1178.87V334.008ZM1178.87 350.212V354.212H1182.87V350.212H1178.87ZM1153.68 350.212V346.212H1149.68V350.212H1153.68ZM1178.16 414.672L1182.05 413.712L1180.91 409.105L1176.56 411.007L1178.16 414.672ZM1181.86 429.642L1183.09 433.449L1186.64 432.304L1185.75 428.682L1181.86 429.642ZM1162.84 429.164C1152.8 429.164 1146.77 426.094 1143.1 421.374C1139.28 416.453 1137.43 409.016 1137.43 399.173H1129.43C1129.43 409.76 1131.37 419.318 1136.79 426.286C1142.36 433.454 1151.04 437.164 1162.84 437.164V429.164ZM1137.43 399.173V350.212H1129.43V399.173H1137.43ZM1133.43 346.212H1119.34V354.212H1133.43V346.212ZM1123.34 350.212V335.065H1115.34V350.212H1123.34ZM1119.62 339.056L1134.76 337.999L1134.21 330.018L1119.06 331.075L1119.62 339.056ZM1138.47 334.349L1140.76 307.579L1132.79 306.897L1130.5 333.668L1138.47 334.349ZM1136.78 311.238H1153.68V303.238H1136.78V311.238ZM1149.68 307.238V334.008H1157.68V307.238H1149.68ZM1153.68 338.008H1178.87V330.008H1153.68V338.008ZM1174.87 334.008V350.212H1182.87V334.008H1174.87ZM1178.87 346.212H1153.68V354.212H1178.87V346.212ZM1149.68 350.212V399.349H1157.68V350.212H1149.68ZM1149.68 399.349C1149.68 405.484 1150.72 410.961 1153.79 414.952C1157.04 419.171 1161.92 420.961 1167.77 420.961V412.961C1163.59 412.961 1161.43 411.757 1160.13 410.076C1158.67 408.167 1157.68 404.839 1157.68 399.349H1149.68ZM1167.77 420.961C1171.77 420.961 1176.54 419.747 1179.77 418.336L1176.56 411.007C1174.15 412.062 1170.47 412.961 1167.77 412.961V420.961ZM1174.28 415.631L1177.98 430.601L1185.75 428.682L1182.05 413.712L1174.28 415.631ZM1180.63 425.835C1175.29 427.56 1169.25 429.164 1162.84 429.164V437.164C1170.52 437.164 1177.52 435.246 1183.09 433.449L1180.63 425.835ZM1198.33 290.507V286.507H1194.33V290.507H1198.33ZM1218.58 290.507H1222.58V286.507H1218.58V290.507ZM1218.58 327.668L1222.58 327.851L1222.58 327.76V327.668H1218.58ZM1217.7 346.865L1213.7 346.682L1213.25 356.674L1220.47 349.753L1217.7 346.865ZM1278.81 430.875V434.875H1282.81V430.875H1278.81ZM1258.56 430.875H1254.56V434.875H1258.56V430.875ZM1218.58 362.188L1215.72 359.389L1214.58 360.555V362.188H1218.58ZM1218.58 430.875V434.875H1222.58V430.875H1218.58ZM1198.33 430.875H1194.33V434.875H1198.33V430.875ZM1198.33 294.507H1218.58V286.507H1198.33V294.507ZM1214.58 290.507V327.668H1222.58V290.507H1214.58ZM1214.58 327.485L1213.7 346.682L1221.7 347.049L1222.58 327.851L1214.58 327.485ZM1220.47 349.753C1228.75 341.817 1237.46 335.543 1249.05 335.543V327.543C1234.22 327.543 1223.56 335.711 1214.93 343.977L1220.47 349.753ZM1249.05 335.543C1258.38 335.543 1264.5 338.59 1268.45 343.887C1272.57 349.405 1274.81 357.986 1274.81 369.937H1282.81C1282.81 357.231 1280.47 346.615 1274.86 339.101C1269.09 331.364 1260.33 327.543 1249.05 327.543V335.543ZM1274.81 369.937V430.875H1282.81V369.937H1274.81ZM1278.81 426.875H1258.56V434.875H1278.81V426.875ZM1262.56 430.875V372.403H1254.56V430.875H1262.56ZM1262.56 372.403C1262.56 363.827 1261.33 356.918 1257.93 352.106C1254.28 346.952 1248.74 344.979 1242.18 344.979V352.979C1247.07 352.979 1249.72 354.351 1251.4 356.727C1253.32 359.444 1254.56 364.247 1254.56 372.403H1262.56ZM1242.18 344.979C1231.45 344.979 1224.27 350.668 1215.72 359.389L1221.44 364.987C1229.8 356.448 1234.95 352.979 1242.18 352.979V344.979ZM1214.58 362.188V430.875H1222.58V362.188H1214.58ZM1218.58 426.875H1198.33V434.875H1218.58V426.875ZM1202.33 430.875V290.507H1194.33V430.875H1202.33ZM1344.7 429.164C1323.06 429.164 1303.08 412.57 1303.08 382.442H1295.08C1295.08 416.773 1318.43 437.164 1344.7 437.164V429.164ZM1303.08 382.442C1303.08 352.293 1323.08 335.543 1344.7 335.543V327.543C1318.41 327.543 1295.08 348.13 1295.08 382.442H1303.08ZM1344.7 335.543C1366.32 335.543 1386.31 352.293 1386.31 382.442H1394.31C1394.31 348.13 1370.99 327.543 1344.7 327.543V335.543ZM1386.31 382.442C1386.31 412.57 1366.34 429.164 1344.7 429.164V437.164C1370.97 437.164 1394.31 416.773 1394.31 382.442H1386.31ZM1316.04 382.442C1316.04 393.301 1318.54 402.74 1323.44 409.581C1328.42 416.544 1335.77 420.609 1344.7 420.609V412.609C1338.48 412.609 1333.5 409.893 1329.94 404.924C1326.3 399.833 1324.04 392.188 1324.04 382.442H1316.04ZM1344.7 420.609C1353.7 420.609 1361.09 416.558 1366.11 409.589C1371.03 402.744 1373.53 393.301 1373.53 382.442H1365.53C1365.53 392.188 1363.28 399.829 1359.61 404.916C1356.04 409.879 1351.02 412.609 1344.7 412.609V420.609ZM1373.53 382.442C1373.53 371.664 1371.03 362.226 1366.11 355.366C1361.11 348.384 1353.72 344.274 1344.7 344.274V352.274C1351.01 352.274 1356.03 355.033 1359.61 360.027C1363.28 365.143 1365.53 372.789 1365.53 382.442H1373.53ZM1344.7 344.274C1335.76 344.274 1328.41 348.399 1323.43 355.374C1318.54 362.231 1316.04 371.663 1316.04 382.442H1324.04C1324.04 372.79 1326.3 365.139 1329.95 360.019C1333.51 355.018 1338.5 352.274 1344.7 352.274V344.274ZM1412.37 334.008V330.008H1408.37V334.008H1412.37ZM1428.93 334.008L1432.9 333.538L1432.48 330.008H1428.93V334.008ZM1430.52 347.394L1426.54 347.864L1426.96 351.394H1430.52V347.394ZM1431.04 347.394V351.394H1432.65L1433.81 350.278L1431.04 347.394ZM1492.86 430.875V434.875H1496.86V430.875H1492.86ZM1472.61 430.875H1468.61V434.875H1472.61V430.875ZM1432.63 362.188L1429.77 359.389L1428.63 360.555V362.188H1432.63ZM1432.63 430.875V434.875H1436.63V430.875H1432.63ZM1412.37 430.875H1408.37V434.875H1412.37V430.875ZM1412.37 338.008H1428.93V330.008H1412.37V338.008ZM1424.96 334.479L1426.54 347.864L1434.49 346.923L1432.9 333.538L1424.96 334.479ZM1430.52 351.394H1431.04V343.394H1430.52V351.394ZM1433.81 350.278C1442.62 341.814 1451.51 335.543 1463.1 335.543V327.543C1448.27 327.543 1437.43 335.714 1428.27 344.509L1433.81 350.278ZM1463.1 335.543C1472.42 335.543 1478.55 338.59 1482.5 343.887C1486.62 349.405 1488.86 357.986 1488.86 369.937H1496.86C1496.86 357.231 1494.52 346.615 1488.91 339.101C1483.14 331.364 1474.38 327.543 1463.1 327.543V335.543ZM1488.86 369.937V430.875H1496.86V369.937H1488.86ZM1492.86 426.875H1472.61V434.875H1492.86V426.875ZM1476.61 430.875V372.403H1468.61V430.875H1476.61ZM1476.61 372.403C1476.61 363.827 1475.38 356.918 1471.98 352.106C1468.33 346.952 1462.79 344.979 1456.23 344.979V352.979C1461.12 352.979 1463.77 354.351 1465.45 356.727C1467.37 359.444 1468.61 364.247 1468.61 372.403H1476.61ZM1456.23 344.979C1445.5 344.979 1438.31 350.668 1429.77 359.389L1435.49 364.987C1443.85 356.448 1449 352.979 1456.23 352.979V344.979ZM1428.63 362.188V430.875H1436.63V362.188H1428.63ZM1432.63 426.875H1412.37V434.875H1432.63V426.875ZM1416.37 430.875V334.008H1408.37V430.875H1416.37Z" fill="black" mask="url(#path-23-outside-4_203_229)"/>
<defs>
<clipPath id="clip0_203_229">
<rect width="500" height="150" fill="white" transform="translate(1 227)"/>
</clipPath>
</defs>
</svg>
